{
.appVersion = "3058";
copyright = OFL;
customParameters = (
{
name = glyphOrder;
value = (
inkstem_S,
inkstem_M,
inkstem_L,
inkcurve
);
},
{
name = Axes;
value = (
{
Name = Weight;
Tag = wght;
},
{
Name = EcoFriendliness;
Tag = ecof;
}
);
}
);
date = "2021-01-01 22:09:35 +0000";
designer = "Luigi Gorlero";
designerURL = "http://luigigorlero.com/";
familyName = "Apfel Grotezk";
featurePrefixes = (
{
automatic = 1;
code = "languagesystem DFLT dflt;\012\012languagesystem latn dflt;\012languagesystem latn AZE;\012languagesystem latn CRT;\012languagesystem latn KAZ;\012languagesystem latn TAT;\012languagesystem latn TRK;\012languagesystem latn ROM;\012languagesystem latn MOL;\012";
name = Languagesystems;
}
);
features = (
{
code = "feature sups;\012feature frac;\012feature ordn;\012";
name = aalt;
},
{
automatic = 1;
code = "lookup ccmp_Other_1 {\012	@CombiningTopAccents = [acutecomb brevecomb caroncomb circumflexcomb dieresiscomb dotaccentcomb gravecomb hungarumlautcomb macroncomb ringcomb tildecomb];\012	@CombiningNonTopAccents = [cedillacomb ogonekcomb];\012	sub [i j]' @CombiningTopAccents by [idotless jdotless];\012	sub [i j]' @CombiningNonTopAccents @CombiningTopAccents by [idotless jdotless];\012} ccmp_Other_1;\012";
name = ccmp;
},
{
automatic = 1;
code = "lookup locl_latn_0 {\012	script latn;\012	language AZE;\012	sub i by idotaccent;\012	language CRT;\012	sub i by idotaccent;\012	language KAZ;\012	sub i by idotaccent;\012	language TAT;\012	sub i by idotaccent;\012	language TRK;\012	sub i by idotaccent;\012} locl_latn_0;\012\012lookup locl_latn_1 {\012	script latn;\012	language ROM;\012	sub Scedilla by Scommaaccent;\012	sub scedilla by scommaaccent;\012	sub Tcedilla by Tcommaaccent;\012	sub tcedilla by tcommaaccent;\012	language MOL;\012	sub Scedilla by Scommaaccent;\012	sub scedilla by scommaaccent;\012	sub Tcedilla by Tcommaaccent;\012	sub tcedilla by tcommaaccent;\012} locl_latn_1;\012";
name = locl;
},
{
automatic = 1;

glyphs = (
{
export = 0;
glyphname = inkstem_S;
lastChange = "2021-05-16 10:45:07 +0000";
layers = (
{
layerId = "8007C042-6FBA-4E49-99B8-8B738A4EBE86";
width = 600;
},
{
layerId = "ADDE491E-C0C4-4659-943C-53377B387F47";
width = 600;
},
{
layerId = m003;
paths = (
{
closed = 1;
nodes = (
"284 272 OFFCURVE",
"272 284 OFFCURVE",
"272 300 CURVE SMOOTH",
"272 316 OFFCURVE",
"284 328 OFFCURVE",
"300 328 CURVE SMOOTH",
"316 328 OFFCURVE",
"328 316 OFFCURVE",
"328 300 CURVE SMOOTH",
"328 284 OFFCURVE",
"316 272 OFFCURVE",
"300 272 CURVE SMOOTH"
);
}
);
width = 600;
}
);
},
{
export = 0;
glyphname = inkstem_M;
lastChange = "2021-05-16 10:45:11 +0000";
layers = (
{
layerId = "8007C042-6FBA-4E49-99B8-8B738A4EBE86";
width = 600;
},
{
layerId = "ADDE491E-C0C4-4659-943C-53377B387F47";
width = 600;
},
{
layerId = m003;
paths = (
{
closed = 1;
nodes = (
"285 242 OFFCURVE",
"274 254 OFFCURVE",
"274 270 CURVE SMOOTH",
"274 330 LINE SMOOTH",
"274 346 OFFCURVE",
"285 358 OFFCURVE",
"300 358 CURVE SMOOTH",
"315 358 OFFCURVE",
"326 346 OFFCURVE",
"326 330 CURVE SMOOTH",
"326 270 LINE SMOOTH",
"326 254 OFFCURVE",
"315 242 OFFCURVE",
"300 242 CURVE SMOOTH"
);
}
);
width = 600;
}
);
},
{
export = 0;
glyphname = inkstem_L;
lastChange = "2021-05-16 10:45:13 +0000";
layers = (
{
layerId = "8007C042-6FBA-4E49-99B8-8B738A4EBE86";
width = 600;
},
{
layerId = "ADDE491E-C0C4-4659-943C-53377B387F47";
width = 600;
},
{
layerId = m003;
paths = (
{
closed = 1;
nodes = (
"285 220 OFFCURVE",
"274 232 OFFCURVE",
"274 248 CURVE SMOOTH",
"274 352 LINE SMOOTH",
"274 368 OFFCURVE",
"285 380 OFFCURVE",
"300 380 CURVE SMOOTH",
"315 380 OFFCURVE",
"326 368 OFFCURVE",
"326 352 CURVE SMOOTH",
"326 248 LINE SMOOTH",
"326 232 OFFCURVE",
"315 220 OFFCURVE",
"300 220 CURVE SMOOTH"
);
}
);
width = 600;
}
);
},
{
export = 0;
glyphname = inkcurve;
lastChange = "2021-05-16 10:45:16 +0000";
layers = (
{
layerId = "8007C042-6FBA-4E49-99B8-8B738A4EBE86";
width = 600;
},
{
layerId = "ADDE491E-C0C4-4659-943C-53377B387F47";
width = 600;
},
{
layerId = m003;
paths = (
{
closed = 1;
nodes = (
"255 281 OFFCURVE",
"244 292 OFFCURVE",
"244 304 CURVE SMOOTH",
"244 320 OFFCURVE",
"256 330 OFFCURVE",
"272 326 CURVE SMOOTH",
"288 322 OFFCURVE",
"312 322 OFFCURVE",
"328 326 CURVE SMOOTH",
"344 330 OFFCURVE",
"356 320 OFFCURVE",
"356 304 CURVE SMOOTH",
"356 292 OFFCURVE",
"345 281 OFFCURVE",
"332 278 CURVE SMOOTH",
"312 273 OFFCURVE",
"288 273 OFFCURVE",
"268 278 CURVE SMOOTH"
);
}
);
width = 600;
}
);
},
{
color = 10;
glyphname = A;
lastChange = "2021-05-16 10:40:45 +0000";
layers = (
{
anchors = (
{
name = bottom;
position = "{304, 0}";
},
{
name = ogonek;
position = "{564, 0}";
},
{
name = top;
position = "{304, 618}";
}
);
layerId = "8007C042-6FBA-4E49-99B8-8B738A4EBE86";
paths = (
{
closed = 1;
nodes = (
"100 0 LINE",
"302 540 LINE",
"508 0 LINE",
"604 0 LINE",
"348 650 LINE",
"260 650 LINE",
"4 0 LINE"
);
},
{
closed = 1;
nodes = (
"482 176 LINE",
"482 256 LINE",
"134 256 LINE",
"134 176 LINE"
);
}
);
width = 608;
},
{
anchors = (
{
name = bottom;
position = "{320, 0}";
},
{
name = ogonek;
position = "{556, 0}";
},
{
name = top;
position = "{320, 634}";
}
);
layerId = "ADDE491E-C0C4-4659-943C-53377B387F47";
paths = (
{
closed = 1;
nodes = (
"166 0 LINE",
"320 496 LINE",
"476 0 LINE",
"636 0 LINE",
"410 650 LINE",
"230 650 LINE",
"4 0 LINE"
);
},
{
closed = 1;
nodes = (
"494 152 LINE",
"494 256 LINE",
"146 256 LINE",
"146 152 LINE"
);
}
);
width = 640;
},
{
anchors = (
{
name = bottom;
position = "{304, 0}";
},
{
name = ogonek;
position = "{564, 0}";
},
{
name = top;
position = "{304, 618}";
}
);
components = (
{
name = inkstem_S;
transform = "{1, 0, 0, 1, -225, -240}";
},
{
name = inkstem_S;
transform = "{1, 0, 0, 1, 232, -240}";
},
{
name = inkstem_M;
transform = "{0.92718, -0.37461, 0.37461, 0.92718, -178, 250}";
},
{
name = inkstem_M;
transform = "{-0.92718, -0.37461, -0.37461, 0.92718, 786, 250}";
}
);
layerId = m003;
paths = (
{
closed = 1;
nodes = (
"100 0 LINE",
"152 140 LINE SMOOTH",
"154 146 OFFCURVE",
"153 153 OFFCURVE",
"149 156 CURVE SMOOTH",
"141 161 OFFCURVE",
"136 170 OFFCURVE",
"136 180 CURVE SMOOTH",
"136 196 OFFCURVE",
"148 208 OFFCURVE",
"164 208 CURVE SMOOTH",
"177 208 OFFCURVE",
"188 200 OFFCURVE",
"191 188 CURVE SMOOTH",
"192 181 OFFCURVE",
"197 176 OFFCURVE",
"203 176 CURVE SMOOTH",
"404 176 LINE SMOOTH",
"410 176 OFFCURVE",
"415 181 OFFCURVE",
"416 188 CURVE SMOOTH",
"419 200 OFFCURVE",
"430 208 OFFCURVE",
"443 208 CURVE SMOOTH",
"459 208 OFFCURVE",
"471 196 OFFCURVE",
"471 180 CURVE SMOOTH",
"471 170 OFFCURVE",
"466 161 OFFCURVE",
"458 156 CURVE SMOOTH",
"454 153 OFFCURVE",
"453 146 OFFCURVE",
"455 140 CURVE SMOOTH",
"508 0 LINE",
"604 0 LINE",
"348 650 LINE",
"260 650 LINE",
"4 0 LINE"
);
},
{
closed = 1;
nodes = (
"180 228 OFFCURVE",
"168 240 OFFCURVE",
"168 256 CURVE SMOOTH",
"168 272 OFFCURVE",
"180 284 OFFCURVE",
"196 284 CURVE SMOOTH",
"202 284 OFFCURVE",
"208 288 OFFCURVE",
"210 293 CURVE SMOOTH",
"287 500 LINE SMOOTH",
"290 507 OFFCURVE",
"287 515 OFFCURVE",
"282 520 CURVE SMOOTH",
"277 525 OFFCURVE",
"274 532 OFFCURVE",
"274 540 CURVE SMOOTH",
"274 556 OFFCURVE",
"286 568 OFFCURVE",
"302 568 CURVE SMOOTH",
"318 568 OFFCURVE",
"330 556 OFFCURVE",
"330 540 CURVE SMOOTH",
"330 532 OFFCURVE",
"327 525 OFFCURVE",
"322 520 CURVE SMOOTH",
"317 515 OFFCURVE",
"314 507 OFFCURVE",
"317 500 CURVE SMOOTH",
"396 293 LINE SMOOTH",
"398 288 OFFCURVE",
"404 284 OFFCURVE",
"410 284 CURVE SMOOTH",
"426 284 OFFCURVE",
"438 272 OFFCURVE",
"438 256 CURVE SMOOTH",
"438 240 OFFCURVE",
"426 228 OFFCURVE",
"410 228 CURVE SMOOTH",
"398 228 OFFCURVE",
"388 235 OFFCURVE",
"384 245 CURVE SMOOTH",
"382 251 OFFCURVE",
"376 256 OFFCURVE",
"370 256 CURVE SMOOTH",
"236 256 LINE SMOOTH",
"230 256 OFFCURVE",
"224 251 OFFCURVE",
"222 245 CURVE SMOOTH",
"218 235 OFFCURVE",
"208 228 OFFCURVE",
"196 228 CURVE SMOOTH"
);
}
);
width = 608;
}
);
leftKerningGroup = A;
rightKerningGroup = A;
unicode = 0041;
},
{
glyphname = AE;
lastChange = "2021-05-16 10:41:08 +0000";
layers = (
{
layerId = "8007C042-6FBA-4E49-99B8-8B738A4EBE86";
paths = (
{
closed = 1;
nodes = (
"98 0 LINE",
"366 650 LINE",
"282 650 LINE",
"2 0 LINE"
);
},
{
closed = 1;
nodes = (
"432 176 LINE",
"432 256 LINE",
"132 256 LINE",
"132 176 LINE"
);
},
{
closed = 1;
nodes = (
"856 0 LINE",
"856 82 LINE",
"476 82 LINE",
"476 0 LINE"
);
},
{
closed = 1;
nodes = (
"496 0 LINE",
"496 650 LINE",
"412 650 LINE",
"412 0 LINE"
);
},
{
closed = 1;
nodes = (
"804 293 LINE",
"804 371 LINE",
"476 371 LINE",
"476 293 LINE"
);
},
{
closed = 1;
nodes = (
"844 570 LINE",
"844 650 LINE",
"302 650 LINE",
"302 570 LINE"
);
}
);
width = 888;
},
{
layerId = "ADDE491E-C0C4-4659-943C-53377B387F47";
paths = (
{
closed = 1;
nodes = (
"166 0 LINE",
"436 650 LINE",
"292 650 LINE",
"2 0 LINE"
);
},
{
closed = 1;
nodes = (
"460 152 LINE",
"460 256 LINE",
"176 256 LINE",
"176 152 LINE"
);
},
{
closed = 1;
nodes = (
"904 0 LINE",
"904 136 LINE",
"568 136 LINE",
"568 0 LINE"
);
},
{
closed = 1;
nodes = (
"588 0 LINE",
"588 650 LINE",
"440 650 LINE",
"440 0 LINE"
);
},
{
closed = 1;
nodes = (
"844 281 LINE",
"844 383 LINE",
"568 383 LINE",
"568 281 LINE"
);
},
{
closed = 1;
nodes = (
"896 518 LINE",
"896 650 LINE",
"336 650 LINE",
"336 518 LINE"
);
}
);
width = 920;
},
{
components = (
{
name = inkstem_M;
transform = "{0, -1, 1, 0, 332, 910}";
},
{
name = inkstem_L;
transform = "{0, -1, 1, 0, 334, 342}";
},
{
name = inkstem_M;
transform = "{0, -1, 1, 0, 408, 632}";
},
{
name = inkstem_S;
transform = "{1, 0, 0, 1, 486, 310}";
},
{
name = inkstem_S;
transform = "{1, 0, 0, 1, 494, -258}";
},
{
name = inkstem_S;
transform = "{1, 0, 0, 1, -224, -240}";
},
{
name = inkstem_M;
transform = "{0.91354, -0.40674, 0.40674, 0.91354, -172, 264}";
}
);
layerId = m003;
paths = (
{
closed = 1;
nodes = (
"98 0 LINE",
"156 140 LINE SMOOTH",
"159 146 OFFCURVE",
"157 153 OFFCURVE",
"153 156 CURVE SMOOTH",
"145 161 OFFCURVE",
"140 170 OFFCURVE",
"140 180 CURVE SMOOTH",
"140 196 OFFCURVE",
"152 208 OFFCURVE",
"168 208 CURVE SMOOTH",
"181 208 OFFCURVE",
"192 200 OFFCURVE",
"195 188 CURVE SMOOTH",
"196 181 OFFCURVE",
"201 176 OFFCURVE",
"207 176 CURVE SMOOTH",
"369 176 LINE SMOOTH",
"377 176 OFFCURVE",
"384 181 OFFCURVE",
"387 189 CURVE SMOOTH",
"391 198 OFFCURVE",
"401 204 OFFCURVE",
"412 204 CURVE SMOOTH",
"428 204 OFFCURVE",
"440 192 OFFCURVE",
"440 176 CURVE SMOOTH",
"440 165 OFFCURVE",
"434 155 OFFCURVE",
"425 151 CURVE SMOOTH",
"417 148 OFFCURVE",
"412 141 OFFCURVE",
"412 133 CURVE SMOOTH",
"412 0 LINE",
"856 0 LINE",
"856 82 LINE",
"539 82 LINE SMOOTH",
"531 82 OFFCURVE",
"524 77 OFFCURVE",
"521 69 CURVE SMOOTH",
"517 60 OFFCURVE",
"507 54 OFFCURVE",
"496 54 CURVE SMOOTH",
"480 54 OFFCURVE",
"468 66 OFFCURVE",
"468 82 CURVE SMOOTH",
"468 93 OFFCURVE",
"474 103 OFFCURVE",
"483 107 CURVE SMOOTH",
"491 110 OFFCURVE",
"496 117 OFFCURVE",
"496 125 CURVE SMOOTH",
"496 249 LINE SMOOTH",
"496 257 OFFCURVE",
"491 264 OFFCURVE",
"483 267 CURVE SMOOTH",
"474 271 OFFCURVE",
"468 281 OFFCURVE",
"468 292 CURVE SMOOTH",
"468 308 OFFCURVE",
"480 320 OFFCURVE",
"496 320 CURVE SMOOTH",
"507 320 OFFCURVE",
"517 314 OFFCURVE",
"521 305 CURVE SMOOTH",
"524 297 OFFCURVE",
"531 292 OFFCURVE",
"539 292 CURVE SMOOTH",
"804 293 LINE",
"804 371 LINE",
"539 371 LINE SMOOTH",
"531 371 OFFCURVE",
"524 366 OFFCURVE",
"521 358 CURVE SMOOTH",
"517 349 OFFCURVE",
"507 343 OFFCURVE",
"496 343 CURVE SMOOTH",
"480 343 OFFCURVE",
"468 355 OFFCURVE",
"468 371 CURVE SMOOTH",
"468 382 OFFCURVE",
"474 392 OFFCURVE",
"483 396 CURVE SMOOTH",
"491 399 OFFCURVE",
"496 406 OFFCURVE",
"496 414 CURVE SMOOTH",
"496 527 LINE SMOOTH",
"496 535 OFFCURVE",
"491 542 OFFCURVE",
"483 545 CURVE SMOOTH",
"474 549 OFFCURVE",
"468 559 OFFCURVE",
"468 570 CURVE SMOOTH",
"468 586 OFFCURVE",
"480 598 OFFCURVE",
"496 598 CURVE SMOOTH",
"507 598 OFFCURVE",
"517 592 OFFCURVE",
"521 583 CURVE SMOOTH",
"524 575 OFFCURVE",
"531 570 OFFCURVE",
"539 570 CURVE SMOOTH",
"844 570 LINE",
"844 650 LINE",
"282 650 LINE",
"2 0 LINE"
);
},
{
closed = 1;
nodes = (
"189 228 OFFCURVE",
"177 240 OFFCURVE",
"177 256 CURVE SMOOTH",
"177 272 OFFCURVE",
"189 284 OFFCURVE",
"205 284 CURVE SMOOTH",
"211 284 OFFCURVE",
"217 288 OFFCURVE",
"219 293 CURVE SMOOTH",
"318 534 LINE SMOOTH",
"321 540 OFFCURVE",
"319 547 OFFCURVE",
"315 550 CURVE SMOOTH",
"307 555 OFFCURVE",
"302 564 OFFCURVE",
"302 574 CURVE SMOOTH",
"302 590 OFFCURVE",
"314 602 OFFCURVE",
"330 602 CURVE SMOOTH",
"343 602 OFFCURVE",
"354 594 OFFCURVE",
"357 582 CURVE SMOOTH",
"358 575 OFFCURVE",
"363 570 OFFCURVE",
"369 570 CURVE SMOOTH",
"412 570 LINE",
"412 299 LINE SMOOTH",
"412 291 OFFCURVE",
"417 284 OFFCURVE",
"425 281 CURVE SMOOTH",
"434 277 OFFCURVE",
"440 267 OFFCURVE",
"440 256 CURVE SMOOTH",
"440 240 OFFCURVE",
"428 228 OFFCURVE",
"412 228 CURVE SMOOTH",
"401 228 OFFCURVE",
"391 234 OFFCURVE",
"387 243 CURVE SMOOTH",
"384 251 OFFCURVE",
"377 256 OFFCURVE",
"369 256 CURVE SMOOTH",
"245 256 LINE SMOOTH",
"239 256 OFFCURVE",
"233 251 OFFCURVE",
"231 245 CURVE SMOOTH",
"227 235 OFFCURVE",
"217 228 OFFCURVE",
"205 228 CURVE SMOOTH"
);
}
);
width = 888;
}
);
leftKerningGroup = A;
rightKerningGroup = E;
rightMetricsKey = E;
unicode = 00C6;
},
{
color = 10;
glyphname = B;
lastChange = "2021-05-16 10:42:51 +0000";
layers = (
{
layerId = "8007C042-6FBA-4E49-99B8-8B738A4EBE86";
paths = (
{
closed = 1;
nodes = (
"372 0 LINE SMOOTH",
"480 0 OFFCURVE",
"564 77 OFFCURVE",
"564 176 CURVE SMOOTH",
"564 250 OFFCURVE",
"516 313 OFFCURVE",
"440 338 CURVE",
"502 365 OFFCURVE",
"540 420 OFFCURVE",
"540 484 CURVE SMOOTH",
"540 579 OFFCURVE",
"457 650 OFFCURVE",
"346 650 CURVE SMOOTH",
"132 650 LINE",
"132 570 LINE",
"344 570 LINE SMOOTH",
"409 570 OFFCURVE",
"456 528 OFFCURVE",
"456 471 CURVE SMOOTH",
"456 414 OFFCURVE",
"409 372 OFFCURVE",
"344 372 CURVE SMOOTH",
"132 372 LINE",
"132 292 LINE",
"360 292 LINE SMOOTH",
"428 292 OFFCURVE",
"478 248 OFFCURVE",
"478 187 CURVE SMOOTH",
"478 126 OFFCURVE",
"428 82 OFFCURVE",
"360 82 CURVE SMOOTH",
"132 82 LINE",
"132 0 LINE"
);
},
{
closed = 1;
nodes = (
"152 0 LINE",
"152 650 LINE",
"68 650 LINE",
"68 0 LINE"
);
}
);
width = 600;
},
{
associatedMasterId = "8007C042-6FBA-4E49-99B8-8B738A4EBE86";
background = {
paths = (
{
closed = 1;
nodes = (
"174 434 LINE SMOOTH",
"174 680 OFFCURVE",
"164 681 OFFCURVE",
"213 681 CURVE SMOOTH",
"285 681 LINE SMOOTH",
"413 681 OFFCURVE",
"478 651 OFFCURVE",
"478 531 CURVE SMOOTH",
"478 411 OFFCURVE",
"412 367 OFFCURVE",
"288 367 CURVE SMOOTH",
"174 367 LINE"
);
},
{
closed = 1;
nodes = (
"226 9 LINE SMOOTH",
"177 9 OFFCURVE",
"174 13 OFFCURVE",
"174 259 CURVE SMOOTH",
"174 356 LINE",
"301 356 LINE SMOOTH",
"445 356 OFFCURVE",
"501 300 OFFCURVE",
"501 189 CURVE SMOOTH",
"501 68 OFFCURVE",
"444 9 OFFCURVE",
"311 9 CURVE SMOOTH"
);
},
{
closed = 1;
nodes = (
"51 0 OFFCURVE",
"119 3 OFFCURVE",
"134 3 CURVE SMOOTH",
"147 3 OFFCURVE",
"308 0 OFFCURVE",
"326 0 CURVE SMOOTH",
"509 0 OFFCURVE",
"586 70 OFFCURVE",
"586 189 CURVE SMOOTH",
"586 297 OFFCURVE",
"487 353 OFFCURVE",
"359 364 CURVE",
"479 380 OFFCURVE",
"563 429 OFFCURVE",
"563 530 CURVE SMOOTH",
"563 654 OFFCURVE",
"468 693 OFFCURVE",
"300 693 CURVE SMOOTH",
"283 693 OFFCURVE",
"147 690 OFFCURVE",
"134 690 CURVE SMOOTH",
"119 690 OFFCURVE",
"51 693 OFFCURVE",
"23 693 CURVE SMOOTH",
"15 693 OFFCURVE",
"15 684 OFFCURVE",
"23 684 CURVE SMOOTH",
"41 684 LINE SMOOTH",
"90 684 OFFCURVE",
"95 679 OFFCURVE",
"95 434 CURVE SMOOTH",
"95 259 LINE SMOOTH",
"95 14 OFFCURVE",
"90 9 OFFCURVE",
"41 9 CURVE SMOOTH",
"23 9 LINE SMOOTH",
"15 9 OFFCURVE",
"15 0 OFFCURVE",
"23 0 CURVE SMOOTH"
);
}
);
};
layerId = "97242444-4575-4E5F-BB82-83CD0553FD86";
name = "Oct 18 17, 12:32";
paths = (
{
closed = 1;
nodes = (
"64 692 LINE",
"338 692 LINE SMOOTH",
"481 692 OFFCURVE",
"566 638 OFFCURVE",
"566 514 CURVE SMOOTH",
"566 434 OFFCURVE",
"530 378 OFFCURVE",
"470 364 CURVE",
"543 340 OFFCURVE",
"586 282 OFFCURVE",
"586 194 CURVE SMOOTH",
"586 70 OFFCURVE",
"503 0 OFFCURVE",
"362 0 CURVE SMOOTH",
"64 0 LINE"
);
},
{
closed = 1;
nodes = (
"358 82 LINE SMOOTH",
"451 82 OFFCURVE",
"506 124 OFFCURVE",
"506 196 CURVE SMOOTH",
"506 265 OFFCURVE",
"455 318 OFFCURVE",
"370 318 CURVE SMOOTH",
"146 318 LINE",
"146 82 LINE"
);
},
{
closed = 1;
nodes = (
"342 398 LINE SMOOTH",
"434 398 OFFCURVE",
"488 438 OFFCURVE",
"488 506 CURVE SMOOTH",
"488 573 OFFCURVE",
"437 612 OFFCURVE",
"350 612 CURVE SMOOTH",
"146 612 LINE",
"146 398 LINE"
);
}
);
width = 626;
},
{
layerId = "ADDE491E-C0C4-4659-943C-53377B387F47";
paths = (
{
closed = 1;
nodes = (
"398 0 LINE SMOOTH",
"497 0 OFFCURVE",
"576 79 OFFCURVE",
"576 180 CURVE SMOOTH",
"576 261 OFFCURVE",
"523 322 OFFCURVE",
"440 338 CURVE",
"508 358 OFFCURVE",
"548 412 OFFCURVE",
"548 480 CURVE SMOOTH",
"548 575 OFFCURVE",
"473 650 OFFCURVE",
"378 650 CURVE SMOOTH",
"180 650 LINE",
"180 520 LINE",
"334 520 LINE SMOOTH",
"372 520 OFFCURVE",
"400 490 OFFCURVE",
"400 452 CURVE SMOOTH",
"400 414 OFFCURVE",
"373 384 OFFCURVE",
"336 384 CURVE SMOOTH",
"180 384 LINE",
"180 280 LINE",
"352 280 LINE SMOOTH",
"394 280 OFFCURVE",
"424 249 OFFCURVE",
"424 208 CURVE SMOOTH",
"424 167 OFFCURVE",
"395 136 OFFCURVE",
"354 136 CURVE SMOOTH",
"180 136 LINE",
"180 0 LINE"
);
},
{
closed = 1;
nodes = (
"200 0 LINE",
"200 650 LINE",
"52 650 LINE",
"52 0 LINE"
);
}
);
width = 600;
},
{
components = (
{
name = inkstem_S;
transform = "{1, 0, 0, 1, 194, 198}";
},
{
name = inkstem_S;
transform = "{1, 0, 0, 1, 217, -140}";
},
{
name = inkstem_M;
transform = "{0, -1, 1, 0, 0, 910}";
},
{
name = inkstem_M;
transform = "{0, -1, 1, 0, 24, 342}";
},
{
name = inkstem_S;
transform = "{1, 0, 0, 1, -18, 32}";
}
);
layerId = m003;
paths = (
{
closed = 1;
nodes = (
"136 54 OFFCURVE",
"124 66 OFFCURVE",
"124 82 CURVE SMOOTH",
"124 93 OFFCURVE",
"130 103 OFFCURVE",
"139 107 CURVE SMOOTH",
"147 110 OFFCURVE",
"152 117 OFFCURVE",
"152 125 CURVE SMOOTH",
"152 249 LINE SMOOTH",
"152 257 OFFCURVE",
"147 264 OFFCURVE",
"139 267 CURVE SMOOTH",
"130 271 OFFCURVE",
"124 281 OFFCURVE",
"124 292 CURVE SMOOTH",
"124 308 OFFCURVE",
"136 320 OFFCURVE",
"152 320 CURVE SMOOTH",
"163 320 OFFCURVE",
"173 314 OFFCURVE",
"177 305 CURVE SMOOTH",
"180 297 OFFCURVE",
"187 292 OFFCURVE",
"195 292 CURVE SMOOTH",
"360 292 LINE SMOOTH",
"428 292 OFFCURVE",
"478 248 OFFCURVE",
"478 187 CURVE SMOOTH",
"478 126 OFFCURVE",
"428 82 OFFCURVE",
"360 82 CURVE SMOOTH",
"195 82 LINE SMOOTH",
"187 82 OFFCURVE",
"180 77 OFFCURVE",
"177 69 CURVE SMOOTH",
"173 60 OFFCURVE",
"163 54 OFFCURVE",
"152 54 CURVE SMOOTH"
);
},
{
closed = 1;
nodes = (
"136 344 OFFCURVE",
"124 356 OFFCURVE",
"124 372 CURVE SMOOTH",
"124 383 OFFCURVE",
"130 393 OFFCURVE",
"139 397 CURVE SMOOTH",
"147 400 OFFCURVE",
"152 407 OFFCURVE",
"152 415 CURVE SMOOTH",
"152 527 LINE SMOOTH",
"152 535 OFFCURVE",
"147 542 OFFCURVE",
"139 545 CURVE SMOOTH",
"130 549 OFFCURVE",
"124 559 OFFCURVE",
"124 570 CURVE SMOOTH",
"124 586 OFFCURVE",
"136 598 OFFCURVE",
"152 598 CURVE SMOOTH",
"163 598 OFFCURVE",
"173 592 OFFCURVE",
"177 583 CURVE SMOOTH",
"180 575 OFFCURVE",
"187 570 OFFCURVE",
"195 570 CURVE SMOOTH",
"344 570 LINE SMOOTH",
"409 570 OFFCURVE",
"456 528 OFFCURVE",
"456 471 CURVE SMOOTH",
"456 414 OFFCURVE",
"409 372 OFFCURVE",
"344 372 CURVE SMOOTH",
"195 372 LINE SMOOTH",
"187 372 OFFCURVE",
"180 367 OFFCURVE",
"177 359 CURVE SMOOTH",
"173 350 OFFCURVE",
"163 344 OFFCURVE",
"152 344 CURVE SMOOTH"
);
},
{
closed = 1;
nodes = (
"459 326 OFFCURVE",
"451 320 CURVE SMOOTH",
"445 316 OFFCURVE",
"439 312 OFFCURVE",
"431 312 CURVE SMOOTH",
"415 312 OFFCURVE",
"403 324 OFFCURVE",
"403 340 CURVE SMOOTH",
"403 356 OFFCURVE",
"415 368 OFFCURVE",
"431 368 CURVE SMOOTH",
"439 368 OFFCURVE",
"446 365 OFFCURVE",
"451 360 CURVE SMOOTH",
"458 353 OFFCURVE",
"469 353 OFFCURVE",
"478 360 CURVE SMOOTH",
"518 390 OFFCURVE",
"540 435 OFFCURVE",
"540 484 CURVE SMOOTH",
"540 579 OFFCURVE",
"457 650 OFFCURVE",
"346 650 CURVE SMOOTH",
"68 650 LINE",
"68 0 LINE",
"372 0 LINE SMOOTH",
"480 0 OFFCURVE",
"564 77 OFFCURVE",
"564 176 CURVE SMOOTH",
"564 236 OFFCURVE",
"533 288 OFFCURVE",
"481 320 CURVE SMOOTH",
"469 327 OFFCURVE"
);
}
);
width = 600;
}
);
leftKerningGroup = l;
leftMetricsKey = l;
rightKerningGroup = B;
unicode = 0042;
},
{
color = 10;
glyphname = C;
lastChange = "2021-05-16 10:43:07 +0000";
layers = (
{
anchors = (
{
name = bottom;
position = "{344, -12}";
},
{
name = top;
position = "{344, 630}";
}
);
layerId = "8007C042-6FBA-4E49-99B8-8B738A4EBE86";
paths = (
{
closed = 1;
nodes = (
"542 252 LINE",
"530 144 OFFCURVE",
"453 72 OFFCURVE",
"350 72 CURVE SMOOTH",
"220 72 OFFCURVE",
"126 178 OFFCURVE",
"126 325 CURVE SMOOTH",
"126 473 OFFCURVE",
"218 580 OFFCURVE",
"344 580 CURVE SMOOTH",
"439 580 OFFCURVE",
"520 508 OFFCURVE",
"536 408 CURVE",
"628 440 LINE",
"604 569 OFFCURVE",
"485 662 OFFCURVE",
"344 662 CURVE SMOOTH",
"165 662 OFFCURVE",
"36 520 OFFCURVE",
"36 325 CURVE SMOOTH",
"36 130 OFFCURVE",
"168 -12 OFFCURVE",
"350 -12 CURVE SMOOTH",
"498 -12 OFFCURVE",
"612 82 OFFCURVE",
"636 224 CURVE"
);
}
);
width = 672;
},
{
associatedMasterId = "8007C042-6FBA-4E49-99B8-8B738A4EBE86";
background = {
paths = (
{
closed = 1;
nodes = (
"472 571 OFFCURVE",
"537 532 OFFCURVE",
"573 453 CURVE",
"654 497 LINE",
"597 604 OFFCURVE",
"505 657 OFFCURVE",
"379 657 CURVE SMOOTH",
"194 657 OFFCURVE",
"47 520 OFFCURVE",
"47 326 CURVE SMOOTH",
"47 131 OFFCURVE",
"191 -9 OFFCURVE",
"379 -9 CURVE SMOOTH",
"496 -9 OFFCURVE",
"598 49 OFFCURVE",
"658 151 CURVE",
"578 194 LINE",
"539 118 OFFCURVE",
"465 77 OFFCURVE",
"379 77 CURVE SMOOTH",
"245 77 OFFCURVE",
"143 179 OFFCURVE",
"143 325 CURVE SMOOTH",
"143 471 OFFCURVE",
"241 571 OFFCURVE",
"379 571 CURVE SMOOTH"
);
}
);
};
layerId = "FFBD3A5A-F1E2-48FE-BD02-F9581128138F";
name = "Jan 30 18, 21:55";
paths = (
{
closed = 1;
nodes = (
"661 489 LINE",
"635 628 OFFCURVE",
"528 710 OFFCURVE",
"373 710 CURVE SMOOTH",
"166 710 OFFCURVE",
"44 576 OFFCURVE",
"44 350 CURVE SMOOTH",
"44 124 OFFCURVE",
"167 -10 OFFCURVE",
"375 -10 CURVE SMOOTH",
"535 -10 OFFCURVE",
"643 72 OFFCURVE",
"667 212 CURVE",
"583 235 LINE",
"562 136 OFFCURVE",
"483 78 OFFCURVE",
"371 78 CURVE SMOOTH",
"220 78 OFFCURVE",
"130 180 OFFCURVE",
"130 353 CURVE SMOOTH",
"130 522 OFFCURVE",
"219 622 OFFCURVE",
"369 622 CURVE SMOOTH",
"480 622 OFFCURVE",
"558 563 OFFCURVE",
"579 463 CURVE"
);
}
);
width = 723;
},
{
associatedMasterId = "8007C042-6FBA-4E49-99B8-8B738A4EBE86";
background = {
paths = (
{
closed = 1;
nodes = (
"475 570 OFFCURVE",
"540 531 OFFCURVE",
"575 452 CURVE",
"657 495 LINE",
"599 602 OFFCURVE",
"508 656 OFFCURVE",
"382 656 CURVE SMOOTH",
"198 656 OFFCURVE",
"51 519 OFFCURVE",
"51 325 CURVE SMOOTH",
"51 131 OFFCURVE",
"194 -9 OFFCURVE",
"382 -9 CURVE SMOOTH",
"499 -9 OFFCURVE",
"601 49 OFFCURVE",
"661 150 CURVE",
"581 194 LINE",
"542 118 OFFCURVE",
"468 76 OFFCURVE",
"382 76 CURVE SMOOTH",
"248 76 OFFCURVE",
"147 178 OFFCURVE",
"147 324 CURVE SMOOTH",
"147 470 OFFCURVE",
"245 570 OFFCURVE",
"382 570 CURVE SMOOTH"
);
}
);
};
layerId = "3D9CDD05-E1DE-447D-85C5-754E28E32ED0";
name = "Aug 1 18, 20:35";
paths = (
{
closed = 1;
nodes = (
"656 438 LINE",
"636 566 OFFCURVE",
"521 662 OFFCURVE",
"369 662 CURVE SMOOTH",
"179 662 OFFCURVE",
"44 518 OFFCURVE",
"44 324 CURVE SMOOTH",
"44 128 OFFCURVE",
"185 -12 OFFCURVE",
"377 -12 CURVE SMOOTH",
"535 -12 OFFCURVE",
"654 95 OFFCURVE",
"666 239 CURVE",
"584 251 LINE",
"576 149 OFFCURVE",
"493 72 OFFCURVE",
"373 72 CURVE SMOOTH",
"231 72 OFFCURVE",
"130 177 OFFCURVE",
"130 325 CURVE SMOOTH",
"130 473 OFFCURVE",
"229 580 OFFCURVE",
"369 580 CURVE SMOOTH",
"479 580 OFFCURVE",
"560 514 OFFCURVE",
"576 418 CURVE"
);
}
);
width = 706;
},
{
associatedMasterId = "8007C042-6FBA-4E49-99B8-8B738A4EBE86";
background = {
hints = (
{
horizontal = 1;
place = "{-13, 88}";
type = Stem;
},
{
horizontal = 1;
place = "{653, 88}";
type = Stem;
},
{
place = "{47, 100}";
type = Stem;
}
);
paths = (
{
closed = 1;
nodes = (
"550 248 LINE",
"542 146 OFFCURVE",
"464 72 OFFCURVE",
"368 72 CURVE SMOOTH",
"234 72 OFFCURVE",
"136 179 OFFCURVE",
"136 325 CURVE SMOOTH",
"136 473 OFFCURVE",
"230 580 OFFCURVE",
"360 580 CURVE SMOOTH",
"450 580 OFFCURVE",
"532 514 OFFCURVE",
"544 414 CURVE",
"638 442 LINE",
"614 570 OFFCURVE",
"496 662 OFFCURVE",
"360 662 CURVE SMOOTH",
"181 662 OFFCURVE",
"48 520 OFFCURVE",
"48 324 CURVE SMOOTH",
"48 130 OFFCURVE",
"182 -12 OFFCURVE",
"368 -12 CURVE SMOOTH",
"506 -12 OFFCURVE",
"622 84 OFFCURVE",
"646 220 CURVE"
);
}
);
};
layerId = "7DCB55D2-8C73-439A-A751-EC683B5EB5F8";
name = "Apr 14 20, 17:02";
paths = (
{
closed = 1;
nodes = (
"556 248 LINE",
"548 147 OFFCURVE",
"468 72 OFFCURVE",
"364 72 CURVE SMOOTH",
"234 72 OFFCURVE",
"136 180 OFFCURVE",
"136 326 CURVE SMOOTH",
"136 472 OFFCURVE",
"230 580 OFFCURVE",
"360 580 CURVE SMOOTH",
"456 580 OFFCURVE",
"536 508 OFFCURVE",
"548 412 CURVE",
"644 444 LINE",
"620 572 OFFCURVE",
"502 662 OFFCURVE",
"362 662 CURVE SMOOTH",
"180 662 OFFCURVE",
"48 520 OFFCURVE",
"48 324 CURVE SMOOTH",
"48 130 OFFCURVE",
"182 -12 OFFCURVE",
"364 -12 CURVE SMOOTH",
"504 -12 OFFCURVE",
"628 84 OFFCURVE",
"650 220 CURVE"
);
}
);
width = 682;
},
{
anchors = (
{
name = bottom;
position = "{348, -12}";
},
{
name = top;
position = "{348, 646}";
}
);
layerId = "ADDE491E-C0C4-4659-943C-53377B387F47";
paths = (
{
closed = 1;
nodes = (
"490 261 LINE",
"478 183 OFFCURVE",
"423 132 OFFCURVE",
"352 132 CURVE SMOOTH",
"258 132 OFFCURVE",
"188 214 OFFCURVE",
"188 325 CURVE SMOOTH",
"188 435 OFFCURVE",
"259 522 OFFCURVE",
"348 522 CURVE SMOOTH",
"415 522 OFFCURVE",
"471 473 OFFCURVE",
"486 401 CURVE",
"640 461 LINE",
"601 581 OFFCURVE",
"483 662 OFFCURVE",
"348 662 CURVE SMOOTH",
"165 662 OFFCURVE",
"28 518 OFFCURVE",
"28 325 CURVE SMOOTH",
"28 133 OFFCURVE",
"168 -12 OFFCURVE",
"352 -12 CURVE SMOOTH",
"492 -12 OFFCURVE",
"613 74 OFFCURVE",
"648 197 CURVE"
);
}
);
width = 672;
},
{
anchors = (
{
name = bottom;
position = "{344, -12}";
},
{
name = top;
position = "{344, 630}";
}
);
components = (
{
name = inkcurve;
transform = "{1, 0, 0, 1, 48, -268}";
},
{
name = inkcurve;
transform = "{1, 0, 0, -1, 44, 919}";
},
{
name = inkcurve;
transform = "{0, -1, 1, 0, -218, 626}";
},
{
name = inkstem_S;
transform = "{1, 0, 0, 1, 244, -174}";
},
{
name = inkstem_S;
transform = "{1, 0, 0, 1, -144, 234}";
},
{
name = inkstem_S;
transform = "{1, 0, 0, 1, -144, -182}";
},
{
name = inkstem_S;
transform = "{1, 0, 0, 1, 236, 226}";
}
);
layerId = m003;
paths = (
{
closed = 1;
nodes = (
"542 252 LINE",
"530 144 OFFCURVE",
"453 72 OFFCURVE",
"350 72 CURVE SMOOTH",
"220 72 OFFCURVE",
"126 178 OFFCURVE",
"126 325 CURVE SMOOTH",
"126 473 OFFCURVE",
"218 580 OFFCURVE",
"344 580 CURVE SMOOTH",
"439 580 OFFCURVE",
"520 508 OFFCURVE",
"536 408 CURVE",
"628 440 LINE",
"604 569 OFFCURVE",
"485 662 OFFCURVE",
"344 662 CURVE SMOOTH",
"165 662 OFFCURVE",
"36 520 OFFCURVE",
"36 325 CURVE SMOOTH",
"36 130 OFFCURVE",
"168 -12 OFFCURVE",
"350 -12 CURVE SMOOTH",
"498 -12 OFFCURVE",
"612 82 OFFCURVE",
"636 224 CURVE"
);
}
);
width = 672;
}
);
leftKerningGroup = O;
leftMetricsKey = O;
rightKerningGroup = C;
unicode = 0043;
},
{
glyphname = D;
lastChange = "2021-05-16 10:43:27 +0000";
layers = (
{
anchors = (
{
name = center;
position = "{110, 325}";
},
{
name = top;
position = "{296, 618}";
}
);
layerId = "8007C042-6FBA-4E49-99B8-8B738A4EBE86";
paths = (
{
closed = 1;
nodes = (
"328 0 LINE SMOOTH",
"505 0 OFFCURVE",
"628 142 OFFCURVE",
"628 326 CURVE SMOOTH",
"628 520 OFFCURVE",
"491 650 OFFCURVE",
"312 650 CURVE SMOOTH",
"132 650 LINE",
"132 570 LINE",
"308 570 LINE SMOOTH",
"443 570 OFFCURVE",
"540 467 OFFCURVE",
"540 324 CURVE SMOOTH",
"540 184 OFFCURVE",
"448 82 OFFCURVE",
"320 82 CURVE SMOOTH",
"132 82 LINE",
"132 0 LINE"
);
},
{
closed = 1;
nodes = (
"152 0 LINE",
"152 650 LINE",
"68 650 LINE",
"68 0 LINE"
);
}
);
width = 664;
},
{
anchors = (
{
name = center;
position = "{126, 325}";
},
{
name = top;
position = "{278, 634}";
}
);
layerId = "ADDE491E-C0C4-4659-943C-53377B387F47";
paths = (
{
closed = 1;
nodes = (
"312 0 LINE SMOOTH",
"492 0 OFFCURVE",
"624 137 OFFCURVE",
"624 325 CURVE SMOOTH",
"624 515 OFFCURVE",
"489 650 OFFCURVE",
"300 650 CURVE SMOOTH",
"180 650 LINE",
"180 516 LINE",
"296 516 LINE SMOOTH",
"396 516 OFFCURVE",
"468 437 OFFCURVE",
"468 326 CURVE SMOOTH",
"468 216 OFFCURVE",
"399 136 OFFCURVE",
"304 136 CURVE SMOOTH",
"180 136 LINE",
"180 0 LINE"
);
},
{
closed = 1;
nodes = (
"200 0 LINE",
"200 650 LINE",
"52 650 LINE",
"52 0 LINE"
);
}
);
width = 652;
},
{
anchors = (
{
name = center;
position = "{110, 325}";
},
{
name = top;
position = "{296, 618}";
}
);
components = (
{
name = inkcurve;
transform = "{0, -1, -1, 0, 882, 626}";
},
{
name = inkstem_S;
transform = "{1, 0, 0, 1, 200, 234}";
},
{
name = inkstem_S;
transform = "{1, 0, 0, 1, 204, -182}";
},
{
name = inkstem_M;
transform = "{0, -1, 1, 0, 0, 910}";
},
{
name = inkstem_M;
transform = "{0, -1, 1, 0, 24, 342}";
},
{
name = inkstem_L;
transform = "{1, 0, 0, 1, -190, 12}";
}
);
layerId = m003;
paths = (
{
closed = 1;
nodes = (
"328 0 LINE SMOOTH",
"505 0 OFFCURVE",
"628 142 OFFCURVE",
"628 326 CURVE SMOOTH",
"628 520 OFFCURVE",
"491 650 OFFCURVE",
"312 650 CURVE SMOOTH",
"68 650 LINE",
"68 0 LINE"
);
},
{
closed = 1;
nodes = (
"136 54 OFFCURVE",
"124 66 OFFCURVE",
"124 82 CURVE SMOOTH",
"124 93 OFFCURVE",
"130 103 OFFCURVE",
"139 107 CURVE SMOOTH",
"147 110 OFFCURVE",
"152 117 OFFCURVE",
"152 125 CURVE SMOOTH",
"152 527 LINE SMOOTH",
"152 535 OFFCURVE",
"147 542 OFFCURVE",
"139 545 CURVE SMOOTH",
"130 549 OFFCURVE",
"124 559 OFFCURVE",
"124 570 CURVE SMOOTH",
"124 586 OFFCURVE",
"136 598 OFFCURVE",
"152 598 CURVE SMOOTH",
"163 598 OFFCURVE",
"173 592 OFFCURVE",
"177 583 CURVE SMOOTH",
"180 575 OFFCURVE",
"187 570 OFFCURVE",
"195 570 CURVE SMOOTH",
"308 570 LINE SMOOTH",
"443 570 OFFCURVE",
"540 467 OFFCURVE",
"540 324 CURVE SMOOTH",
"540 184 OFFCURVE",
"448 82 OFFCURVE",
"320 82 CURVE SMOOTH",
"195 82 LINE SMOOTH",
"187 82 OFFCURVE",
"180 77 OFFCURVE",
"177 69 CURVE SMOOTH",
"173 60 OFFCURVE",
"163 54 OFFCURVE",
"152 54 CURVE SMOOTH"
);
}
);
width = 664;
}
);
leftKerningGroup = l;
leftMetricsKey = l;
rightKerningGroup = O;
rightMetricsKey = O;
unicode = 0044;
},
{
glyphname = Eth;
lastChange = "2021-05-16 10:43:48 +0000";
layers = (
{
components = (
{
name = D;
transform = "{1, 0, 0, 1, 4, 0}";
}
);
layerId = "8007C042-6FBA-4E49-99B8-8B738A4EBE86";
paths = (
{
closed = 1;
nodes = (
"392 292 LINE",
"392 364 LINE",
"8 364 LINE",
"8 292 LINE"
);
}
);
width = 668;
},
{
components = (
{
name = D;
transform = "{1, 0, 0, 1, 16, 0}";
}
);
layerId = "ADDE491E-C0C4-4659-943C-53377B387F47";
paths = (
{
closed = 1;
nodes = (
"364 276 LINE",
"364 380 LINE",
"4 380 LINE",
"4 276 LINE"
);
}
);
width = 668;
},
{
components = (
{
name = inkcurve;
transform = "{0, -1, -1, 0, 886, 626}";
},
{
name = inkstem_S;
transform = "{1, 0, 0, 1, 204, 234}";
},
{
name = inkstem_S;
transform = "{1, 0, 0, 1, 208, -182}";
},
{
name = inkstem_M;
transform = "{0, -1, 1, 0, 4, 910}";
},
{
name = inkstem_M;
transform = "{0, -1, 1, 0, 28, 342}";
},
{
name = inkstem_M;
transform = "{0, -1, 1, 0, 4, 628}";
}
);
layerId = m003;
paths = (
{
closed = 1;
nodes = (
"332 0 LINE SMOOTH",
"509 0 OFFCURVE",
"632 142 OFFCURVE",
"632 326 CURVE SMOOTH",
"632 520 OFFCURVE",
"495 650 OFFCURVE",
"316 650 CURVE SMOOTH",
"72 650 LINE",
"72 364 LINE",
"8 364 LINE",
"8 292 LINE",
"44 292 LINE SMOOTH",
"50 292 OFFCURVE",
"54 296 OFFCURVE",
"54 302 CURVE SMOOTH",
"54 318 OFFCURVE",
"66 330 OFFCURVE",
"82 330 CURVE SMOOTH",
"98 330 OFFCURVE",
"110 318 OFFCURVE",
"110 302 CURVE SMOOTH",
"110 286 OFFCURVE",
"98 274 OFFCURVE",
"82 274 CURVE SMOOTH",
"76 274 OFFCURVE",
"72 270 OFFCURVE",
"72 264 CURVE SMOOTH",
"72 0 LINE"
);
},
{
closed = 1;
nodes = (
"140 54 OFFCURVE",
"128 66 OFFCURVE",
"128 82 CURVE SMOOTH",
"128 93 OFFCURVE",
"134 103 OFFCURVE",
"143 107 CURVE SMOOTH",
"151 110 OFFCURVE",
"156 117 OFFCURVE",
"156 125 CURVE SMOOTH",
"156 292 LINE",
"392 292 LINE",
"392 364 LINE",
"185 364 LINE SMOOTH",
"179 364 OFFCURVE",
"175 360 OFFCURVE",
"175 354 CURVE SMOOTH",
"175 338 OFFCURVE",
"163 326 OFFCURVE",
"147 326 CURVE SMOOTH",
"131 326 OFFCURVE",
"119 338 OFFCURVE",
"119 354 CURVE SMOOTH",
"119 370 OFFCURVE",
"131 382 OFFCURVE",
"147 382 CURVE SMOOTH",
"152 382 OFFCURVE",
"156 386 OFFCURVE",
"156 391 CURVE SMOOTH",
"156 527 LINE SMOOTH",
"156 535 OFFCURVE",
"151 542 OFFCURVE",
"143 545 CURVE SMOOTH",
"134 549 OFFCURVE",
"128 559 OFFCURVE",
"128 570 CURVE SMOOTH",
"128 586 OFFCURVE",
"140 598 OFFCURVE",
"156 598 CURVE SMOOTH",
"167 598 OFFCURVE",
"177 592 OFFCURVE",
"181 583 CURVE SMOOTH",
"184 575 OFFCURVE",
"191 570 OFFCURVE",
"199 570 CURVE SMOOTH",
"312 570 LINE SMOOTH",
"447 570 OFFCURVE",
"544 467 OFFCURVE",
"544 324 CURVE SMOOTH",
"544 184 OFFCURVE",
"452 82 OFFCURVE",
"324 82 CURVE SMOOTH",
"199 82 LINE SMOOTH",
"191 82 OFFCURVE",
"184 77 OFFCURVE",
"181 69 CURVE SMOOTH",
"177 60 OFFCURVE",
"167 54 OFFCURVE",
"156 54 CURVE SMOOTH"
);
}
);
width = 668;
}
);
leftKerningGroup = t;
rightKerningGroup = O;
rightMetricsKey = D;
unicode = 00D0;
},
{
color = 10;
glyphname = E;
lastChange = "2021-05-16 10:44:11 +0000";
layers = (
{
anchors = (
{
name = ogonek;
position = "{520, 0}";
},
{
name = top;
position = "{280, 618}";
}
);
layerId = "8007C042-6FBA-4E49-99B8-8B738A4EBE86";
paths = (
{
closed = 1;
nodes = (
"152 0 LINE",
"152 650 LINE",
"68 650 LINE",
"68 0 LINE"
);
},
{
closed = 1;
nodes = (
"520 0 LINE",
"520 82 LINE",
"132 82 LINE",
"132 0 LINE"
);
},
{
closed = 1;
nodes = (
"464 292 LINE",
"464 372 LINE",
"132 372 LINE",
"132 292 LINE"
);
},
{
closed = 1;
nodes = (
"512 570 LINE",
"512 650 LINE",
"132 650 LINE",
"132 570 LINE"
);
}
);
width = 552;
},
{
anchors = (
{
name = ogonek;
position = "{528, 0}";
},
{
name = top;
position = "{276, 634}";
}
);
layerId = "ADDE491E-C0C4-4659-943C-53377B387F47";
paths = (
{
closed = 1;
nodes = (
"200 0 LINE",
"200 650 LINE",
"52 650 LINE",
"52 0 LINE"
);
},
{
closed = 1;
nodes = (
"528 0 LINE",
"528 136 LINE",
"180 136 LINE",
"180 0 LINE"
);
},
{
closed = 1;
nodes = (
"460 280 LINE",
"460 384 LINE",
"180 384 LINE",
"180 280 LINE"
);
},
{
closed = 1;
nodes = (
"516 516 LINE",
"516 650 LINE",
"180 650 LINE",
"180 516 LINE"
);
}
);
width = 544;
},
{
anchors = (
{
name = ogonek;
position = "{520, 0}";
},
{
name = top;
position = "{280, 618}";
}
);
components = (
{
name = inkstem_L;
transform = "{0, -1, 1, 0, 2, 342}";
},
{
name = inkstem_S;
transform = "{1, 0, 0, 1, 162, -258}";
},
{
name = inkstem_M;
transform = "{0, -1, 1, 0, 76, 632}";
},
{
name = inkstem_M;
transform = "{0, -1, 1, 0, 0, 910}";
},
{
name = inkstem_S;
transform = "{1, 0, 0, 1, 154, 310}";
}
);
layerId = m003;
paths = (
{
closed = 1;
nodes = (
"520 0 LINE",
"520 82 LINE",
"195 82 LINE SMOOTH",
"187 82 OFFCURVE",
"180 77 OFFCURVE",
"177 69 CURVE SMOOTH",
"173 60 OFFCURVE",
"163 54 OFFCURVE",
"152 54 CURVE SMOOTH",
"136 54 OFFCURVE",
"124 66 OFFCURVE",
"124 82 CURVE SMOOTH",
"124 93 OFFCURVE",
"130 103 OFFCURVE",
"139 107 CURVE SMOOTH",
"147 110 OFFCURVE",
"152 117 OFFCURVE",
"152 125 CURVE SMOOTH",
"152 249 LINE SMOOTH",
"152 257 OFFCURVE",
"147 264 OFFCURVE",
"139 267 CURVE SMOOTH",
"130 271 OFFCURVE",
"124 281 OFFCURVE",
"124 292 CURVE SMOOTH",
"124 308 OFFCURVE",
"136 320 OFFCURVE",
"152 320 CURVE SMOOTH",
"163 320 OFFCURVE",
"173 314 OFFCURVE",
"177 305 CURVE SMOOTH",
"180 297 OFFCURVE",
"187 292 OFFCURVE",
"195 292 CURVE SMOOTH",
"464 292 LINE",
"464 372 LINE",
"195 372 LINE SMOOTH",
"187 372 OFFCURVE",
"180 367 OFFCURVE",
"177 359 CURVE SMOOTH",
"173 350 OFFCURVE",
"163 344 OFFCURVE",
"152 344 CURVE SMOOTH",
"136 344 OFFCURVE",
"124 356 OFFCURVE",
"124 372 CURVE SMOOTH",
"124 383 OFFCURVE",
"130 393 OFFCURVE",
"139 397 CURVE SMOOTH",
"147 400 OFFCURVE",
"152 407 OFFCURVE",
"152 415 CURVE SMOOTH",
"152 527 LINE SMOOTH",
"152 535 OFFCURVE",
"147 542 OFFCURVE",
"139 545 CURVE SMOOTH",
"130 549 OFFCURVE",
"124 559 OFFCURVE",
"124 570 CURVE SMOOTH",
"124 586 OFFCURVE",
"136 598 OFFCURVE",
"152 598 CURVE SMOOTH",
"163 598 OFFCURVE",
"173 592 OFFCURVE",
"177 583 CURVE SMOOTH",
"180 575 OFFCURVE",
"187 570 OFFCURVE",
"195 570 CURVE SMOOTH",
"512 570 LINE",
"512 650 LINE",
"68 650 LINE",
"68 0 LINE"
);
}
);
width = 552;
}
);
leftKerningGroup = l;
leftMetricsKey = l;
rightKerningGroup = E;
unicode = 0045;
},
{
color = 10;
glyphname = F;
lastChange = "2021-05-16 10:46:37 +0000";
layers = (
{
layerId = "8007C042-6FBA-4E49-99B8-8B738A4EBE86";
paths = (
{
closed = 1;
nodes = (
"68 0 LINE",
"152 0 LINE",
"152 650 LINE",
"68 650 LINE"
);
},
{
closed = 1;
nodes = (
"132 570 LINE",
"504 570 LINE",
"504 650 LINE",
"132 650 LINE"
);
},
{
closed = 1;
nodes = (
"132 276 LINE",
"464 276 LINE",
"464 356 LINE",
"132 356 LINE"
);
}
);
width = 524;
},
{
layerId = "ADDE491E-C0C4-4659-943C-53377B387F47";
paths = (
{
closed = 1;
nodes = (
"52 0 LINE",
"200 0 LINE",
"200 650 LINE",
"52 650 LINE"
);
},
{
closed = 1;
nodes = (
"180 516 LINE",
"504 516 LINE",
"504 650 LINE",
"180 650 LINE"
);
},
{
closed = 1;
nodes = (
"180 262 LINE",
"456 262 LINE",
"456 370 LINE",
"180 370 LINE"
);
}
);
width = 516;
},
{
components = (
{
name = inkstem_M;
transform = "{-1, 0, 0, -1, 410, 390}";
},
{
name = inkstem_L;
transform = "{0, -1, 1, 0, 54, 616}";
},
{
name = inkstem_M;
transform = "{0, -1, 1, 0, 0, 910}";
},
{
name = inkstem_S;
transform = "{1, 0, 0, 1, 146, 310}";
}
);
layerId = m003;
paths = (
{
closed = 1;
nodes = (
"152 0 LINE",
"152 233 LINE SMOOTH",
"152 241 OFFCURVE",
"147 248 OFFCURVE",
"139 251 CURVE SMOOTH",
"130 255 OFFCURVE",
"124 265 OFFCURVE",
"124 276 CURVE SMOOTH",
"124 292 OFFCURVE",
"136 304 OFFCURVE",
"152 304 CURVE SMOOTH",
"163 304 OFFCURVE",
"173 298 OFFCURVE",
"177 289 CURVE SMOOTH",
"180 281 OFFCURVE",
"187 276 OFFCURVE",
"195 276 CURVE SMOOTH",
"464 276 LINE",
"464 356 LINE",
"195 356 LINE SMOOTH",
"187 356 OFFCURVE",
"180 351 OFFCURVE",
"177 343 CURVE SMOOTH",
"173 334 OFFCURVE",
"163 328 OFFCURVE",
"152 328 CURVE SMOOTH",
"136 328 OFFCURVE",
"124 340 OFFCURVE",
"124 356 CURVE SMOOTH",
"124 367 OFFCURVE",
"130 377 OFFCURVE",
"139 381 CURVE SMOOTH",
"147 384 OFFCURVE",
"152 391 OFFCURVE",
"152 399 CURVE SMOOTH",
"152 527 LINE SMOOTH",
"152 535 OFFCURVE",
"147 542 OFFCURVE",
"139 545 CURVE SMOOTH",
"130 549 OFFCURVE",
"124 559 OFFCURVE",
"124 570 CURVE SMOOTH",
"124 586 OFFCURVE",
"136 598 OFFCURVE",
"152 598 CURVE SMOOTH",
"163 598 OFFCURVE",
"173 592 OFFCURVE",
"177 583 CURVE SMOOTH",
"180 575 OFFCURVE",
"187 570 OFFCURVE",
"195 570 CURVE SMOOTH",
"504 570 LINE",
"504 650 LINE",
"68 650 LINE",
"68 0 LINE"
);
}
);
width = 524;
}
);
leftKerningGroup = l;
leftMetricsKey = l;
rightKerningGroup = F;
unicode = 0046;
},
{
color = 10;
glyphname = G;
lastChange = "2021-05-16 10:47:26 +0000";
layers = (
{
anchors = (
{
name = bottom;
position = "{352, -12}";
},
{
name = top;
position = "{348, 630}";
}
);
layerId = "8007C042-6FBA-4E49-99B8-8B738A4EBE86";
paths = (
{
closed = 1;
nodes = (
"482 -12 OFFCURVE",
"584 84 OFFCURVE",
"584 216 CURVE",
"584 300 LINE",
"558 300 LINE",
"558 268 LINE",
"554 155 OFFCURVE",
"465 72 OFFCURVE",
"348 72 CURVE SMOOTH",
"217 72 OFFCURVE",
"124 179 OFFCURVE",
"124 327 CURVE SMOOTH",
"124 473 OFFCURVE",
"217 580 OFFCURVE",
"344 580 CURVE SMOOTH",
"445 580 OFFCURVE",
"525 512 OFFCURVE",
"536 416 CURVE",
"632 448 LINE",
"609 572 OFFCURVE",
"489 662 OFFCURVE",
"346 662 CURVE SMOOTH",
"166 662 OFFCURVE",
"36 519 OFFCURVE",
"36 325 CURVE SMOOTH",
"36 130 OFFCURVE",
"164 -12 OFFCURVE",
"340 -12 CURVE SMOOTH"
);
},
{
closed = 1;
nodes = (
"652 0 LINE",
"632 355 LINE",
"266 355 LINE",
"266 277 LINE",
"576 277 LINE",
"576 184 LINE",
"596 0 LINE"
);
}
);
width = 692;
},
{
associatedMasterId = "8007C042-6FBA-4E49-99B8-8B738A4EBE86";
background = {
hints = (
{
horizontal = 1;
place = "{-15, 89}";
type = Stem;
},
{
horizontal = 1;
place = "{251, 88}";
type = Stem;
},
{
horizontal = 1;
place = "{634, 90}";
type = Stem;
},
{
place = "{45, 100}";
type = Stem;
}
);
paths = (
{
closed = 1;
nodes = (
"657 450 LINE",
"637 574 OFFCURVE",
"519 662 OFFCURVE",
"373 662 CURVE SMOOTH",
"185 662 OFFCURVE",
"48 521 OFFCURVE",
"48 325 CURVE SMOOTH",
"48 129 OFFCURVE",
"187 -12 OFFCURVE",
"375 -12 CURVE SMOOTH",
"511 -12 OFFCURVE",
"612 80 OFFCURVE",
"616 204 CURVE",
"588 240 LINE",
"584 144 OFFCURVE",
"497 72 OFFCURVE",
"373 72 CURVE SMOOTH",
"235 72 OFFCURVE",
"134 179 OFFCURVE",
"134 325 CURVE SMOOTH",
"134 471 OFFCURVE",
"237 580 OFFCURVE",
"373 580 CURVE SMOOTH",
"475 580 OFFCURVE",
"553 514 OFFCURVE",
"565 422 CURVE"
);
},
{
closed = 1;
nodes = (
"296 276 LINE",
"588 276 LINE",
"588 240 LINE",
"606 184 LINE",
"626 0 LINE",
"682 0 LINE",
"662 355 LINE",
"296 355 LINE"
);
}
);
};
layerId = "4C1B10B1-0B37-4C65-AE7C-EDB9561F1E31";
name = "Apr 14 20, 17:10";
paths = (
{
closed = 1;
nodes = (
"655 450 LINE",
"635 574 OFFCURVE",
"511 666 OFFCURVE",
"367 666 CURVE SMOOTH",
"183 666 OFFCURVE",
"48 521 OFFCURVE",
"48 325 CURVE SMOOTH",
"48 129 OFFCURVE",
"185 -16 OFFCURVE",
"369 -16 CURVE SMOOTH",
"505 -16 OFFCURVE",
"608 88 OFFCURVE",
"608 212 CURVE",
"580 240 LINE",
"572 144 OFFCURVE",
"485 68 OFFCURVE",
"369 68 CURVE SMOOTH",
"233 68 OFFCURVE",
"134 180 OFFCURVE",
"134 326 CURVE SMOOTH",
"134 472 OFFCURVE",
"231 584 OFFCURVE",
"365 584 CURVE SMOOTH",
"465 584 OFFCURVE",
"547 512 OFFCURVE",
"559 422 CURVE"
);
},
{
closed = 1;
nodes = (
"288 276 LINE",
"580 276 LINE",
"580 240 LINE",
"598 184 LINE",
"618 0 LINE",
"674 0 LINE",
"654 355 LINE",
"288 355 LINE"
);
}
);
width = 714;
},
{
anchors = (
{
name = bottom;
position = "{352, -12}";
},
{
name = top;
position = "{352, 646}";
}
);
layerId = "ADDE491E-C0C4-4659-943C-53377B387F47";
paths = (
{
closed = 1;
nodes = (
"448 -12 OFFCURVE",
"540 60 OFFCURVE",
"548 160 CURVE",
"548 282 LINE",
"492 282 LINE",
"492 262 LINE",
"488 184 OFFCURVE",
"428 128 OFFCURVE",
"350 128 CURVE SMOOTH",
"254 128 OFFCURVE",
"184 212 OFFCURVE",
"184 327 CURVE SMOOTH",
"184 441 OFFCURVE",
"252 524 OFFCURVE",
"346 524 CURVE SMOOTH",
"409 524 OFFCURVE",
"468 474 OFFCURVE",
"486 404 CURVE",
"640 462 LINE",
"603 578 OFFCURVE",
"479 662 OFFCURVE",
"344 662 CURVE SMOOTH",
"161 662 OFFCURVE",
"28 520 OFFCURVE",
"28 324 CURVE SMOOTH",
"28 129 OFFCURVE",
"154 -12 OFFCURVE",
"328 -12 CURVE SMOOTH"
);
},
{
closed = 1;
nodes = (
"664 0 LINE",
"632 360 LINE",
"278 360 LINE",
"278 256 LINE",
"536 256 LINE",
"536 152 LINE",
"576 0 LINE"
);
}
);
width = 692;
},
{
anchors = (
{
name = bottom;
position = "{352, -12}";
},
{
name = top;
position = "{348, 630}";
}
);
components = (
{
name = inkcurve;
transform = "{1, 0, 0, 1, 44, -268}";
},
{
name = inkcurve;
transform = "{1, 0, 0, -1, 46, 919}";
},
{
name = inkcurve;
transform = "{0, -1, 1, 0, -218, 626}";
},
{
name = inkstem_S;
transform = "{1, 0, 0, 1, -146, 234}";
},
{
name = inkstem_S;
transform = "{1, 0, 0, 1, -146, -182}";
},
{
name = inkstem_S;
transform = "{1, 0, 0, 1, 244, 224}";
},
{
name = inkstem_L;
transform = "{0, -1, 1, 0, 76, 616}";
}
);
layerId = m003;
paths = (
{
closed = 1;
nodes = (
"560 168 OFFCURVE",
"572 180 OFFCURVE",
"588 180 CURVE SMOOTH",
"604 180 OFFCURVE",
"616 168 OFFCURVE",
"616 152 CURVE SMOOTH",
"616 139 OFFCURVE",
"608 128 OFFCURVE",
"596 125 CURVE SMOOTH",
"585 122 OFFCURVE",
"582 120 OFFCURVE",
"584 106 CURVE SMOOTH",
"596 0 LINE",
"652 0 LINE",
"632 355 LINE",
"266 355 LINE",
"266 277 LINE",
"513 277 LINE SMOOTH",
"521 277 OFFCURVE",
"528 282 OFFCURVE",
"531 290 CURVE SMOOTH",
"535 299 OFFCURVE",
"545 305 OFFCURVE",
"556 305 CURVE SMOOTH",
"572 305 OFFCURVE",
"584 293 OFFCURVE",
"584 277 CURVE SMOOTH",
"584 266 OFFCURVE",
"578 256 OFFCURVE",
"569 252 CURVE SMOOTH",
"562 249 OFFCURVE",
"556 242 OFFCURVE",
"555 234 CURVE SMOOTH",
"539 138 OFFCURVE",
"453 72 OFFCURVE",
"348 72 CURVE SMOOTH",
"217 72 OFFCURVE",
"124 179 OFFCURVE",
"124 327 CURVE SMOOTH",
"124 473 OFFCURVE",
"217 580 OFFCURVE",
"344 580 CURVE SMOOTH",
"445 580 OFFCURVE",
"525 512 OFFCURVE",
"536 416 CURVE",
"632 448 LINE",
"609 572 OFFCURVE",
"489 662 OFFCURVE",
"346 662 CURVE SMOOTH",
"166 662 OFFCURVE",
"36 519 OFFCURVE",
"36 325 CURVE SMOOTH",
"36 130 OFFCURVE",
"164 -12 OFFCURVE",
"340 -12 CURVE SMOOTH",
"443 -12 OFFCURVE",
"526 37 OFFCURVE",
"562 117 CURVE SMOOTH",
"571 137 OFFCURVE",
"560 136 OFFCURVE",
"560 152 CURVE SMOOTH"
);
}
);
width = 692;
}
);
leftKerningGroup = O;
leftMetricsKey = O;
rightKerningGroup = G;
unicode = 0047;
},
{
glyphname = H;
lastChange = "2021-05-16 10:47:37 +0000";
layers = (
{
layerId = "8007C042-6FBA-4E49-99B8-8B738A4EBE86";
paths = (
{
closed = 1;
nodes = (
"68 0 LINE",
"152 0 LINE",
"152 650 LINE",
"68 650 LINE"
);
},
{
closed = 1;
nodes = (
"516 0 LINE",
"600 0 LINE",
"600 650 LINE",
"516 650 LINE"
);
},
{
closed = 1;
nodes = (
"132 372 LINE",
"132 292 LINE",
"536 292 LINE",
"536 372 LINE"
);
}
);
width = 668;
},
{
layerId = "ADDE491E-C0C4-4659-943C-53377B387F47";
paths = (
{
closed = 1;
nodes = (
"52 0 LINE",
"200 0 LINE",
"200 650 LINE",
"52 650 LINE"
);
},
{
closed = 1;
nodes = (
"456 0 LINE",
"604 0 LINE",
"604 650 LINE",
"456 650 LINE"
);
},
{
closed = 1;
nodes = (
"180 392 LINE",
"180 272 LINE",
"476 272 LINE",
"476 392 LINE"
);
}
);
width = 656;
},
{
components = (
{
name = inkstem_M;
transform = "{0, -1, 1, 0, 34, 632}";
},
{
name = inkstem_S;
transform = "{1, 0, 0, 1, -190, 292}";
},
{
name = inkstem_S;
transform = "{1, 0, 0, 1, 258, -240}";
},
{
name = inkstem_M;
transform = "{-1, 0, 0, -1, 858, 862}";
},
{
name = inkstem_L;
transform = "{1, 0, 0, 1, -190, -188}";
}
);
layerId = m003;
paths = (
{
closed = 1;
nodes = (
"152 0 LINE",
"152 249 LINE SMOOTH",
"152 257 OFFCURVE",
"147 264 OFFCURVE",
"139 267 CURVE SMOOTH",
"130 271 OFFCURVE",
"124 281 OFFCURVE",
"124 292 CURVE SMOOTH",
"124 308 OFFCURVE",
"136 320 OFFCURVE",
"152 320 CURVE SMOOTH",
"163 320 OFFCURVE",
"173 314 OFFCURVE",
"177 305 CURVE SMOOTH",
"180 297 OFFCURVE",
"187 292 OFFCURVE",
"195 292 CURVE SMOOTH",
"473 292 LINE SMOOTH",
"481 292 OFFCURVE",
"488 297 OFFCURVE",
"491 305 CURVE SMOOTH",
"495 314 OFFCURVE",
"505 320 OFFCURVE",
"516 320 CURVE SMOOTH",
"532 320 OFFCURVE",
"544 308 OFFCURVE",
"544 292 CURVE SMOOTH",
"544 281 OFFCURVE",
"538 271 OFFCURVE",
"529 267 CURVE SMOOTH",
"521 264 OFFCURVE",
"516 257 OFFCURVE",
"516 249 CURVE SMOOTH",
"516 0 LINE",
"600 0 LINE",
"600 650 LINE",
"516 650 LINE",
"516 415 LINE SMOOTH",
"516 407 OFFCURVE",
"521 400 OFFCURVE",
"529 397 CURVE SMOOTH",
"538 393 OFFCURVE",
"544 383 OFFCURVE",
"544 372 CURVE SMOOTH",
"544 356 OFFCURVE",
"532 344 OFFCURVE",
"516 344 CURVE SMOOTH",
"505 344 OFFCURVE",
"495 350 OFFCURVE",
"491 359 CURVE SMOOTH",
"488 367 OFFCURVE",
"481 372 OFFCURVE",
"473 372 CURVE SMOOTH",
"195 372 LINE SMOOTH",
"187 372 OFFCURVE",
"180 367 OFFCURVE",
"177 359 CURVE SMOOTH",
"173 350 OFFCURVE",
"163 344 OFFCURVE",
"152 344 CURVE SMOOTH",
"136 344 OFFCURVE",
"124 356 OFFCURVE",
"124 372 CURVE SMOOTH",
"124 383 OFFCURVE",
"130 393 OFFCURVE",
"139 397 CURVE SMOOTH",
"147 400 OFFCURVE",
"152 407 OFFCURVE",
"152 415 CURVE SMOOTH",
"152 650 LINE",
"68 650 LINE",
"68 0 LINE"
);
}
);
width = 668;
}
);
leftKerningGroup = l;
leftMetricsKey = l;
rightKerningGroup = l;
rightMetricsKey = l;
unicode = 0048;
},
{
glyphname = I;
lastChange = "2021-05-16 10:47:48 +0000";
layers = (
{
anchors = (
{
name = ogonek;
position = "{152, 0}";
},
{
name = top;
position = "{110, 618}";
}
);
layerId = "8007C042-6FBA-4E49-99B8-8B738A4EBE86";
paths = (
{
closed = 1;
nodes = (
"68 0 LINE",
"152 0 LINE",
"152 650 LINE",
"68 650 LINE"
);
}
);
width = 220;
},
{
anchors = (
{
name = ogonek;
position = "{200, 0}";
},
{
name = top;
position = "{126, 634}";
}
);
layerId = "ADDE491E-C0C4-4659-943C-53377B387F47";
paths = (
{
closed = 1;
nodes = (
"52 0 LINE",
"200 0 LINE",
"200 650 LINE",
"52 650 LINE"
);
}
);
width = 252;
},
{
anchors = (
{
name = ogonek;
position = "{152, 0}";
},
{
name = top;
position = "{110, 618}";
}
);
components = (
{
name = inkstem_M;
transform = "{-1, 0, 0, -1, 410, 390}";
},
{
name = inkstem_S;
transform = "{1, 0, 0, 1, -190, 292}";
},
{
name = inkstem_L;
transform = "{1, 0, 0, 1, -190, 12}";
}
);
layerId = m003;
paths = (
{
closed = 1;
nodes = (
"68 0 LINE",
"152 0 LINE",
"152 650 LINE",
"68 650 LINE"
);
}
);
width = 220;
}
);
leftKerningGroup = l;
leftMetricsKey = l;
rightKerningGroup = l;
rightMetricsKey = l;
unicode = 0049;
},
{
glyphname = Idieresis;
lastChange = "2021-05-16 10:39:01 +0000";
layers = (
{
components = (
{
name = I;
}
);
layerId = "8007C042-6FBA-4E49-99B8-8B738A4EBE86";
paths = (
{
closed = 1;
nodes = (
"67 694 OFFCURVE",
"92 720 OFFCURVE",
"92 756 CURVE SMOOTH",
"92 792 OFFCURVE",
"67 818 OFFCURVE",
"32 818 CURVE SMOOTH",
"-3 818 OFFCURVE",
"-28 792 OFFCURVE",
"-28 756 CURVE SMOOTH",
"-28 720 OFFCURVE",
"-3 694 OFFCURVE",
"32 694 CURVE SMOOTH"
);
},
{
closed = 1;
nodes = (
"223 694 OFFCURVE",
"248 720 OFFCURVE",
"248 756 CURVE SMOOTH",
"248 792 OFFCURVE",
"223 818 OFFCURVE",
"188 818 CURVE SMOOTH",
"153 818 OFFCURVE",
"128 792 OFFCURVE",
"128 756 CURVE SMOOTH",
"128 720 OFFCURVE",
"153 694 OFFCURVE",
"188 694 CURVE SMOOTH"
);
}
);
width = 220;
},
{
components = (
{
name = I;
}
);
layerId = "ADDE491E-C0C4-4659-943C-53377B387F47";
paths = (
{
closed = 1;
nodes = (
"267 678 OFFCURVE",
"300 713 OFFCURVE",
"300 760 CURVE SMOOTH",
"300 807 OFFCURVE",
"267 842 OFFCURVE",
"220 842 CURVE SMOOTH",
"173 842 OFFCURVE",
"140 807 OFFCURVE",
"140 760 CURVE SMOOTH",
"140 713 OFFCURVE",
"173 678 OFFCURVE",
"220 678 CURVE SMOOTH"
);
},
{
closed = 1;
nodes = (
"79 678 OFFCURVE",
"112 713 OFFCURVE",
"112 760 CURVE SMOOTH",
"112 807 OFFCURVE",
"79 842 OFFCURVE",
"32 842 CURVE SMOOTH",
"-15 842 OFFCURVE",
"-48 807 OFFCURVE",
"-48 760 CURVE SMOOTH",
"-48 713 OFFCURVE",
"-15 678 OFFCURVE",
"32 678 CURVE SMOOTH"
);
}
);
width = 252;
},
{
components = (
{
name = I;
}
);
layerId = m003;
paths = (
{
closed = 1;
nodes = (
"67 694 OFFCURVE",
"92 720 OFFCURVE",
"92 756 CURVE SMOOTH",
"92 792 OFFCURVE",
"67 818 OFFCURVE",
"32 818 CURVE SMOOTH",
"-3 818 OFFCURVE",
"-28 792 OFFCURVE",
"-28 756 CURVE SMOOTH",
"-28 720 OFFCURVE",
"-3 694 OFFCURVE",
"32 694 CURVE SMOOTH"
);
},
{
closed = 1;
nodes = (
"223 694 OFFCURVE",
"248 720 OFFCURVE",
"248 756 CURVE SMOOTH",
"248 792 OFFCURVE",
"223 818 OFFCURVE",
"188 818 CURVE SMOOTH",
"153 818 OFFCURVE",
"128 792 OFFCURVE",
"128 756 CURVE SMOOTH",
"128 720 OFFCURVE",
"153 694 OFFCURVE",
"188 694 CURVE SMOOTH"
);
}
);
width = 220;
}
);
leftKerningGroup = l;
rightKerningGroup = l;
unicode = 00CF;
},
{
color = 10;
glyphname = J;
lastChange = "2021-05-16 10:47:59 +0000";
layers = (
{
layerId = "8007C042-6FBA-4E49-99B8-8B738A4EBE86";
paths = (
{
closed = 1;
nodes = (
"415 -12 OFFCURVE",
"512 89 OFFCURVE",
"512 228 CURVE SMOOTH",
"512 650 LINE",
"428 650 LINE",
"428 228 LINE SMOOTH",
"428 138 OFFCURVE",
"367 72 OFFCURVE",
"281 72 CURVE SMOOTH",
"195 72 OFFCURVE",
"134 136 OFFCURVE",
"134 228 CURVE SMOOTH",
"134 344 LINE",
"48 344 LINE",
"48 224 LINE SMOOTH",
"48 87 OFFCURVE",
"145 -12 OFFCURVE",
"280 -12 CURVE SMOOTH"
);
}
);
width = 568;
},
{
associatedMasterId = "8007C042-6FBA-4E49-99B8-8B738A4EBE86";
background = {
paths = (
{
closed = 1;
nodes = (
"307 434 LINE SMOOTH",
"307 683 OFFCURVE",
"308 684 OFFCURVE",
"363 684 CURVE SMOOTH",
"383 684 LINE SMOOTH",
"391 684 OFFCURVE",
"391 693 OFFCURVE",
"383 693 CURVE SMOOTH",
"353 693 OFFCURVE",
"285 690 OFFCURVE",
"269 690 CURVE SMOOTH",
"256 690 OFFCURVE",
"177 693 OFFCURVE",
"149 693 CURVE SMOOTH",
"141 693 OFFCURVE",
"141 684 OFFCURVE",
"149 684 CURVE SMOOTH",
"175 684 LINE SMOOTH",
"227 684 OFFCURVE",
"229 686 OFFCURVE",
"229 434 CURVE SMOOTH",
"229 259 LINE SMOOTH",
"229 -3 OFFCURVE",
"214 -69 OFFCURVE",
"171 -114 CURVE",
"163 -123 OFFCURVE",
"144 -129 OFFCURVE",
"131 -129 CURVE SMOOTH",
"122 -129 OFFCURVE",
"94 -128 OFFCURVE",
"69 -128 CURVE SMOOTH",
"61 -128 OFFCURVE",
"54 -129 OFFCURVE",
"49 -130 CURVE",
"21 -138 OFFCURVE",
"10 -166 OFFCURVE",
"10 -187 CURVE SMOOTH",
"10 -198 OFFCURVE",
"21 -206 OFFCURVE",
"37 -210 CURVE",
"44 -211 OFFCURVE",
"52 -212 OFFCURVE",
"60 -212 CURVE SMOOTH",
"76 -212 OFFCURVE",
"124 -175 OFFCURVE",
"145 -154 CURVE SMOOTH",
"262 -39 OFFCURVE",
"308 9 OFFCURVE",
"308 213 CURVE SMOOTH",
"308 241 OFFCURVE",
"307 294 OFFCURVE",
"307 319 CURVE SMOOTH"
);
}
);
};
layerId = "6A443743-A138-4538-8272-7069A9657A3F";
name = "Oct 19 17, 16:39";
paths = (
{
closed = 1;
nodes = (
"36 81 OFFCURVE",
"129 -18 OFFCURVE",
"274 -18 CURVE SMOOTH",
"419 -18 OFFCURVE",
"512 87 OFFCURVE",
"512 264 CURVE",
"512 684 LINE",
"430 684 LINE",
"430 268 LINE",
"430 146 OFFCURVE",
"367 74 OFFCURVE",
"274 74 CURVE SMOOTH",
"181 74 OFFCURVE",
"118 139 OFFCURVE",
"118 248 CURVE",
"36 248 LINE"
);
}
);
width = 576;
},
{
associatedMasterId = "8007C042-6FBA-4E49-99B8-8B738A4EBE86";
background = {
paths = (
{
closed = 1;
nodes = (
"307 434 LINE SMOOTH",
"307 683 OFFCURVE",
"308 684 OFFCURVE",
"363 684 CURVE SMOOTH",
"383 684 LINE SMOOTH",
"391 684 OFFCURVE",
"391 693 OFFCURVE",
"383 693 CURVE SMOOTH",
"353 693 OFFCURVE",
"285 690 OFFCURVE",
"269 690 CURVE SMOOTH",
"256 690 OFFCURVE",
"177 693 OFFCURVE",
"149 693 CURVE SMOOTH",
"141 693 OFFCURVE",
"141 684 OFFCURVE",
"149 684 CURVE SMOOTH",
"175 684 LINE SMOOTH",
"227 684 OFFCURVE",
"229 686 OFFCURVE",
"229 434 CURVE SMOOTH",
"229 259 LINE SMOOTH",
"229 -3 OFFCURVE",
"214 -69 OFFCURVE",
"171 -114 CURVE",
"163 -123 OFFCURVE",
"144 -129 OFFCURVE",
"131 -129 CURVE SMOOTH",
"122 -129 OFFCURVE",
"94 -128 OFFCURVE",
"69 -128 CURVE SMOOTH",
"61 -128 OFFCURVE",
"54 -129 OFFCURVE",
"49 -130 CURVE",
"21 -138 OFFCURVE",
"10 -166 OFFCURVE",
"10 -187 CURVE SMOOTH",
"10 -198 OFFCURVE",
"21 -206 OFFCURVE",
"37 -210 CURVE",
"44 -211 OFFCURVE",
"52 -212 OFFCURVE",
"60 -212 CURVE SMOOTH",
"76 -212 OFFCURVE",
"124 -175 OFFCURVE",
"145 -154 CURVE SMOOTH",
"262 -39 OFFCURVE",
"308 9 OFFCURVE",
"308 213 CURVE SMOOTH",
"308 241 OFFCURVE",
"307 294 OFFCURVE",
"307 319 CURVE SMOOTH"
);
}
);
};
layerId = "E96EE89B-244C-46FD-8698-02A361837939";
name = "Oct 19 17, 16:47";
paths = (
{
closed = 1;
nodes = (
"86 82 OFFCURVE",
"53 86 OFFCURVE",
"26 94 CURVE",
"24 6 LINE",
"50 -4 OFFCURVE",
"80 -10 OFFCURVE",
"106 -10 CURVE SMOOTH",
"234 -10 OFFCURVE",
"310 69 OFFCURVE",
"310 202 CURVE SMOOTH",
"310 692 LINE",
"228 692 LINE",
"228 218 LINE SMOOTH",
"228 133 OFFCURVE",
"186 82 OFFCURVE",
"114 82 CURVE SMOOTH"
);
}
);
width = 374;
},
{
associatedMasterId = "8007C042-6FBA-4E49-99B8-8B738A4EBE86";
background = {
paths = (
{
closed = 1;
nodes = (
"536 722 LINE",
"440 722 LINE",
"440 263 LINE SMOOTH",
"440 141 OFFCURVE",
"383 75 OFFCURVE",
"286 75 CURVE SMOOTH",
"195 75 OFFCURVE",
"136 135 OFFCURVE",
"130 250 CURVE",
"39 211 LINE",
"52 76 OFFCURVE",
"150 -13 OFFCURVE",
"286 -13 CURVE SMOOTH",
"438 -13 OFFCURVE",
"536 94 OFFCURVE",
"536 251 CURVE SMOOTH"
);
}
);
};
layerId = "F94355CD-801D-4F78-96A5-1BC39BD5D1E3";
name = "Nov 19 18, 14:38";
paths = (
{
closed = 1;
nodes = (
"190 74 OFFCURVE",
"126 136 OFFCURVE",
"126 222 CURVE SMOOTH",
"126 234 OFFCURVE",
"127 250 OFFCURVE",
"129 262 CURVE",
"155 413 LINE",
"71 417 LINE",
"46 264 LINE",
"45 252 OFFCURVE",
"44 240 OFFCURVE",
"44 224 CURVE SMOOTH",
"44 88 OFFCURVE",
"142 -10 OFFCURVE",
"278 -10 CURVE SMOOTH",
"410 -10 OFFCURVE",
"504 92 OFFCURVE",
"504 230 CURVE",
"504 650 LINE",
"422 650 LINE",
"422 226 LINE",
"422 138 OFFCURVE",
"362 74 OFFCURVE",
"278 74 CURVE SMOOTH"
);
}
);
width = 564;
},
{
associatedMasterId = "8007C042-6FBA-4E49-99B8-8B738A4EBE86";
background = {
paths = (
{
closed = 1;
nodes = (
"536 722 LINE",
"440 722 LINE",
"440 263 LINE SMOOTH",
"440 141 OFFCURVE",
"383 75 OFFCURVE",
"286 75 CURVE SMOOTH",
"195 75 OFFCURVE",
"136 135 OFFCURVE",
"130 250 CURVE",
"39 211 LINE",
"52 76 OFFCURVE",
"150 -13 OFFCURVE",
"286 -13 CURVE SMOOTH",
"438 -13 OFFCURVE",
"536 94 OFFCURVE",
"536 251 CURVE SMOOTH"
);
}
);
};
layerId = "0921D52E-899D-412E-9515-02F94267137A";
name = "Nov 20 18, 13:35";
paths = (
{
closed = 1;
nodes = (
"190 74 OFFCURVE",
"126 136 OFFCURVE",
"126 222 CURVE SMOOTH",
"126 234 OFFCURVE",
"128 250 OFFCURVE",
"130 262 CURVE",
"46 264 LINE",
"45 252 OFFCURVE",
"44 240 OFFCURVE",
"44 224 CURVE SMOOTH",
"44 88 OFFCURVE",
"142 -10 OFFCURVE",
"278 -10 CURVE SMOOTH",
"410 -10 OFFCURVE",
"504 92 OFFCURVE",
"504 230 CURVE",
"504 650 LINE",
"422 650 LINE",
"422 226 LINE",
"422 138 OFFCURVE",
"362 74 OFFCURVE",
"278 74 CURVE SMOOTH"
);
}
);
width = 564;
},
{
layerId = "ADDE491E-C0C4-4659-943C-53377B387F47";
paths = (
{
closed = 1;
nodes = (
"434 -12 OFFCURVE",
"536 92 OFFCURVE",
"536 236 CURVE SMOOTH",
"536 650 LINE",
"388 650 LINE",
"388 236 LINE SMOOTH",
"388 175 OFFCURVE",
"348 130 OFFCURVE",
"292 130 CURVE SMOOTH",
"234 130 OFFCURVE",
"192 173 OFFCURVE",
"192 232 CURVE SMOOTH",
"192 356 LINE",
"44 356 LINE",
"44 232 LINE SMOOTH",
"44 90 OFFCURVE",
"148 -12 OFFCURVE",
"292 -12 CURVE SMOOTH"
);
}
);
width = 584;
},
{
components = (
{
name = inkcurve;
transform = "{1, 0, 0, 1, -20, -268}";
},
{
name = inkstem_S;
transform = "{1, 0, 0, 1, 132, -196}";
},
{
name = inkstem_S;
transform = "{1, 0, 0, 1, -170, -196}";
},
{
name = inkstem_M;
transform = "{-1, 0, 0, -1, 770, 862}";
},
{
name = inkstem_L;
transform = "{1, 0, 0, 1, 170, 38}";
},
{
name = inkstem_M;
transform = "{-1, 0, 0, -1, 392, 556}";
}
);
layerId = m003;
paths = (
{
closed = 1;
nodes = (
"195 72 OFFCURVE",
"134 136 OFFCURVE",
"134 228 CURVE SMOOTH",
"134 344 LINE",
"48 344 LINE",
"48 224 LINE SMOOTH",
"48 87 OFFCURVE",
"145 -12 OFFCURVE",
"280 -12 CURVE SMOOTH",
"415 -12 OFFCURVE",
"512 89 OFFCURVE",
"512 228 CURVE SMOOTH",
"512 650 LINE",
"428 650 LINE",
"428 228 LINE SMOOTH",
"428 138 OFFCURVE",
"367 72 OFFCURVE",
"281 72 CURVE SMOOTH"
);
}
);
width = 568;
}
);
leftKerningGroup = J;
rightKerningGroup = U;
rightMetricsKey = U;
unicode = 004A;
},
{
glyphname = K;
lastChange = "2021-05-16 10:48:12 +0000";
layers = (
{
anchors = (
{
name = bottom;
position = "{308, 0}";
}
);
layerId = "8007C042-6FBA-4E49-99B8-8B738A4EBE86";
paths = (
{
closed = 1;
nodes = (
"572 650 LINE",
"460 650 LINE",
"132 254 LINE",
"132 136 LINE"
);
},
{
closed = 1;
nodes = (
"152 0 LINE",
"152 650 LINE",
"68 650 LINE",
"68 0 LINE"
);
},
{
closed = 1;
nodes = (
"600 0 LINE",
"324 372 LINE",
"268 304 LINE",
"494 0 LINE"
);
}
);
width = 608;
},
{
anchors = (
{
name = bottom;
position = "{300, 0}";
}
);
layerId = "ADDE491E-C0C4-4659-943C-53377B387F47";
paths = (
{
closed = 1;
nodes = (
"576 650 LINE",
"396 650 LINE",
"180 336 LINE",
"180 164 LINE"
);
},
{
closed = 1;
nodes = (
"200 0 LINE",
"200 650 LINE",
"52 650 LINE",
"52 0 LINE"
);
},
{
closed = 1;
nodes = (
"616 0 LINE",
"358 390 LINE",
"272 284 LINE",
"436 0 LINE"
);
}
);
width = 620;
},
{
anchors = (
{
name = bottom;
position = "{308, 0}";
}
);
components = (
{
name = inkstem_L;
transform = "{1, 0, 0, 1, -190, 240}";
},
{
name = inkstem_M;
transform = "{-1, 0, 0, -1, 410, 390}";
},
{
name = inkstem_S;
transform = "{1, 0, 0, 1, 166, 292}";
},
{
name = inkstem_L;
transform = "{-0.79863, -0.60182, 0.60182, -0.79863, 532, 520}";
}
);
layerId = m003;
paths = (
{
closed = 1;
nodes = (
"171 301 OFFCURVE",
"177 297 OFFCURVE",
"177 281 CURVE SMOOTH",
"177 265 OFFCURVE",
"165 253 OFFCURVE",
"149 253 CURVE SMOOTH",
"133 253 OFFCURVE",
"121 265 OFFCURVE",
"121 281 CURVE SMOOTH",
"121 309 OFFCURVE",
"152 306 OFFCURVE",
"152 328 CURVE SMOOTH",
"152 650 LINE",
"68 650 LINE",
"68 0 LINE",
"152 0 LINE",
"152 159 LINE",
"242 264 LINE SMOOTH",
"254 278 OFFCURVE",
"247 280 OFFCURVE",
"247 292 CURVE SMOOTH",
"247 308 OFFCURVE",
"259 320 OFFCURVE",
"275 320 CURVE SMOOTH",
"291 320 OFFCURVE",
"303 308 OFFCURVE",
"303 292 CURVE SMOOTH",
"303 280 OFFCURVE",
"294 271 OFFCURVE",
"303 258 CURVE SMOOTH",
"494 0 LINE",
"600 0 LINE",
"354 333 LINE SMOOTH",
"341 351 OFFCURVE",
"338 343 OFFCURVE",
"323 343 CURVE SMOOTH",
"307 343 OFFCURVE",
"295 355 OFFCURVE",
"295 371 CURVE SMOOTH",
"295 387 OFFCURVE",
"307 399 OFFCURVE",
"323 399 CURVE SMOOTH",
"339 399 OFFCURVE",
"347 386 OFFCURVE",
"357 398 CURVE SMOOTH",
"572 650 LINE",
"460 650 LINE",
"183 316 LINE SMOOTH"
);
}
);
width = 608;
}
);
leftKerningGroup = l;
leftMetricsKey = l;
rightKerningGroup = X;
rightMetricsKey = X;
unicode = 004B;
},
{
color = 10;
glyphname = L;
lastChange = "2021-05-16 10:48:22 +0000";
layers = (
{
anchors = (
{
name = bottom;
position = "{288, 0}";
},
{
name = center;
position = "{252, 325}";
},
{
name = top;
position = "{120, 622}";
},
{
name = topright;
position = "{320, 470}";
}
);
layerId = "8007C042-6FBA-4E49-99B8-8B738A4EBE86";
paths = (
{
closed = 1;
nodes = (
"68 0 LINE",
"152 0 LINE",
"152 650 LINE",
"68 650 LINE"
);
},
{
closed = 1;
nodes = (
"132 82 LINE",
"132 0 LINE",
"492 0 LINE",
"492 82 LINE"
);
}
);
width = 496;
},
{
anchors = (
{
name = bottom;
position = "{276, 0}";
},
{
name = center;
position = "{300, 325}";
},
{
name = top;
position = "{126, 638}";
},
{
name = topright;
position = "{368, 470}";
}
);
layerId = "ADDE491E-C0C4-4659-943C-53377B387F47";
paths = (
{
closed = 1;
nodes = (
"52 0 LINE",
"200 0 LINE",
"200 650 LINE",
"52 650 LINE"
);
},
{
closed = 1;
nodes = (
"180 142 LINE",
"180 0 LINE",
"500 0 LINE",
"500 142 LINE"
);
}
);
width = 504;
},
{
anchors = (
{
name = bottom;
position = "{288, 0}";
},
{
name = center;
position = "{252, 325}";
},
{
name = top;
position = "{120, 622}";
},
{
name = topright;
position = "{320, 470}";
}
);
components = (
{
name = inkstem_L;
transform = "{1, 0, 0, 1, -190, 240}";
},
{
name = inkstem_M;
transform = "{0, -1, 1, 0, -20, 342}";
},
{
name = inkstem_S;
transform = "{1, 0, 0, 1, 134, -258}";
},
{
name = inkstem_M;
transform = "{-1, 0, 0, -1, 410, 590}";
}
);
layerId = m003;
paths = (
{
closed = 1;
nodes = (
"492 0 LINE",
"492 82 LINE",
"195 82 LINE SMOOTH",
"187 82 OFFCURVE",
"180 77 OFFCURVE",
"177 69 CURVE SMOOTH",
"173 60 OFFCURVE",
"163 54 OFFCURVE",
"152 54 CURVE SMOOTH",
"136 54 OFFCURVE",
"124 66 OFFCURVE",
"124 82 CURVE SMOOTH",
"124 93 OFFCURVE",
"130 103 OFFCURVE",
"139 107 CURVE SMOOTH",
"147 110 OFFCURVE",
"152 117 OFFCURVE",
"152 125 CURVE SMOOTH",
"152 650 LINE",
"68 650 LINE",
"68 0 LINE"
);
}
);
width = 496;
}
);
leftKerningGroup = l;
leftMetricsKey = l;
rightKerningGroup = L;
unicode = 004C;
},
{
glyphname = Lslash;
lastChange = "2021-05-16 11:24:31 +0000";
layers = (
{
components = (
{
name = L;
}
);
layerId = "8007C042-6FBA-4E49-99B8-8B738A4EBE86";
paths = (
{
closed = 1;
nodes = (
"8 356 LINE",
"8 280 LINE",
"352 372 LINE",
"352 448 LINE"
);
}
);
width = 500;
},
{
associatedMasterId = "8007C042-6FBA-4E49-99B8-8B738A4EBE86";
components = (
{
name = L;
}
);
layerId = "B1271F29-4AF9-4887-85E0-650A52444A06";
name = "Jun 6 20, 22:16";
paths = (
{
closed = 1;
nodes = (
"112 309 LINE",
"392 402 LINE",
"392 480 LINE",
"112 387 LINE"
);
},
{
closed = 1;
nodes = (
"112 394 LINE",
"8 358 LINE",
"8 280 LINE",
"112 314 LINE"
);
}
);
width = 504;
},
{
components = (
{
name = L;
transform = "{1, 0, 0, 1, 4, 0}";
}
);
layerId = "ADDE491E-C0C4-4659-943C-53377B387F47";
paths = (
{
closed = 1;
nodes = (
"4 372 LINE",
"4 264 LINE",
"368 360 LINE",
"368 468 LINE"
);
}
);
width = 508;
},
{
components = (
{
name = inkstem_L;
transform = "{1, 0, 0, 1, -190, 240}";
},
{
name = inkstem_M;
transform = "{0, -1, 1, 0, -20, 342}";
},
{
name = inkstem_S;
transform = "{1, 0, 0, 1, 134, -258}";
},
{
name = inkstem_S;
transform = "{1, 0, 0, 1, -6, 96}";
}
);
layerId = m003;
paths = (
{
closed = 1;
nodes = (
"492 0 LINE",
"492 82 LINE",
"195 82 LINE SMOOTH",
"187 82 OFFCURVE",
"180 77 OFFCURVE",
"177 69 CURVE SMOOTH",
"173 60 OFFCURVE",
"163 54 OFFCURVE",
"152 54 CURVE SMOOTH",
"136 54 OFFCURVE",
"124 66 OFFCURVE",
"124 82 CURVE SMOOTH",
"124 93 OFFCURVE",
"130 103 OFFCURVE",
"139 107 CURVE SMOOTH",
"147 110 OFFCURVE",
"152 117 OFFCURVE",
"152 125 CURVE SMOOTH",
"152 280 LINE SMOOTH",
"152 298 OFFCURVE",
"125 297 OFFCURVE",
"125 323 CURVE SMOOTH",
"125 339 OFFCURVE",
"137 351 OFFCURVE",
"153 351 CURVE SMOOTH",
"179 351 OFFCURVE",
"177 326 OFFCURVE",
"192 330 CURVE SMOOTH",
"352 372 LINE",
"352 448 LINE",
"152 395 LINE",
"152 650 LINE",
"68 650 LINE",
"68 412 LINE SMOOTH",
"68 394 OFFCURVE",
"95 394 OFFCURVE",
"95 368 CURVE SMOOTH",
"95 352 OFFCURVE",
"83 340 OFFCURVE",
"67 340 CURVE SMOOTH",
"41 340 OFFCURVE",
"43 366 OFFCURVE",
"28 362 CURVE SMOOTH",
"8 356 LINE",
"8 280 LINE",
"68 296 LINE",
"68 0 LINE"
);
}
);
width = 500;
}
);
leftKerningGroup = t;
rightKerningGroup = L;
unicode = 0141;
},
{
glyphname = M;
lastChange = "2021-05-16 10:48:29 +0000";
layers = (
{
layerId = "8007C042-6FBA-4E49-99B8-8B738A4EBE86";
paths = (
{
closed = 1;
nodes = (
"152 0 LINE",
"152 520 LINE",
"357 2 LINE",
"441 2 LINE",
"640 520 LINE",
"640 0 LINE",
"724 0 LINE",
"724 650 LINE",
"602 650 LINE",
"400 118 LINE",
"194 650 LINE",
"68 650 LINE",
"68 0 LINE"
);
}
);
width = 792;
},
{
layerId = "ADDE491E-C0C4-4659-943C-53377B387F47";
paths = (
{
closed = 1;
nodes = (
"200 0 LINE",
"200 480 LINE",
"340 0 LINE",
"440 0 LINE",
"576 480 LINE",
"576 0 LINE",
"724 0 LINE",
"724 650 LINE",
"536 650 LINE",
"392 140 LINE",
"246 650 LINE",
"52 650 LINE",
"52 0 LINE"
);
}
);
width = 776;
},
{
associatedMasterId = "ADDE491E-C0C4-4659-943C-53377B387F47";
layerId = "933F5BCA-138B-477A-9A75-38DDA7F14FEC";
name = "Apr 1 21, 16:19";
paths = (
{
closed = 1;
nodes = (
"200 0 LINE",
"200 468 LINE",
"332 0 LINE",
"448 0 LINE",
"576 468 LINE",
"576 0 LINE",
"724 0 LINE",
"724 650 LINE",
"528 650 LINE",
"392 156 LINE",
"256 650 LINE",
"52 650 LINE",
"52 0 LINE"
);
}
);
width = 776;
},
{
components = (
{
name = inkstem_L;
transform = "{1, 0, 0, 1, 382, 12}";
},
{
name = inkstem_L;
transform = "{1, 0, 0, 1, -190, 12}";
},
{
name = inkstem_M;
transform = "{-1, 0, 0, -1, 410, 390}";
},
{
name = inkstem_M;
transform = "{-1, 0, 0, -1, 982, 390}";
},
{
name = inkstem_M;
transform = "{0.93142, 0.36395, -0.36395, 0.93142, 119, -102}";
},
{
name = inkstem_S;
transform = "{-0.36395, 0.93142, -0.93142, -0.36395, 622, 260}";
},
{
name = inkstem_M;
transform = "{-0.93142, 0.36395, 0.36395, 0.93142, 678, -102}";
},
{
name = inkstem_S;
transform = "{0.36395, 0.93142, 0.93142, -0.36395, 174, 260}";
}
);
layerId = m003;
paths = (
{
closed = 1;
nodes = (
"152 0 LINE",
"152 490 LINE SMOOTH",
"152 498 OFFCURVE",
"147 504 OFFCURVE",
"140 504 CURVE SMOOTH",
"124 504 OFFCURVE",
"112 516 OFFCURVE",
"112 532 CURVE SMOOTH",
"112 548 OFFCURVE",
"124 560 OFFCURVE",
"140 560 CURVE SMOOTH",
"156 560 OFFCURVE",
"168 548 OFFCURVE",
"168 532 CURVE SMOOTH",
"168 504 LINE SMOOTH",
"168 492 OFFCURVE",
"170 474 OFFCURVE",
"175 460 CURVE SMOOTH",
"357 2 LINE",
"441 2 LINE",
"617 460 LINE SMOOTH",
"622 474 OFFCURVE",
"624 492 OFFCURVE",
"624 504 CURVE SMOOTH",
"624 532 LINE SMOOTH",
"624 548 OFFCURVE",
"636 560 OFFCURVE",
"652 560 CURVE SMOOTH",
"668 560 OFFCURVE",
"680 548 OFFCURVE",
"680 532 CURVE SMOOTH",
"680 516 OFFCURVE",
"668 504 OFFCURVE",
"652 504 CURVE SMOOTH",
"645 504 OFFCURVE",
"640 498 OFFCURVE",
"640 490 CURVE SMOOTH",
"640 0 LINE",
"724 0 LINE",
"724 650 LINE",
"602 650 LINE",
"414 154 LINE SMOOTH",
"411 147 OFFCURVE",
"413 137 OFFCURVE",
"419 131 CURVE SMOOTH",
"425 126 OFFCURVE",
"428 118 OFFCURVE",
"428 110 CURVE SMOOTH",
"428 94 OFFCURVE",
"416 82 OFFCURVE",
"400 82 CURVE SMOOTH",
"384 82 OFFCURVE",
"372 94 OFFCURVE",
"372 110 CURVE SMOOTH",
"372 117 OFFCURVE",
"376 126 OFFCURVE",
"381 131 CURVE SMOOTH",
"387 137 OFFCURVE",
"389 147 OFFCURVE",
"386 154 CURVE SMOOTH",
"194 650 LINE",
"68 650 LINE",
"68 0 LINE"
);
}
);
width = 792;
}
);
leftKerningGroup = l;
leftMetricsKey = l;
rightKerningGroup = l;
rightMetricsKey = l;
unicode = 004D;
},
{
glyphname = N;
lastChange = "2021-05-16 10:48:42 +0000";
layers = (
{
anchors = (
{
name = bottom;
position = "{328, 0}";
},
{
name = top;
position = "{336, 618}";
}
);
layerId = "8007C042-6FBA-4E49-99B8-8B738A4EBE86";
paths = (
{
closed = 1;
nodes = (
"152 0 LINE",
"152 526 LINE",
"504 0 LINE",
"600 0 LINE",
"600 650 LINE",
"516 650 LINE",
"516 132 LINE",
"174 650 LINE",
"68 650 LINE",
"68 0 LINE"
);
}
);
width = 668;
},
{
anchors = (
{
name = bottom;
position = "{316, 0}";
},
{
name = top;
position = "{324, 634}";
}
);
layerId = "ADDE491E-C0C4-4659-943C-53377B387F47";
paths = (
{
closed = 1;
nodes = (
"200 0 LINE",
"200 440 LINE",
"440 0 LINE",
"600 0 LINE",
"600 650 LINE",
"452 650 LINE",
"452 218 LINE",
"220 650 LINE",
"52 650 LINE",
"52 0 LINE"
);
}
);
width = 652;
},
{
anchors = (
{
name = bottom;
position = "{328, 0}";
},
{
name = top;
position = "{336, 618}";
}
);
components = (
{
name = inkstem_L;
transform = "{1, 0, 0, 1, -190, 12}";
},
{
name = inkstem_M;
transform = "{-1, 0, 0, -1, 410, 390}";
},
{
name = inkstem_L;
transform = "{1, 0, 0, -1, 258, 640}";
},
{
name = inkstem_M;
transform = "{-1, 0, 0, 1, 858, 262}";
},
{
name = inkstem_M;
transform = "{-0.83119, -0.55599, -0.55599, 0.83119, 782, 201}";
},
{
name = inkstem_S;
transform = "{1, 0, 0, 1, -33, 130}";
}
);
layerId = m003;
paths = (
{
closed = 1;
nodes = (
"152 0 LINE",
"152 496 LINE SMOOTH",
"152 504 OFFCURVE",
"147 510 OFFCURVE",
"140 510 CURVE SMOOTH",
"124 510 OFFCURVE",
"112 522 OFFCURVE",
"112 538 CURVE SMOOTH",
"112 554 OFFCURVE",
"124 566 OFFCURVE",
"140 566 CURVE SMOOTH",
"156 566 OFFCURVE",
"168 554 OFFCURVE",
"168 538 CURVE SMOOTH",
"168 520 LINE SMOOTH",
"168 510 OFFCURVE",
"171 497 OFFCURVE",
"176 490 CURVE SMOOTH",
"504 0 LINE",
"600 0 LINE",
"600 650 LINE",
"516 650 LINE",
"516 162 LINE SMOOTH",
"516 154 OFFCURVE",
"521 148 OFFCURVE",
"528 148 CURVE SMOOTH",
"544 148 OFFCURVE",
"556 136 OFFCURVE",
"556 120 CURVE SMOOTH",
"556 104 OFFCURVE",
"544 92 OFFCURVE",
"528 92 CURVE SMOOTH",
"512 92 OFFCURVE",
"500 104 OFFCURVE",
"500 120 CURVE SMOOTH",
"500 138 LINE SMOOTH",
"500 148 OFFCURVE",
"497 161 OFFCURVE",
"492 168 CURVE SMOOTH",
"174 650 LINE",
"68 650 LINE",
"68 0 LINE"
);
}
);
width = 668;
}
);
leftKerningGroup = l;
leftMetricsKey = l;
rightKerningGroup = l;
rightMetricsKey = l;
unicode = 004E;
},
{
color = 10;
glyphname = O;
lastChange = "2021-05-16 10:49:07 +0000";
layers = (
{
anchors = (
{
name = center;
position = "{352, 329}";
},
{
name = top;
position = "{352, 630}";
}
);
layerId = "8007C042-6FBA-4E49-99B8-8B738A4EBE86";
paths = (
{
closed = 1;
nodes = (
"535 -12 OFFCURVE",
"668 130 OFFCURVE",
"668 325 CURVE SMOOTH",
"668 520 OFFCURVE",
"535 662 OFFCURVE",
"352 662 CURVE SMOOTH",
"169 662 OFFCURVE",
"36 520 OFFCURVE",
"36 325 CURVE SMOOTH",
"36 130 OFFCURVE",
"169 -12 OFFCURVE",
"352 -12 CURVE SMOOTH"
);
},
{
closed = 1;
nodes = (
"220 72 OFFCURVE",
"124 178 OFFCURVE",
"124 325 CURVE SMOOTH",
"124 473 OFFCURVE",
"220 580 OFFCURVE",
"352 580 CURVE SMOOTH",
"484 580 OFFCURVE",
"580 473 OFFCURVE",
"580 325 CURVE SMOOTH",
"580 178 OFFCURVE",
"484 72 OFFCURVE",
"352 72 CURVE SMOOTH"
);
}
);
width = 704;
},
{
associatedMasterId = "8007C042-6FBA-4E49-99B8-8B738A4EBE86";
background = {
paths = (
{
closed = 1;
nodes = (
"117 551 OFFCURVE",
"222 693 OFFCURVE",
"386 693 CURVE SMOOTH",
"549 693 OFFCURVE",
"645 551 OFFCURVE",
"645 346 CURVE SMOOTH",
"645 141 OFFCURVE",
"536 0 OFFCURVE",
"372 0 CURVE SMOOTH",
"209 0 OFFCURVE",
"117 141 OFFCURVE",
"117 346 CURVE SMOOTH"
);
},
{
closed = 1;
nodes = (
"27 142 OFFCURVE",
"188 -10 OFFCURVE",
"376 -10 CURVE SMOOTH",
"564 -10 OFFCURVE",
"734 142 OFFCURVE",
"734 346 CURVE SMOOTH",
"734 551 OFFCURVE",
"570 703 OFFCURVE",
"382 703 CURVE SMOOTH",
"194 703 OFFCURVE",
"27 555 OFFCURVE",
"27 346 CURVE SMOOTH"
);
}
);
};
layerId = "8A94DEEB-6D15-4327-81AA-AA1EEC67EE81";
name = "Oct 18 17, 12:45";
paths = (
{
closed = 1;
nodes = (
"576 -10 OFFCURVE",
"722 143 OFFCURVE",
"722 346 CURVE SMOOTH",
"722 549 OFFCURVE",
"576 702 OFFCURVE",
"381 702 CURVE SMOOTH",
"186 702 OFFCURVE",
"40 549 OFFCURVE",
"40 346 CURVE SMOOTH",
"40 143 OFFCURVE",
"186 -10 OFFCURVE",
"381 -10 CURVE SMOOTH"
);
},
{
closed = 1;
nodes = (
"235 80 OFFCURVE",
"126 194 OFFCURVE",
"126 346 CURVE SMOOTH",
"126 500 OFFCURVE",
"235 616 OFFCURVE",
"381 616 CURVE SMOOTH",
"527 616 OFFCURVE",
"636 500 OFFCURVE",
"636 346 CURVE SMOOTH",
"636 194 OFFCURVE",
"527 80 OFFCURVE",
"381 80 CURVE SMOOTH"
);
},
{
closed = 1;
nodes = (
"576 -10 OFFCURVE",
"722 143 OFFCURVE",
"722 346 CURVE SMOOTH",
"722 549 OFFCURVE",
"576 702 OFFCURVE",
"381 702 CURVE SMOOTH",
"186 702 OFFCURVE",
"40 549 OFFCURVE",
"40 346 CURVE SMOOTH",
"40 143 OFFCURVE",
"186 -10 OFFCURVE",
"381 -10 CURVE SMOOTH"
);
},
{
closed = 1;
nodes = (
"235 80 OFFCURVE",
"126 194 OFFCURVE",
"126 346 CURVE SMOOTH",
"126 500 OFFCURVE",
"235 616 OFFCURVE",
"381 616 CURVE SMOOTH",
"527 616 OFFCURVE",
"636 500 OFFCURVE",
"636 346 CURVE SMOOTH",
"636 194 OFFCURVE",
"527 80 OFFCURVE",
"381 80 CURVE SMOOTH"
);
}
);
width = 762;
},
{
associatedMasterId = "8007C042-6FBA-4E49-99B8-8B738A4EBE86";
background = {
paths = (
{
closed = 1;
nodes = (
"129 551 OFFCURVE",
"234 693 OFFCURVE",
"398 693 CURVE SMOOTH",
"561 693 OFFCURVE",
"657 551 OFFCURVE",
"657 346 CURVE SMOOTH",
"657 141 OFFCURVE",
"548 0 OFFCURVE",
"384 0 CURVE SMOOTH",
"221 0 OFFCURVE",
"129 141 OFFCURVE",
"129 346 CURVE SMOOTH"
);
},
{
closed = 1;
nodes = (
"39 142 OFFCURVE",
"200 -10 OFFCURVE",
"388 -10 CURVE SMOOTH",
"576 -10 OFFCURVE",
"746 142 OFFCURVE",
"746 346 CURVE SMOOTH",
"746 551 OFFCURVE",
"582 703 OFFCURVE",
"394 703 CURVE SMOOTH",
"206 703 OFFCURVE",
"39 555 OFFCURVE",
"39 346 CURVE SMOOTH"
);
}
);
};
layerId = "83CA2717-A160-4828-86A0-9366DF98647D";
name = "Oct 25 17, 19:30";
paths = (
{
closed = 1;
nodes = (
"610 -10 OFFCURVE",
"738 122 OFFCURVE",
"738 346 CURVE SMOOTH",
"738 570 OFFCURVE",
"610 702 OFFCURVE",
"393 702 CURVE SMOOTH",
"176 702 OFFCURVE",
"48 570 OFFCURVE",
"48 346 CURVE SMOOTH",
"48 122 OFFCURVE",
"176 -10 OFFCURVE",
"393 -10 CURVE SMOOTH"
);
},
{
closed = 1;
nodes = (
"228 76 OFFCURVE",
"130 176 OFFCURVE",
"130 346 CURVE SMOOTH",
"130 517 OFFCURVE",
"228 618 OFFCURVE",
"393 618 CURVE SMOOTH",
"558 618 OFFCURVE",
"656 517 OFFCURVE",
"656 346 CURVE SMOOTH",
"656 176 OFFCURVE",
"558 76 OFFCURVE",
"393 76 CURVE SMOOTH"
);
},
{
closed = 1;
nodes = (
"610 -10 OFFCURVE",
"738 122 OFFCURVE",
"738 346 CURVE SMOOTH",
"738 570 OFFCURVE",
"610 702 OFFCURVE",
"393 702 CURVE SMOOTH",
"176 702 OFFCURVE",
"48 570 OFFCURVE",
"48 346 CURVE SMOOTH",
"48 122 OFFCURVE",
"176 -10 OFFCURVE",
"393 -10 CURVE SMOOTH"
);
},
{
closed = 1;
nodes = (
"228 76 OFFCURVE",
"130 176 OFFCURVE",
"130 346 CURVE SMOOTH",
"130 517 OFFCURVE",
"228 618 OFFCURVE",
"393 618 CURVE SMOOTH",
"558 618 OFFCURVE",
"656 517 OFFCURVE",
"656 346 CURVE SMOOTH",
"656 176 OFFCURVE",
"558 76 OFFCURVE",
"393 76 CURVE SMOOTH"
);
}
);
width = 786;
},
{
anchors = (
{
name = center;
position = "{352, 329}";
},
{
name = top;
position = "{352, 646}";
}
);
layerId = "ADDE491E-C0C4-4659-943C-53377B387F47";
paths = (
{
closed = 1;
nodes = (
"540 -12 OFFCURVE",
"676 130 OFFCURVE",
"676 325 CURVE SMOOTH",
"676 520 OFFCURVE",
"540 662 OFFCURVE",
"352 662 CURVE SMOOTH",
"164 662 OFFCURVE",
"28 520 OFFCURVE",
"28 325 CURVE SMOOTH",
"28 130 OFFCURVE",
"164 -12 OFFCURVE",
"352 -12 CURVE SMOOTH"
);
},
{
closed = 1;
nodes = (
"255 132 OFFCURVE",
"184 215 OFFCURVE",
"184 327 CURVE SMOOTH",
"184 441 OFFCURVE",
"255 522 OFFCURVE",
"352 522 CURVE SMOOTH",
"449 522 OFFCURVE",
"520 441 OFFCURVE",
"520 327 CURVE SMOOTH",
"520 215 OFFCURVE",
"449 132 OFFCURVE",
"352 132 CURVE SMOOTH"
);
}
);
width = 704;
},
{
anchors = (
{
name = center;
position = "{352, 329}";
},
{
name = top;
position = "{352, 630}";
}
);
components = (
{
name = inkcurve;
transform = "{1, 0, 0, 1, 50, -268}";
},
{
name = inkcurve;
transform = "{1, 0, 0, -1, 52, 919}";
},
{
name = inkcurve;
transform = "{0, -1, -1, 0, 922, 626}";
},
{
name = inkcurve;
transform = "{0, -1, 1, 0, -218, 626}";
},
{
name = inkstem_S;
transform = "{1, 0, 0, 1, 246, 234}";
},
{
name = inkstem_S;
transform = "{1, 0, 0, 1, 248, -182}";
},
{
name = inkstem_S;
transform = "{1, 0, 0, 1, -144, 234}";
},
{
name = inkstem_S;
transform = "{1, 0, 0, 1, -146, -182}";
}
);
layerId = m003;
paths = (
{
closed = 1;
nodes = (
"535 -12 OFFCURVE",
"668 130 OFFCURVE",
"668 325 CURVE SMOOTH",
"668 520 OFFCURVE",
"535 662 OFFCURVE",
"352 662 CURVE SMOOTH",
"169 662 OFFCURVE",
"36 520 OFFCURVE",
"36 325 CURVE SMOOTH",
"36 130 OFFCURVE",
"169 -12 OFFCURVE",
"352 -12 CURVE SMOOTH"
);
},
{
closed = 1;
nodes = (
"220 72 OFFCURVE",
"124 178 OFFCURVE",
"124 325 CURVE SMOOTH",
"124 473 OFFCURVE",
"220 580 OFFCURVE",
"352 580 CURVE SMOOTH",
"484 580 OFFCURVE",
"580 473 OFFCURVE",
"580 325 CURVE SMOOTH",
"580 178 OFFCURVE",
"484 72 OFFCURVE",
"352 72 CURVE SMOOTH"
);
}
);
width = 704;
}
);
leftKerningGroup = O;
rightKerningGroup = O;
unicode = 004F;
},
{
glyphname = Oslash;
lastChange = "2021-05-16 11:24:42 +0000";
layers = (
{
components = (
{
name = O;
}
);
layerId = "8007C042-6FBA-4E49-99B8-8B738A4EBE86";
paths = (
{
closed = 1;
nodes = (
"120 -15 LINE",
"660 629 LINE",
"600 679 LINE",
"60 35 LINE"
);
}
);
width = 704;
},
{
associatedMasterId = "8007C042-6FBA-4E49-99B8-8B738A4EBE86";
components = (
{
name = O;
}
);
layerId = "E25C2343-78DC-479B-972F-1A31FBA3A7C9";
name = "Jun 6 20, 21:30";
paths = (
{
closed = 1;
nodes = (
"88 4 LINE",
"152 -42 LINE",
"648 636 LINE",
"586 682 LINE"
);
}
);
width = 730;
},
{
components = (
{
name = O;
}
);
layerId = "ADDE491E-C0C4-4659-943C-53377B387F47";
paths = (
{
closed = 1;
nodes = (
"52 36 LINE",
"136 -32 LINE",
"652 616 LINE",
"570 684 LINE"
);
}
);
width = 704;
},
{
components = (
{
name = inkcurve;
transform = "{1, 0, 0, 1, 50, -268}";
},
{
name = inkcurve;
transform = "{1, 0, 0, -1, 52, 919}";
},
{
name = inkcurve;
transform = "{0, -1, -1, 0, 922, 626}";
},
{
name = inkcurve;
transform = "{0, -1, 1, 0, -218, 626}";
},
{
name = inkstem_S;
transform = "{1, 0, 0, 1, 248, -182}";
},
{
name = inkstem_S;
transform = "{1, 0, 0, 1, -144, 234}";
},
{
name = inkstem_S;
transform = "{-1, 0, 0, 1, 743, 132}";
},
{
name = inkstem_M;
transform = "{0.76604, -0.64279, 0.64279, 0.76604, -102, 248}";
}
);
layerId = m003;
paths = (
{
closed = 1;
nodes = (
"503 606 OFFCURVE",
"521 616 OFFCURVE",
"500 627 CURVE SMOOTH",
"456 649 OFFCURVE",
"407 662 OFFCURVE",
"352 662 CURVE SMOOTH",
"169 662 OFFCURVE",
"36 520 OFFCURVE",
"36 325 CURVE SMOOTH",
"36 235 OFFCURVE",
"64 156 OFFCURVE",
"113 98 CURVE",
"60 35 LINE",
"120 -15 LINE",
"149 19 LINE SMOOTH",
"163 35 OFFCURVE",
"146 39 OFFCURVE",
"146 62 CURVE SMOOTH",
"146 78 OFFCURVE",
"158 90 OFFCURVE",
"174 90 CURVE SMOOTH",
"190 90 OFFCURVE",
"202 78 OFFCURVE",
"202 62 CURVE SMOOTH",
"202 45 OFFCURVE",
"186 33 OFFCURVE",
"204 23 CURVE SMOOTH",
"248 0 OFFCURVE",
"297 -12 OFFCURVE",
"352 -12 CURVE SMOOTH",
"535 -12 OFFCURVE",
"668 130 OFFCURVE",
"668 325 CURVE SMOOTH",
"668 414 OFFCURVE",
"641 491 OFFCURVE",
"593 550 CURVE",
"660 629 LINE",
"600 679 LINE",
"558 628 LINE SMOOTH",
"542 608 OFFCURVE",
"559 606 OFFCURVE",
"559 586 CURVE SMOOTH",
"559 570 OFFCURVE",
"548 558 OFFCURVE",
"532 558 CURVE SMOOTH",
"515 558 OFFCURVE",
"503 570 OFFCURVE",
"503 586 CURVE SMOOTH"
);
},
{
closed = 1;
nodes = (
"134 236 OFFCURVE",
"124 278 OFFCURVE",
"124 325 CURVE SMOOTH",
"124 473 OFFCURVE",
"220 580 OFFCURVE",
"352 580 CURVE SMOOTH",
"401 580 OFFCURVE",
"446 565 OFFCURVE",
"482 538 CURVE",
"198 200 LINE SMOOTH",
"186 186 OFFCURVE",
"202 174 OFFCURVE",
"202 160 CURVE SMOOTH",
"202 144 OFFCURVE",
"190 132 OFFCURVE",
"174 132 CURVE SMOOTH",
"158 132 OFFCURVE",
"146 144 OFFCURVE",
"146 160 CURVE SMOOTH",
"146 180 OFFCURVE",
"159 181 OFFCURVE",
"151 199 CURVE SMOOTH"
);
},
{
closed = 1;
nodes = (
"521 463 OFFCURVE",
"504 471 OFFCURVE",
"504 492 CURVE SMOOTH",
"504 508 OFFCURVE",
"516 520 OFFCURVE",
"532 520 CURVE SMOOTH",
"548 520 OFFCURVE",
"560 508 OFFCURVE",
"560 492 CURVE SMOOTH",
"560 474 OFFCURVE",
"547 465 OFFCURVE",
"553 451 CURVE SMOOTH",
"570 414 OFFCURVE",
"580 371 OFFCURVE",
"580 325 CURVE SMOOTH",
"580 178 OFFCURVE",
"484 72 OFFCURVE",
"352 72 CURVE SMOOTH",
"304 72 OFFCURVE",
"261 86 OFFCURVE",
"225 111 CURVE",
"509 449 LINE SMOOTH"
);
}
);
width = 704;
}
);
leftKerningGroup = O;
leftMetricsKey = O;
rightKerningGroup = O;
rightMetricsKey = O;
unicode = 00D8;
},
{
glyphname = OE;
lastChange = "2021-05-16 11:24:47 +0000";
layers = (
{
layerId = "8007C042-6FBA-4E49-99B8-8B738A4EBE86";
paths = (
{
closed = 1;
nodes = (
"447 -12 OFFCURVE",
"534 28 OFFCURVE",
"582 100 CURVE",
"582 548 LINE",
"534 620 OFFCURVE",
"447 662 OFFCURVE",
"347 662 CURVE SMOOTH",
"167 662 OFFCURVE",
"36 520 OFFCURVE",
"36 325 CURVE SMOOTH",
"36 130 OFFCURVE",
"167 -12 OFFCURVE",
"347 -12 CURVE SMOOTH"
);
},
{
closed = 1;
nodes = (
"220 72 OFFCURVE",
"124 178 OFFCURVE",
"124 325 CURVE SMOOTH",
"124 473 OFFCURVE",
"220 580 OFFCURVE",
"353 580 CURVE SMOOTH",
"486 580 OFFCURVE",
"582 475 OFFCURVE",
"582 325 CURVE SMOOTH",
"582 176 OFFCURVE",
"486 72 OFFCURVE",
"353 72 CURVE SMOOTH"
);
},
{
closed = 1;
nodes = (
"1026 0 LINE",
"1026 82 LINE",
"646 82 LINE",
"646 0 LINE"
);
},
{
closed = 1;
nodes = (
"666 0 LINE",
"666 650 LINE",
"582 650 LINE",
"582 0 LINE"
);
},
{
closed = 1;
nodes = (
"974 293 LINE",
"974 371 LINE",
"646 371 LINE",
"646 293 LINE"
);
},
{
closed = 1;
nodes = (
"1014 570 LINE",
"1014 650 LINE",
"646 650 LINE",
"646 570 LINE"
);
}
);
width = 1058;
},
{
layerId = "ADDE491E-C0C4-4659-943C-53377B387F47";
paths = (
{
closed = 1;
nodes = (
"404 -12 OFFCURVE",
"480 16 OFFCURVE",
"512 54 CURVE",
"512 596 LINE",
"480 634 OFFCURVE",
"404 662 OFFCURVE",
"332 662 CURVE SMOOTH",
"156 662 OFFCURVE",
"28 517 OFFCURVE",
"28 325 CURVE SMOOTH",
"28 133 OFFCURVE",
"156 -12 OFFCURVE",
"332 -12 CURVE SMOOTH"
);
},
{
closed = 1;
nodes = (
"251 132 OFFCURVE",
"184 215 OFFCURVE",
"184 327 CURVE SMOOTH",
"184 441 OFFCURVE",
"251 522 OFFCURVE",
"348 522 CURVE SMOOTH",
"445 522 OFFCURVE",
"512 441 OFFCURVE",
"512 327 CURVE SMOOTH",
"512 215 OFFCURVE",
"445 132 OFFCURVE",
"348 132 CURVE SMOOTH"
);
},
{
closed = 1;
nodes = (
"976 0 LINE",
"976 136 LINE",
"640 136 LINE",
"640 0 LINE"
);
},
{
closed = 1;
nodes = (
"660 0 LINE",
"660 650 LINE",
"512 650 LINE",
"512 0 LINE"
);
},
{
closed = 1;
nodes = (
"916 281 LINE",
"916 383 LINE",
"640 383 LINE",
"640 281 LINE"
);
},
{
closed = 1;
nodes = (
"968 518 LINE",
"968 650 LINE",
"640 650 LINE",
"640 518 LINE"
);
}
);
width = 992;
},
{
components = (
{
name = inkstem_M;
transform = "{0, -1, 1, 0, 502, 910}";
},
{
name = inkstem_L;
transform = "{0, -1, 1, 0, 504, 342}";
},
{
name = inkstem_M;
transform = "{0, -1, 1, 0, 578, 632}";
},
{
name = inkstem_S;
transform = "{1, 0, 0, 1, 656, 310}";
},
{
name = inkstem_S;
transform = "{1, 0, 0, 1, 664, -258}";
},
{
name = inkcurve;
transform = "{1, 0, 0, 1, 54, -268}";
},
{
name = inkcurve;
transform = "{1, 0, 0, -1, 56, 919}";
},
{
name = inkcurve;
transform = "{0, -1, 1, 0, -218, 626}";
},
{
name = inkstem_S;
transform = "{1, 0, 0, 1, -142, 236}";
},
{
name = inkstem_S;
transform = "{1, 0, 0, 1, -144, -184}";
}
);
layerId = m003;
paths = (
{
closed = 1;
nodes = (
"448 -12 OFFCURVE",
"546 38 OFFCURVE",
"564 92 CURVE SMOOTH",
"569 108 OFFCURVE",
"559 112 OFFCURVE",
"559 128 CURVE SMOOTH",
"559 144 OFFCURVE",
"571 156 OFFCURVE",
"587 156 CURVE SMOOTH",
"603 156 OFFCURVE",
"615 144 OFFCURVE",
"615 128 CURVE SMOOTH",
"615 115 OFFCURVE",
"607 104 OFFCURVE",
"595 101 CURVE SMOOTH",
"584 98 OFFCURVE",
"582 96 OFFCURVE",
"582 82 CURVE SMOOTH",
"582 0 LINE",
"1026 0 LINE",
"1026 82 LINE",
"709 82 LINE SMOOTH",
"701 82 OFFCURVE",
"694 77 OFFCURVE",
"691 69 CURVE SMOOTH",
"687 60 OFFCURVE",
"677 54 OFFCURVE",
"666 54 CURVE SMOOTH",
"650 54 OFFCURVE",
"638 66 OFFCURVE",
"638 82 CURVE SMOOTH",
"638 93 OFFCURVE",
"644 103 OFFCURVE",
"653 107 CURVE SMOOTH",
"661 110 OFFCURVE",
"666 117 OFFCURVE",
"666 125 CURVE SMOOTH",
"666 249 LINE SMOOTH",
"666 257 OFFCURVE",
"661 264 OFFCURVE",
"653 267 CURVE SMOOTH",
"644 271 OFFCURVE",
"638 281 OFFCURVE",
"638 292 CURVE SMOOTH",
"638 308 OFFCURVE",
"650 320 OFFCURVE",
"666 320 CURVE SMOOTH",
"677 320 OFFCURVE",
"687 314 OFFCURVE",
"691 305 CURVE SMOOTH",
"694 297 OFFCURVE",
"701 292 OFFCURVE",
"709 292 CURVE SMOOTH",
"974 293 LINE",
"974 371 LINE",
"709 371 LINE SMOOTH",
"701 371 OFFCURVE",
"694 366 OFFCURVE",
"691 358 CURVE SMOOTH",
"687 349 OFFCURVE",
"677 343 OFFCURVE",
"666 343 CURVE SMOOTH",
"650 343 OFFCURVE",
"638 355 OFFCURVE",
"638 371 CURVE SMOOTH",
"638 382 OFFCURVE",
"644 392 OFFCURVE",
"653 396 CURVE SMOOTH",
"661 399 OFFCURVE",
"666 406 OFFCURVE",
"666 414 CURVE SMOOTH",
"666 527 LINE SMOOTH",
"666 535 OFFCURVE",
"661 542 OFFCURVE",
"653 545 CURVE SMOOTH",
"644 549 OFFCURVE",
"638 559 OFFCURVE",
"638 570 CURVE SMOOTH",
"638 586 OFFCURVE",
"650 598 OFFCURVE",
"666 598 CURVE SMOOTH",
"677 598 OFFCURVE",
"687 592 OFFCURVE",
"691 583 CURVE SMOOTH",
"694 575 OFFCURVE",
"701 570 OFFCURVE",
"709 570 CURVE SMOOTH",
"1014 570 LINE",
"1014 650 LINE",
"582 650 LINE",
"582 568 LINE SMOOTH",
"582 554 OFFCURVE",
"584 552 OFFCURVE",
"595 549 CURVE SMOOTH",
"607 546 OFFCURVE",
"615 535 OFFCURVE",
"615 522 CURVE SMOOTH",
"615 506 OFFCURVE",
"603 494 OFFCURVE",
"587 494 CURVE SMOOTH",
"571 494 OFFCURVE",
"559 506 OFFCURVE",
"559 522 CURVE SMOOTH",
"559 538 OFFCURVE",
"569 542 OFFCURVE",
"564 558 CURVE SMOOTH",
"546 612 OFFCURVE",
"448 662 OFFCURVE",
"348 662 CURVE SMOOTH",
"168 662 OFFCURVE",
"36 523 OFFCURVE",
"36 325 CURVE SMOOTH",
"36 127 OFFCURVE",
"168 -12 OFFCURVE",
"348 -12 CURVE SMOOTH"
);
},
{
closed = 1;
nodes = (
"220 68 OFFCURVE",
"124 176 OFFCURVE",
"124 325 CURVE SMOOTH",
"124 475 OFFCURVE",
"220 584 OFFCURVE",
"353 584 CURVE SMOOTH",
"486 584 OFFCURVE",
"582 475 OFFCURVE",
"582 325 CURVE SMOOTH",
"582 176 OFFCURVE",
"486 68 OFFCURVE",
"353 68 CURVE SMOOTH"
);
}
);
width = 1058;
}
);
leftKerningGroup = O;
leftMetricsKey = O;
rightKerningGroup = E;
rightMetricsKey = E;
unicode = 0152;
},
{
color = 10;
glyphname = P;
lastChange = "2021-05-16 10:49:15 +0000";
layers = (
{
layerId = "8007C042-6FBA-4E49-99B8-8B738A4EBE86";
paths = (
{
closed = 1;
nodes = (
"338 240 LINE SMOOTH",
"457 240 OFFCURVE",
"544 327 OFFCURVE",
"544 446 CURVE SMOOTH",
"544 564 OFFCURVE",
"459 650 OFFCURVE",
"342 650 CURVE SMOOTH",
"132 650 LINE",
"132 570 LINE",
"338 570 LINE SMOOTH",
"406 570 OFFCURVE",
"456 518 OFFCURVE",
"456 445 CURVE SMOOTH",
"456 372 OFFCURVE",
"406 320 OFFCURVE",
"338 320 CURVE SMOOTH",
"132 320 LINE",
"132 240 LINE"
);
},
{
closed = 1;
nodes = (
"152 0 LINE",
"152 650 LINE",
"68 650 LINE",
"68 0 LINE"
);
}
);
width = 564;
},
{
layerId = "ADDE491E-C0C4-4659-943C-53377B387F47";
paths = (
{
closed = 1;
nodes = (
"348 232 LINE SMOOTH",
"478 232 OFFCURVE",
"572 319 OFFCURVE",
"572 440 CURVE SMOOTH",
"572 562 OFFCURVE",
"483 650 OFFCURVE",
"360 650 CURVE SMOOTH",
"180 650 LINE",
"180 516 LINE",
"334 516 LINE SMOOTH",
"382 516 OFFCURVE",
"416 479 OFFCURVE",
"416 428 CURVE SMOOTH",
"416 377 OFFCURVE",
"382 340 OFFCURVE",
"334 340 CURVE SMOOTH",
"180 340 LINE",
"180 232 LINE"
);
},
{
closed = 1;
nodes = (
"200 0 LINE",
"200 650 LINE",
"52 650 LINE",
"52 0 LINE"
);
}
);
width = 584;
},
{
components = (
{
name = inkstem_M;
transform = "{0, -1, 1, 0, 0, 910}";
},
{
name = inkcurve;
transform = "{0, -1, -1, 0, 798, 740}";
},
{
name = inkstem_S;
transform = "{1, 0, 0, 1, 144, 270}";
},
{
name = inkstem_S;
transform = "{1, 0, 0, 1, 136, 12}";
},
{
name = inkstem_S;
transform = "{1, 0, 0, 1, 22, -20}";
},
{
name = inkstem_M;
transform = "{-1, 0, 0, -1, 410, 390}";
}
);
layerId = m003;
paths = (
{
closed = 1;
nodes = (
"152 0 LINE",
"152 197 LINE SMOOTH",
"152 205 OFFCURVE",
"147 212 OFFCURVE",
"139 215 CURVE SMOOTH",
"130 219 OFFCURVE",
"124 229 OFFCURVE",
"124 240 CURVE SMOOTH",
"124 256 OFFCURVE",
"136 268 OFFCURVE",
"152 268 CURVE SMOOTH",
"163 268 OFFCURVE",
"173 262 OFFCURVE",
"177 253 CURVE SMOOTH",
"180 245 OFFCURVE",
"187 240 OFFCURVE",
"195 240 CURVE SMOOTH",
"338 240 LINE SMOOTH",
"457 240 OFFCURVE",
"544 327 OFFCURVE",
"544 446 CURVE SMOOTH",
"544 564 OFFCURVE",
"459 650 OFFCURVE",
"342 650 CURVE SMOOTH",
"68 650 LINE",
"68 0 LINE"
);
},
{
closed = 1;
nodes = (
"136 292 OFFCURVE",
"124 304 OFFCURVE",
"124 320 CURVE SMOOTH",
"124 331 OFFCURVE",
"130 341 OFFCURVE",
"139 345 CURVE SMOOTH",
"147 348 OFFCURVE",
"152 355 OFFCURVE",
"152 363 CURVE SMOOTH",
"152 527 LINE SMOOTH",
"152 535 OFFCURVE",
"147 542 OFFCURVE",
"139 545 CURVE SMOOTH",
"130 549 OFFCURVE",
"124 559 OFFCURVE",
"124 570 CURVE SMOOTH",
"124 586 OFFCURVE",
"136 598 OFFCURVE",
"152 598 CURVE SMOOTH",
"163 598 OFFCURVE",
"173 592 OFFCURVE",
"177 583 CURVE SMOOTH",
"180 575 OFFCURVE",
"187 570 OFFCURVE",
"195 570 CURVE SMOOTH",
"338 570 LINE SMOOTH",
"406 570 OFFCURVE",
"456 518 OFFCURVE",
"456 445 CURVE SMOOTH",
"456 372 OFFCURVE",
"406 320 OFFCURVE",
"338 320 CURVE SMOOTH",
"195 320 LINE SMOOTH",
"187 320 OFFCURVE",
"180 315 OFFCURVE",
"177 307 CURVE SMOOTH",
"173 298 OFFCURVE",
"163 292 OFFCURVE",
"152 292 CURVE SMOOTH"
);
}
);
width = 564;
}
);
leftKerningGroup = l;
leftMetricsKey = l;
rightKerningGroup = P;
unicode = 0050;
},
{
color = 10;
glyphname = Thorn;
lastChange = "2021-05-16 11:24:52 +0000";
layers = (
{
layerId = "8007C042-6FBA-4E49-99B8-8B738A4EBE86";
paths = (
{
closed = 1;
nodes = (
"342 127 LINE SMOOTH",
"459 127 OFFCURVE",
"544 214 OFFCURVE",
"544 333 CURVE SMOOTH",
"544 451 OFFCURVE",
"459 537 OFFCURVE",
"342 537 CURVE SMOOTH",
"132 537 LINE",
"132 457 LINE",
"338 457 LINE SMOOTH",
"406 457 OFFCURVE",
"456 405 OFFCURVE",
"456 332 CURVE SMOOTH",
"456 259 OFFCURVE",
"405 207 OFFCURVE",
"334 207 CURVE SMOOTH",
"132 207 LINE",
"132 127 LINE"
);
},
{
closed = 1;
nodes = (
"152 0 LINE",
"152 650 LINE",
"68 650 LINE",
"68 0 LINE"
);
}
);
width = 572;
},
{
layerId = "ADDE491E-C0C4-4659-943C-53377B387F47";
paths = (
{
closed = 1;
nodes = (
"350 119 LINE SMOOTH",
"479 119 OFFCURVE",
"572 208 OFFCURVE",
"572 332 CURVE SMOOTH",
"572 456 OFFCURVE",
"482 545 OFFCURVE",
"358 545 CURVE SMOOTH",
"180 545 LINE",
"180 413 LINE",
"334 413 LINE SMOOTH",
"382 413 OFFCURVE",
"416 380 OFFCURVE",
"416 334 CURVE SMOOTH",
"416 288 OFFCURVE",
"382 255 OFFCURVE",
"334 255 CURVE SMOOTH",
"180 255 LINE",
"180 119 LINE"
);
},
{
closed = 1;
nodes = (
"200 0 LINE",
"200 650 LINE",
"52 650 LINE",
"52 0 LINE"
);
}
);
width = 596;
},
{
components = (
{
name = inkstem_M;
transform = "{0, -1, 1, 0, 0, 797}";
},
{
name = inkcurve;
transform = "{0, -1, -1, 0, 798, 627}";
},
{
name = inkstem_S;
transform = "{1, 0, 0, 1, 144, 157}";
},
{
name = inkstem_S;
transform = "{1, 0, 0, 1, 136, -101}";
},
{
name = inkstem_S;
transform = "{1, 0, 0, 1, 22, -133}";
}
);
layerId = m003;
paths = (
{
closed = 1;
nodes = (
"152 0 LINE",
"152 84 LINE SMOOTH",
"152 92 OFFCURVE",
"147 99 OFFCURVE",
"139 102 CURVE SMOOTH",
"130 106 OFFCURVE",
"124 116 OFFCURVE",
"124 127 CURVE SMOOTH",
"124 143 OFFCURVE",
"136 155 OFFCURVE",
"152 155 CURVE SMOOTH",
"163 155 OFFCURVE",
"173 149 OFFCURVE",
"177 140 CURVE SMOOTH",
"180 132 OFFCURVE",
"187 127 OFFCURVE",
"195 127 CURVE SMOOTH",
"342 127 LINE SMOOTH",
"459 127 OFFCURVE",
"544 214 OFFCURVE",
"544 333 CURVE SMOOTH",
"544 451 OFFCURVE",
"459 537 OFFCURVE",
"342 537 CURVE SMOOTH",
"195 537 LINE SMOOTH",
"187 537 OFFCURVE",
"180 532 OFFCURVE",
"177 524 CURVE SMOOTH",
"173 515 OFFCURVE",
"163 509 OFFCURVE",
"152 509 CURVE SMOOTH",
"136 509 OFFCURVE",
"124 521 OFFCURVE",
"124 537 CURVE SMOOTH",
"124 548 OFFCURVE",
"130 558 OFFCURVE",
"139 562 CURVE SMOOTH",
"147 565 OFFCURVE",
"152 572 OFFCURVE",
"152 580 CURVE SMOOTH",
"152 650 LINE",
"68 650 LINE",
"68 0 LINE"
);
},
{
closed = 1;
nodes = (
"136 179 OFFCURVE",
"124 191 OFFCURVE",
"124 207 CURVE SMOOTH",
"124 218 OFFCURVE",
"130 228 OFFCURVE",
"139 232 CURVE SMOOTH",
"147 235 OFFCURVE",
"152 242 OFFCURVE",
"152 250 CURVE SMOOTH",
"152 414 LINE SMOOTH",
"152 422 OFFCURVE",
"147 429 OFFCURVE",
"139 432 CURVE SMOOTH",
"130 436 OFFCURVE",
"124 446 OFFCURVE",
"124 457 CURVE SMOOTH",
"124 473 OFFCURVE",
"136 485 OFFCURVE",
"152 485 CURVE SMOOTH",
"163 485 OFFCURVE",
"173 479 OFFCURVE",
"177 470 CURVE SMOOTH",
"180 462 OFFCURVE",
"187 457 OFFCURVE",
"195 457 CURVE SMOOTH",
"338 457 LINE SMOOTH",
"406 457 OFFCURVE",
"456 405 OFFCURVE",
"456 332 CURVE SMOOTH",
"456 259 OFFCURVE",
"405 207 OFFCURVE",
"334 207 CURVE SMOOTH",
"195 207 LINE SMOOTH",
"187 207 OFFCURVE",
"180 202 OFFCURVE",
"177 194 CURVE SMOOTH",
"173 185 OFFCURVE",
"163 179 OFFCURVE",
"152 179 CURVE SMOOTH"
);
}
);
width = 572;
}
);
leftKerningGroup = l;
leftMetricsKey = l;
unicode = 00DE;
},
{
glyphname = Q;
lastChange = "2021-05-16 10:49:26 +0000";
layers = (
{
layerId = "8007C042-6FBA-4E49-99B8-8B738A4EBE86";
paths = (
{
closed = 1;
nodes = (
"535 -12 OFFCURVE",
"668 130 OFFCURVE",
"668 325 CURVE SMOOTH",
"668 520 OFFCURVE",
"535 662 OFFCURVE",
"352 662 CURVE SMOOTH",
"169 662 OFFCURVE",
"36 520 OFFCURVE",
"36 325 CURVE SMOOTH",
"36 130 OFFCURVE",
"169 -12 OFFCURVE",
"352 -12 CURVE SMOOTH"
);
},
{
closed = 1;
nodes = (
"648 0 LINE",
"556 116 LINE",
"436 284 LINE",
"358 390 LINE",
"292 334 LINE",
"370 232 LINE",
"496 68 LINE",
"580 -52 LINE"
);
},
{
closed = 1;
nodes = (
"220 72 OFFCURVE",
"124 178 OFFCURVE",
"124 325 CURVE SMOOTH",
"124 473 OFFCURVE",
"220 580 OFFCURVE",
"352 580 CURVE SMOOTH",
"484 580 OFFCURVE",
"580 473 OFFCURVE",
"580 325 CURVE SMOOTH",
"580 178 OFFCURVE",
"484 72 OFFCURVE",
"352 72 CURVE SMOOTH"
);
}
);
width = 704;
},
{
associatedMasterId = "8007C042-6FBA-4E49-99B8-8B738A4EBE86";
background = {
hints = (
{
horizontal = 1;
place = "{0, 78}";
type = Stem;
},
{
horizontal = 1;
place = "{653, 88}";
type = Stem;
},
{
place = "{47, 100}";
type = Stem;
},
{
place = "{667, 99}";
type = Stem;
},
{
horizontal = 1;
place = "{0, 87}";
type = Stem;
}
);
paths = (
{
closed = 1;
nodes = (
"40 129 OFFCURVE",
"177 -12 OFFCURVE",
"365 -12 CURVE SMOOTH",
"429 -12 OFFCURVE",
"484 4 OFFCURVE",
"532 36 CURVE",
"595 -50 LINE",
"657 2 LINE",
"593 84 LINE",
"649 140 OFFCURVE",
"690 229 OFFCURVE",
"690 325 CURVE SMOOTH",
"690 521 OFFCURVE",
"553 662 OFFCURVE",
"365 662 CURVE SMOOTH",
"177 662 OFFCURVE",
"40 521 OFFCURVE",
"40 325 CURVE SMOOTH"
);
},
{
closed = 1;
nodes = (
"128 473 OFFCURVE",
"229 580 OFFCURVE",
"365 580 CURVE SMOOTH",
"501 580 OFFCURVE",
"602 473 OFFCURVE",
"602 325 CURVE SMOOTH",
"602 257 OFFCURVE",
"581 197 OFFCURVE",
"545 153 CURVE",
"386 368 LINE",
"322 316 LINE",
"486 101 LINE",
"454 81 OFFCURVE",
"409 72 OFFCURVE",
"365 72 CURVE SMOOTH",
"229 72 OFFCURVE",
"128 179 OFFCURVE",
"128 325 CURVE SMOOTH"
);
}
);
};
layerId = "A3538124-F542-4AEF-B346-0B5187BDAD92";
name = "Apr 25 20, 18:13";
paths = (
{
closed = 1;
nodes = (
"586 -52 LINE",
"652 2 LINE",
"368 390 LINE",
"300 334 LINE"
);
},
{
closed = 1;
nodes = (
"556 -16 OFFCURVE",
"690 124 OFFCURVE",
"690 325 CURVE SMOOTH",
"690 526 OFFCURVE",
"556 666 OFFCURVE",
"365 666 CURVE SMOOTH",
"174 666 OFFCURVE",
"40 526 OFFCURVE",
"40 325 CURVE SMOOTH",
"40 124 OFFCURVE",
"174 -16 OFFCURVE",
"365 -16 CURVE SMOOTH"
);
},
{
closed = 1;
nodes = (
"226 68 OFFCURVE",
"128 174 OFFCURVE",
"128 325 CURVE SMOOTH",
"128 477 OFFCURVE",
"226 584 OFFCURVE",
"365 584 CURVE SMOOTH",
"504 584 OFFCURVE",
"602 477 OFFCURVE",
"602 325 CURVE SMOOTH",
"602 174 OFFCURVE",
"504 68 OFFCURVE",
"365 68 CURVE SMOOTH"
);
}
);
width = 730;
},
{
layerId = "ADDE491E-C0C4-4659-943C-53377B387F47";
paths = (
{
closed = 1;
nodes = (
"524 -12 OFFCURVE",
"676 141 OFFCURVE",
"676 325 CURVE SMOOTH",
"676 520 OFFCURVE",
"540 662 OFFCURVE",
"352 662 CURVE SMOOTH",
"164 662 OFFCURVE",
"28 520 OFFCURVE",
"28 325 CURVE SMOOTH",
"28 130 OFFCURVE",
"164 -12 OFFCURVE",
"352 -12 CURVE SMOOTH"
);
},
{
closed = 1;
nodes = (
"664 -8 LINE",
"548 144 LINE",
"442 288 LINE",
"368 388 LINE",
"284 320 LINE",
"358 220 LINE",
"468 76 LINE",
"576 -76 LINE"
);
},
{
closed = 1;
nodes = (
"252 132 OFFCURVE",
"180 213 OFFCURVE",
"180 325 CURVE SMOOTH",
"180 439 OFFCURVE",
"252 522 OFFCURVE",
"352 522 CURVE SMOOTH",
"452 522 OFFCURVE",
"524 439 OFFCURVE",
"524 325 CURVE SMOOTH",
"524 205 OFFCURVE",
"468 132 OFFCURVE",
"352 132 CURVE SMOOTH"
);
}
);
width = 704;
},
{
associatedMasterId = "ADDE491E-C0C4-4659-943C-53377B387F47";
components = (
{
name = O;
}
);
layerId = "008A971D-C5E3-4682-8C30-285CB1E500C5";
name = "Jun 16 20, 21:33";
paths = (
{
closed = 1;
nodes = (
"366 392 LINE",
"282 324 LINE",
"564 -62 LINE",
"652 6 LINE"
);
}
);
width = 704;
},
{
associatedMasterId = "ADDE491E-C0C4-4659-943C-53377B387F47";
layerId = "9CA6EAC6-B028-427F-BEAA-733AD02597B8";
name = "Jul 3 20, 11:08";
paths = (
{
closed = 1;
nodes = (
"524 -12 OFFCURVE",
"676 141 OFFCURVE",
"676 325 CURVE SMOOTH",
"676 520 OFFCURVE",
"540 662 OFFCURVE",
"352 662 CURVE SMOOTH",
"164 662 OFFCURVE",
"28 520 OFFCURVE",
"28 325 CURVE SMOOTH",
"28 130 OFFCURVE",
"164 -12 OFFCURVE",
"352 -12 CURVE SMOOTH"
);
},
{
closed = 1;
nodes = (
"252 132 OFFCURVE",
"180 213 OFFCURVE",
"180 325 CURVE SMOOTH",
"180 439 OFFCURVE",
"252 522 OFFCURVE",
"352 522 CURVE SMOOTH",
"452 522 OFFCURVE",
"524 439 OFFCURVE",
"524 325 CURVE SMOOTH",
"524 205 OFFCURVE",
"468 132 OFFCURVE",
"352 132 CURVE SMOOTH"
);
},
{
closed = 1;
nodes = (
"353 226 LINE SMOOTH",
"388 178 OFFCURVE",
"426 133 OFFCURVE",
"460 87 CURVE SMOOTH",
"496 38 OFFCURVE",
"529 -12 OFFCURVE",
"564 -62 CURVE",
"652 6 LINE",
"615 54 OFFCURVE",
"578 100 OFFCURVE",
"541 149 CURVE SMOOTH",
"504 198 OFFCURVE",
"473 247 OFFCURVE",
"437 296 CURVE SMOOTH",
"366 392 LINE",
"282 324 LINE"
);
}
);
width = 704;
},
{
associatedMasterId = "8007C042-6FBA-4E49-99B8-8B738A4EBE86";
background = {
hints = (
{
horizontal = 1;
place = "{0, 78}";
type = Stem;
},
{
horizontal = 1;
place = "{653, 88}";
type = Stem;
},
{
place = "{47, 100}";
type = Stem;
},
{
place = "{667, 99}";
type = Stem;
},
{
horizontal = 1;
place = "{0, 87}";
type = Stem;
}
);
paths = (
{
closed = 1;
nodes = (
"36 129 OFFCURVE",
"173 -12 OFFCURVE",
"361 -12 CURVE SMOOTH",
"425 -12 OFFCURVE",
"480 4 OFFCURVE",
"528 36 CURVE",
"591 -50 LINE",
"653 2 LINE",
"589 84 LINE",
"645 140 OFFCURVE",
"686 229 OFFCURVE",
"686 325 CURVE SMOOTH",
"686 521 OFFCURVE",
"549 662 OFFCURVE",
"361 662 CURVE SMOOTH",
"173 662 OFFCURVE",
"36 521 OFFCURVE",
"36 325 CURVE SMOOTH"
);
},
{
closed = 1;
nodes = (
"124 473 OFFCURVE",
"225 580 OFFCURVE",
"361 580 CURVE SMOOTH",
"497 580 OFFCURVE",
"598 473 OFFCURVE",
"598 325 CURVE SMOOTH",
"598 257 OFFCURVE",
"577 197 OFFCURVE",
"541 153 CURVE",
"382 368 LINE",
"318 316 LINE",
"482 101 LINE",
"450 81 OFFCURVE",
"405 72 OFFCURVE",
"361 72 CURVE SMOOTH",
"225 72 OFFCURVE",
"124 179 OFFCURVE",
"124 325 CURVE SMOOTH"
);
}
);
};
components = (
{
name = O;
}
);
layerId = "D08FD94D-E602-46C7-ACF0-41287AE79BAB";
name = "Aug 23 20, 11:41";
paths = (
{
closed = 1;
nodes = (
"578 -52 LINE",
"644 2 LINE",
"360 390 LINE",
"292 334 LINE"
);
}
);
width = 704;
},
{
anchors = (
{
name = center;
position = "{352, 329}";
}
);
components = (
{
name = inkcurve;
transform = "{1, 0, 0, 1, 50, -268}";
},
{
name = inkcurve;
transform = "{1, 0, 0, -1, 52, 919}";
},
{
name = inkcurve;
transform = "{0, -1, -1, 0, 922, 626}";
},
{
name = inkcurve;
transform = "{0, -1, 1, 0, -218, 626}";
},
{
name = inkstem_S;
transform = "{1, 0, 0, 1, 248, 234}";
},
{
name = inkstem_S;
transform = "{1, 0, 0, 1, -144, 234}";
},
{
name = inkstem_S;
transform = "{1, 0, 0, 1, -146, -182}";
},
{
name = inkstem_M;
transform = "{-0.79864, -0.60182, -0.60182, 0.79864, 804, 226}";
}
);
layerId = m003;
paths = (
{
closed = 1;
nodes = (
"494 39 OFFCURVE",
"494 41 OFFCURVE",
"494 44 CURVE SMOOTH",
"494 60 OFFCURVE",
"506 72 OFFCURVE",
"522 72 CURVE SMOOTH",
"538 72 OFFCURVE",
"550 60 OFFCURVE",
"550 44 CURVE SMOOTH",
"550 35 OFFCURVE",
"547 28 OFFCURVE",
"541 23 CURVE SMOOTH",
"536 19 OFFCURVE",
"535 12 OFFCURVE",
"540 5 CURVE SMOOTH",
"580 -52 LINE",
"648 0 LINE",
"580 85 LINE",
"635 145 OFFCURVE",
"668 229 OFFCURVE",
"668 325 CURVE SMOOTH",
"668 520 OFFCURVE",
"535 662 OFFCURVE",
"352 662 CURVE SMOOTH",
"169 662 OFFCURVE",
"36 520 OFFCURVE",
"36 325 CURVE SMOOTH",
"36 130 OFFCURVE",
"169 -12 OFFCURVE",
"352 -12 CURVE SMOOTH",
"401 -12 OFFCURVE",
"446 -2 OFFCURVE",
"486 17 CURVE SMOOTH",
"494 20 OFFCURVE",
"498 28 OFFCURVE",
"495 36 CURVE SMOOTH"
);
},
{
closed = 1;
nodes = (
"555 161 OFFCURVE",
"556 157 OFFCURVE",
"556 152 CURVE SMOOTH",
"556 136 OFFCURVE",
"544 124 OFFCURVE",
"528 124 CURVE SMOOTH",
"512 124 OFFCURVE",
"500 136 OFFCURVE",
"500 152 CURVE SMOOTH",
"500 155 OFFCURVE",
"500 156 OFFCURVE",
"501 159 CURVE SMOOTH",
"507 173 OFFCURVE",
"508 183 OFFCURVE",
"501 193 CURVE SMOOTH",
"436 284 LINE",
"358 390 LINE",
"292 334 LINE",
"468 104 LINE",
"435 83 OFFCURVE",
"395 72 OFFCURVE",
"352 72 CURVE SMOOTH",
"220 72 OFFCURVE",
"124 178 OFFCURVE",
"124 325 CURVE SMOOTH",
"124 473 OFFCURVE",
"220 580 OFFCURVE",
"352 580 CURVE SMOOTH",
"484 580 OFFCURVE",
"580 473 OFFCURVE",
"580 325 CURVE SMOOTH",
"580 275 OFFCURVE",
"572 236 OFFCURVE",
"552 198 CURVE SMOOTH",
"546 186 OFFCURVE",
"548 176 OFFCURVE",
"553 165 CURVE SMOOTH"
);
}
);
width = 704;
}
);
leftKerningGroup = O;
leftMetricsKey = O;
rightKerningGroup = O;
rightMetricsKey = O;
unicode = 0051;
},
{
color = 10;
glyphname = R;
lastChange = "2021-05-16 10:49:36 +0000";
layers = (
{
anchors = (
{
name = bottom;
position = "{304, 0}";
},
{
name = top;
position = "{272, 618}";
}
);
layerId = "8007C042-6FBA-4E49-99B8-8B738A4EBE86";
paths = (
{
closed = 1;
nodes = (
"366 261 LINE SMOOTH",
"479 261 OFFCURVE",
"560 342 OFFCURVE",
"560 455 CURVE SMOOTH",
"560 568 OFFCURVE",
"479 650 OFFCURVE",
"366 650 CURVE SMOOTH",
"132 650 LINE",
"132 570 LINE",
"362 570 LINE SMOOTH",
"426 570 OFFCURVE",
"472 521 OFFCURVE",
"472 454 CURVE SMOOTH",
"472 387 OFFCURVE",
"424 339 OFFCURVE",
"358 339 CURVE SMOOTH",
"132 339 LINE",
"132 261 LINE"
);
},
{
closed = 1;
nodes = (
"152 0 LINE",
"152 650 LINE",
"68 650 LINE",
"68 0 LINE"
);
},
{
closed = 1;
nodes = (
"572 0 LINE",
"428 280 LINE",
"334 280 LINE",
"474 0 LINE"
);
}
);
width = 608;
},
{
associatedMasterId = "8007C042-6FBA-4E49-99B8-8B738A4EBE86";
background = {
paths = (
{
closed = 1;
nodes = (
"379 562 OFFCURVE",
"422 525 OFFCURVE",
"422 461 CURVE SMOOTH",
"422 397 OFFCURVE",
"378 362 OFFCURVE",
"302 362 CURVE SMOOTH",
"162 362 LINE",
"162 563 LINE",
"303 563 LINE SMOOTH"
);
},
{
closed = 1;
nodes = (
"162 276 LINE",
"253 276 LINE",
"437 0 LINE",
"549 0 LINE",
"354 280 LINE",
"400 287 OFFCURVE",
"439 307 OFFCURVE",
"470 341 CURVE SMOOTH",
"532 408 OFFCURVE",
"534 526 OFFCURVE",
"462 594 CURVE SMOOTH",
"423 630 OFFCURVE",
"370 648 OFFCURVE",
"303 648 CURVE SMOOTH",
"68 648 LINE",
"68 0 LINE",
"162 0 LINE"
);
}
);
};
layerId = "F48A871F-1811-4BE0-A076-26C992A6360E";
name = "Jan 15 18, 19:27";
paths = (
{
closed = 1;
nodes = (
"154 650 LINE",
"154 0 LINE",
"76 0 LINE",
"76 650 LINE"
);
},
{
closed = 1;
nodes = (
"316 650 LINE",
"440 650 OFFCURVE",
"526 569 OFFCURVE",
"526 459 CURVE SMOOTH",
"526 349 OFFCURVE",
"430 266 OFFCURVE",
"310 266 CURVE",
"154 266 LINE",
"154 340 LINE",
"314 340 LINE",
"388 340 OFFCURVE",
"444 389 OFFCURVE",
"444 455 CURVE SMOOTH",
"444 523 OFFCURVE",
"390 570 OFFCURVE",
"314 570 CURVE",
"154 570 LINE",
"154 650 LINE"
);
},
{
closed = 1;
nodes = (
"384 296 LINE",
"538 0 LINE",
"446 0 LINE",
"294 296 LINE"
);
}
);
width = 582;
},
{
associatedMasterId = "8007C042-6FBA-4E49-99B8-8B738A4EBE86";
background = {
paths = (
{
closed = 1;
nodes = (
"379 562 OFFCURVE",
"422 525 OFFCURVE",
"422 461 CURVE SMOOTH",
"422 397 OFFCURVE",
"378 362 OFFCURVE",
"302 362 CURVE SMOOTH",
"162 362 LINE",
"162 563 LINE",
"303 563 LINE SMOOTH"
);
},
{
closed = 1;
nodes = (
"162 276 LINE",
"253 276 LINE",
"437 0 LINE",
"549 0 LINE",
"354 280 LINE",
"400 287 OFFCURVE",
"439 307 OFFCURVE",
"470 341 CURVE SMOOTH",
"532 408 OFFCURVE",
"534 526 OFFCURVE",
"462 594 CURVE SMOOTH",
"423 630 OFFCURVE",
"370 648 OFFCURVE",
"303 648 CURVE SMOOTH",
"68 648 LINE",
"68 0 LINE",
"162 0 LINE"
);
}
);
};
layerId = "B79A9C34-90A3-4EA1-98A3-DBD6E7CA62C5";
name = "Jan 15 18, 19:41";
paths = (
{
closed = 1;
nodes = (
"154 650 LINE",
"154 0 LINE",
"76 0 LINE",
"76 650 LINE"
);
},
{
closed = 1;
nodes = (
"154 340 LINE",
"326 340 LINE SMOOTH",
"404 340 OFFCURVE",
"464 384 OFFCURVE",
"464 456 CURVE SMOOTH",
"464 528 OFFCURVE",
"407 572 OFFCURVE",
"330 572 CURVE SMOOTH",
"154 572 LINE",
"154 650 LINE",
"332 650 LINE SMOOTH",
"456 650 OFFCURVE",
"542 572 OFFCURVE",
"542 460 CURVE SMOOTH",
"542 376 OFFCURVE",
"479 306 OFFCURVE",
"396 290 CURVE",
"444 286 OFFCURVE",
"483 250 OFFCURVE",
"496 206 CURVE SMOOTH",
"548 30 OFFCURVE",
"550 16 OFFCURVE",
"566 0 CURVE",
"484 0 LINE",
"469 16 OFFCURVE",
"468 26 OFFCURVE",
"420 194 CURVE SMOOTH",
"408 235 OFFCURVE",
"360 266 OFFCURVE",
"272 266 CURVE SMOOTH",
"154 266 LINE"
);
}
);
width = 582;
},
{
associatedMasterId = "8007C042-6FBA-4E49-99B8-8B738A4EBE86";
background = {
paths = (
{
closed = 1;
nodes = (
"374 561 OFFCURVE",
"417 524 OFFCURVE",
"417 460 CURVE SMOOTH",
"417 396 OFFCURVE",
"373 361 OFFCURVE",
"298 361 CURVE SMOOTH",
"157 361 LINE",
"157 562 LINE",
"298 562 LINE SMOOTH"
);
},
{
closed = 1;
nodes = (
"157 275 LINE",
"248 275 LINE",
"432 0 LINE",
"544 0 LINE",
"350 280 LINE",
"395 286 OFFCURVE",
"434 306 OFFCURVE",
"465 340 CURVE SMOOTH",
"527 407 OFFCURVE",
"529 525 OFFCURVE",
"457 593 CURVE SMOOTH",
"418 629 OFFCURVE",
"365 647 OFFCURVE",
"298 647 CURVE SMOOTH",
"64 647 LINE",
"64 0 LINE",
"157 0 LINE"
);
}
);
};
layerId = "DF24A0FF-5649-412C-B229-77D0E1963A3F";
name = "Feb 21 18, 16:39";
paths = (
{
closed = 1;
nodes = (
"150 346 LINE",
"324 346 LINE SMOOTH",
"385 346 OFFCURVE",
"432 394 OFFCURVE",
"432 458 CURVE SMOOTH",
"432 522 OFFCURVE",
"384 570 OFFCURVE",
"322 570 CURVE SMOOTH",
"150 570 LINE",
"150 650 LINE",
"326 650 LINE SMOOTH",
"431 650 OFFCURVE",
"512 568 OFFCURVE",
"512 459 CURVE SMOOTH",
"512 351 OFFCURVE",
"431 270 OFFCURVE",
"326 270 CURVE SMOOTH",
"150 270 LINE"
);
},
{
closed = 1;
nodes = (
"150 650 LINE",
"150 0 LINE",
"72 0 LINE",
"72 650 LINE"
);
},
{
closed = 1;
nodes = (
"293 414 LINE",
"528 0 LINE",
"434 0 LINE",
"201 414 LINE"
);
}
);
width = 560;
},
{
associatedMasterId = "8007C042-6FBA-4E49-99B8-8B738A4EBE86";
background = {
paths = (
{
closed = 1;
nodes = (
"378 561 OFFCURVE",
"421 524 OFFCURVE",
"421 460 CURVE SMOOTH",
"421 396 OFFCURVE",
"377 361 OFFCURVE",
"302 361 CURVE SMOOTH",
"161 361 LINE",
"161 562 LINE",
"302 562 LINE SMOOTH"
);
},
{
closed = 1;
nodes = (
"161 275 LINE",
"252 275 LINE",
"436 0 LINE",
"548 0 LINE",
"354 280 LINE",
"399 286 OFFCURVE",
"438 306 OFFCURVE",
"469 340 CURVE SMOOTH",
"531 407 OFFCURVE",
"533 525 OFFCURVE",
"461 593 CURVE SMOOTH",
"422 629 OFFCURVE",
"369 647 OFFCURVE",
"302 647 CURVE SMOOTH",
"68 647 LINE",
"68 0 LINE",
"161 0 LINE"
);
}
);
};
layerId = "61E945C5-C51D-451C-9D26-41FC90DCF123";
name = "Jun 20 18, 23:11";
paths = (
{
closed = 1;
nodes = (
"154 650 LINE",
"154 0 LINE",
"72 0 LINE",
"72 650 LINE"
);
},
{
closed = 1;
nodes = (
"154 352 LINE",
"320 352 LINE SMOOTH",
"388 352 OFFCURVE",
"436 396 OFFCURVE",
"436 460 CURVE SMOOTH",
"436 524 OFFCURVE",
"388 568 OFFCURVE",
"322 568 CURVE SMOOTH",
"154 568 LINE",
"154 650 LINE",
"318 650 LINE SMOOTH",
"434 650 OFFCURVE",
"516 570 OFFCURVE",
"516 462 CURVE SMOOTH",
"516 340 OFFCURVE",
"425 272 OFFCURVE",
"304 272 CURVE",
"154 272 LINE"
);
},
{
closed = 1;
nodes = (
"280 302 LINE",
"372 302 LINE",
"536 0 LINE",
"440 0 LINE",
"280 290 LINE"
);
}
);
width = 560;
},
{
associatedMasterId = "8007C042-6FBA-4E49-99B8-8B738A4EBE86";
background = {
paths = (
{
closed = 1;
nodes = (
"378 561 OFFCURVE",
"421 524 OFFCURVE",
"421 460 CURVE SMOOTH",
"421 396 OFFCURVE",
"377 361 OFFCURVE",
"302 361 CURVE SMOOTH",
"161 361 LINE",
"161 562 LINE",
"302 562 LINE SMOOTH"
);
},
{
closed = 1;
nodes = (
"161 275 LINE",
"252 275 LINE",
"436 0 LINE",
"548 0 LINE",
"354 280 LINE",
"399 286 OFFCURVE",
"438 306 OFFCURVE",
"469 340 CURVE SMOOTH",
"531 407 OFFCURVE",
"533 525 OFFCURVE",
"461 593 CURVE SMOOTH",
"422 629 OFFCURVE",
"369 647 OFFCURVE",
"302 647 CURVE SMOOTH",
"68 647 LINE",
"68 0 LINE",
"161 0 LINE"
);
}
);
};
layerId = "D857D9C5-7938-4275-894C-668ADDB86DB8";
name = "Oct 1 18, 23:46";
paths = (
{
closed = 1;
nodes = (
"154 650 LINE",
"154 0 LINE",
"72 0 LINE",
"72 650 LINE"
);
},
{
closed = 1;
nodes = (
"154 344 LINE",
"316 344 LINE SMOOTH",
"390 344 OFFCURVE",
"440 390 OFFCURVE",
"440 456 CURVE SMOOTH",
"440 520 OFFCURVE",
"392 568 OFFCURVE",
"320 568 CURVE SMOOTH",
"154 568 LINE",
"154 650 LINE",
"308 650 LINE SMOOTH",
"432 650 OFFCURVE",
"522 572 OFFCURVE",
"522 460 CURVE SMOOTH",
"522 372 OFFCURVE",
"468 302 OFFCURVE",
"380 278 CURVE",
"536 0 LINE",
"440 0 LINE",
"290 264 LINE",
"154 264 LINE"
);
}
);
width = 560;
},
{
associatedMasterId = "8007C042-6FBA-4E49-99B8-8B738A4EBE86";
background = {
paths = (
{
closed = 1;
nodes = (
"165 0 LINE",
"165 298 LINE",
"309 298 LINE SMOOTH",
"536 299 OFFCURVE",
"478 152 OFFCURVE",
"555 0 CURVE",
"663 0 LINE",
"576 168 OFFCURVE",
"614 294 OFFCURVE",
"461 335 CURVE",
"566 362 OFFCURVE",
"625 435 OFFCURVE",
"625 529 CURVE SMOOTH",
"625 591 OFFCURVE",
"599 641 OFFCURVE",
"553 674 CURVE SMOOTH",
"509 705 OFFCURVE",
"448 722 OFFCURVE",
"360 722 CURVE SMOOTH",
"69 722 LINE",
"69 0 LINE"
);
},
{
closed = 1;
nodes = (
"346 636 LINE SMOOTH",
"409 636 OFFCURVE",
"451 626 OFFCURVE",
"480 604 CURVE SMOOTH",
"509 583 OFFCURVE",
"525 552 OFFCURVE",
"525 511 CURVE SMOOTH",
"525 470 OFFCURVE",
"508 437 OFFCURVE",
"477 415 CURVE SMOOTH",
"447 393 OFFCURVE",
"404 382 OFFCURVE",
"346 382 CURVE SMOOTH",
"165 382 LINE",
"165 636 LINE"
);
}
);
};
layerId = "7089099D-B31F-40A7-9427-1BDF8F1800AE";
name = "Dec 6 18, 21:03";
paths = (
{
closed = 1;
nodes = (
"146 650 LINE",
"146 0 LINE",
"64 0 LINE",
"64 650 LINE"
);
},
{
closed = 1;
nodes = (
"146 344 LINE",
"320 344 LINE SMOOTH",
"396 344 OFFCURVE",
"448 388 OFFCURVE",
"448 456 CURVE SMOOTH",
"448 522 OFFCURVE",
"398 568 OFFCURVE",
"324 568 CURVE SMOOTH",
"146 568 LINE",
"146 650 LINE",
"312 650 LINE SMOOTH",
"438 650 OFFCURVE",
"530 574 OFFCURVE",
"530 460 CURVE SMOOTH",
"530 370 OFFCURVE",
"476 302 OFFCURVE",
"384 278 CURVE",
"548 0 LINE",
"448 0 LINE",
"294 264 LINE",
"146 264 LINE"
);
}
);
width = 576;
},
{
anchors = (
{
name = bottom;
position = "{300, 0}";
},
{
name = top;
position = "{276, 634}";
}
);
layerId = "ADDE491E-C0C4-4659-943C-53377B387F47";
paths = (
{
closed = 1;
nodes = (
"360 248 LINE SMOOTH",
"488 248 OFFCURVE",
"580 332 OFFCURVE",
"580 448 CURVE SMOOTH",
"580 565 OFFCURVE",
"494 650 OFFCURVE",
"376 650 CURVE SMOOTH",
"180 650 LINE",
"180 516 LINE",
"346 516 LINE SMOOTH",
"391 516 OFFCURVE",
"424 482 OFFCURVE",
"424 434 CURVE SMOOTH",
"424 386 OFFCURVE",
"391 352 OFFCURVE",
"346 352 CURVE SMOOTH",
"180 352 LINE",
"180 248 LINE"
);
},
{
closed = 1;
nodes = (
"200 0 LINE",
"200 650 LINE",
"52 650 LINE",
"52 0 LINE"
);
},
{
closed = 1;
nodes = (
"592 0 LINE",
"456 268 LINE",
"320 268 LINE",
"416 0 LINE"
);
}
);
width = 612;
},
{
anchors = (
{
name = bottom;
position = "{304, 0}";
},
{
name = top;
position = "{272, 618}";
}
);
components = (
{
name = inkstem_M;
transform = "{-1, 0, 0, -1, 410, 390}";
},
{
name = inkstem_M;
transform = "{0, -1, 1, 0, 0, 910}";
},
{
name = inkcurve;
transform = "{0, -1, -1, 0, 813, 754}";
},
{
name = inkstem_S;
transform = "{1, 0, 0, 1, 152, 280}";
},
{
name = inkstem_S;
transform = "{1, 0, 0, 1, -18, 0}";
},
{
name = inkstem_L;
transform = "{0.89101, 0.45399, -0.45399, 0.89101, 340, -300}";
}
);
layerId = m003;
paths = (
{
closed = 1;
nodes = (
"450 285 OFFCURVE",
"462 283 OFFCURVE",
"471 289 CURVE SMOOTH",
"526 322 OFFCURVE",
"560 382 OFFCURVE",
"560 455 CURVE SMOOTH",
"560 568 OFFCURVE",
"479 650 OFFCURVE",
"366 650 CURVE SMOOTH",
"68 650 LINE",
"68 0 LINE",
"152 0 LINE",
"152 218 LINE SMOOTH",
"152 226 OFFCURVE",
"147 233 OFFCURVE",
"139 236 CURVE SMOOTH",
"130 240 OFFCURVE",
"124 250 OFFCURVE",
"124 261 CURVE SMOOTH",
"124 277 OFFCURVE",
"136 289 OFFCURVE",
"152 289 CURVE SMOOTH",
"163 289 OFFCURVE",
"173 283 OFFCURVE",
"177 274 CURVE SMOOTH",
"180 266 OFFCURVE",
"187 261 OFFCURVE",
"195 261 CURVE SMOOTH",
"344 261 LINE",
"474 0 LINE",
"572 0 LINE",
"449 238 LINE SMOOTH",
"443 250 OFFCURVE",
"432 251 OFFCURVE",
"420 251 CURVE SMOOTH",
"404 251 OFFCURVE",
"392 263 OFFCURVE",
"392 279 CURVE SMOOTH",
"392 295 OFFCURVE",
"404 307 OFFCURVE",
"420 307 CURVE SMOOTH",
"430 307 OFFCURVE",
"439 302 OFFCURVE",
"444 294 CURVE SMOOTH"
);
},
{
closed = 1;
nodes = (
"136 311 OFFCURVE",
"124 323 OFFCURVE",
"124 339 CURVE SMOOTH",
"124 350 OFFCURVE",
"130 360 OFFCURVE",
"139 364 CURVE SMOOTH",
"147 367 OFFCURVE",
"152 374 OFFCURVE",
"152 382 CURVE SMOOTH",
"152 527 LINE SMOOTH",
"152 535 OFFCURVE",
"147 542 OFFCURVE",
"139 545 CURVE SMOOTH",
"130 549 OFFCURVE",
"124 559 OFFCURVE",
"124 570 CURVE SMOOTH",
"124 586 OFFCURVE",
"136 598 OFFCURVE",
"152 598 CURVE SMOOTH",
"163 598 OFFCURVE",
"173 592 OFFCURVE",
"177 583 CURVE SMOOTH",
"180 575 OFFCURVE",
"187 570 OFFCURVE",
"195 570 CURVE SMOOTH",
"362 570 LINE SMOOTH",
"426 570 OFFCURVE",
"472 521 OFFCURVE",
"472 454 CURVE SMOOTH",
"472 387 OFFCURVE",
"424 339 OFFCURVE",
"358 339 CURVE SMOOTH",
"195 339 LINE SMOOTH",
"187 339 OFFCURVE",
"180 334 OFFCURVE",
"177 326 CURVE SMOOTH",
"173 317 OFFCURVE",
"163 311 OFFCURVE",
"152 311 CURVE SMOOTH"
);
}
);
width = 608;
}
);
leftKerningGroup = l;
leftMetricsKey = l;
rightKerningGroup = R;
unicode = 0052;
},
{
color = 10;
glyphname = S;
lastChange = "2021-05-16 10:49:46 +0000";
layers = (
{
anchors = (
{
name = bottom;
position = "{296, -12}";
},
{
name = top;
position = "{292, 630}";
}
);
layerId = "8007C042-6FBA-4E49-99B8-8B738A4EBE86";
paths = (
{
closed = 1;
nodes = (
"48 76 OFFCURVE",
"157 -12 OFFCURVE",
"304 -12 CURVE SMOOTH",
"445 -12 OFFCURVE",
"540 65 OFFCURVE",
"540 176 CURVE SMOOTH",
"540 397 OFFCURVE",
"158 353 OFFCURVE",
"158 492 CURVE SMOOTH",
"158 546 OFFCURVE",
"218 582 OFFCURVE",
"286 582 CURVE SMOOTH",
"366 582 OFFCURVE",
"416 530 OFFCURVE",
"424 462 CURVE",
"516 488 LINE",
"504 592 OFFCURVE",
"410 662 OFFCURVE",
"286 662 CURVE SMOOTH",
"164 662 OFFCURVE",
"68 594 OFFCURVE",
"68 488 CURVE SMOOTH",
"68 277 OFFCURVE",
"448 331 OFFCURVE",
"448 176 CURVE SMOOTH",
"448 114 OFFCURVE",
"386 70 OFFCURVE",
"306 70 CURVE SMOOTH",
"207 70 OFFCURVE",
"136 136 OFFCURVE",
"132 228 CURVE",
"40 204 LINE"
);
}
);
width = 576;
},
{
associatedMasterId = "8007C042-6FBA-4E49-99B8-8B738A4EBE86";
background = {
paths = (
{
closed = 1;
nodes = (
"157 703 OFFCURVE",
"51 632 OFFCURVE",
"51 513 CURVE SMOOTH",
"51 407 OFFCURVE",
"159 359 OFFCURVE",
"267 316 CURVE SMOOTH",
"369 273 OFFCURVE",
"469 233 OFFCURVE",
"469 135 CURVE SMOOTH",
"469 56 OFFCURVE",
"420 0 OFFCURVE",
"311 0 CURVE SMOOTH",
"145 0 OFFCURVE",
"78 99 OFFCURVE",
"78 286 CURVE SMOOTH",
"78 301 OFFCURVE",
"67 301 OFFCURVE",
"67 286 CURVE SMOOTH",
"67 238 OFFCURVE",
"68 76 OFFCURVE",
"68 30 CURVE SMOOTH",
"68 23 OFFCURVE",
"69 23 OFFCURVE",
"78 20 CURVE",
"150 1 OFFCURVE",
"203 -10 OFFCURVE",
"311 -10 CURVE SMOOTH",
"431 -10 OFFCURVE",
"529 67 OFFCURVE",
"529 182 CURVE SMOOTH",
"529 290 OFFCURVE",
"424 336 OFFCURVE",
"320 379 CURVE SMOOTH",
"216 422 OFFCURVE",
"114 465 OFFCURVE",
"114 560 CURVE SMOOTH",
"114 636 OFFCURVE",
"162 693 OFFCURVE",
"285 693 CURVE SMOOTH",
"472 693 OFFCURVE",
"501 577 OFFCURVE",
"498 422 CURVE SMOOTH",
"498 409 OFFCURVE",
"508 409 OFFCURVE",
"508 422 CURVE SMOOTH",
"508 580 OFFCURVE",
"517 646 OFFCURVE",
"514 666 CURVE SMOOTH",
"513 674 OFFCURVE",
"510 674 OFFCURVE",
"503 677 CURVE",
"446 690 OFFCURVE",
"385 703 OFFCURVE",
"285 703 CURVE SMOOTH"
);
}
);
};
layerId = "003A5419-0E0F-4A80-B94F-D963176D047E";
name = "Oct 31 17, 19:59";
paths = (
{
closed = 1;
nodes = (
"63 72 OFFCURVE",
"170 -10 OFFCURVE",
"324 -10 CURVE SMOOTH",
"480 -10 OFFCURVE",
"594 67 OFFCURVE",
"594 198 CURVE SMOOTH",
"594 306 OFFCURVE",
"525 364 OFFCURVE",
"408 382 CURVE",
"291 400 LINE",
"196 416 OFFCURVE",
"140 446 OFFCURVE",
"140 502 CURVE SMOOTH",
"140 573 OFFCURVE",
"216 615 OFFCURVE",
"324 615 CURVE SMOOTH",
"432 615 OFFCURVE",
"489 572 OFFCURVE",
"506 499 CURVE",
"586 511 LINE",
"564 632 OFFCURVE",
"480 703 OFFCURVE",
"332 703 CURVE SMOOTH",
"159 703 OFFCURVE",
"56 628 OFFCURVE",
"56 496 CURVE SMOOTH",
"56 400 OFFCURVE",
"132 337 OFFCURVE",
"261 322 CURVE",
"388 302 LINE",
"465 288 OFFCURVE",
"510 248 OFFCURVE",
"510 194 CURVE SMOOTH",
"510 122 OFFCURVE",
"432 80 OFFCURVE",
"328 80 CURVE SMOOTH",
"220 80 OFFCURVE",
"143 135 OFFCURVE",
"120 228 CURVE",
"36 212 LINE"
);
}
);
width = 626;
},
{
associatedMasterId = "8007C042-6FBA-4E49-99B8-8B738A4EBE86";
background = {
paths = (
{
closed = 1;
nodes = (
"151 703 OFFCURVE",
"45 632 OFFCURVE",
"45 513 CURVE SMOOTH",
"45 407 OFFCURVE",
"153 359 OFFCURVE",
"261 316 CURVE SMOOTH",
"363 273 OFFCURVE",
"463 233 OFFCURVE",
"463 135 CURVE SMOOTH",
"463 56 OFFCURVE",
"414 0 OFFCURVE",
"305 0 CURVE SMOOTH",
"139 0 OFFCURVE",
"72 99 OFFCURVE",
"72 286 CURVE SMOOTH",
"72 301 OFFCURVE",
"61 301 OFFCURVE",
"61 286 CURVE SMOOTH",
"61 238 OFFCURVE",
"62 76 OFFCURVE",
"62 30 CURVE SMOOTH",
"62 23 OFFCURVE",
"63 23 OFFCURVE",
"72 20 CURVE",
"144 1 OFFCURVE",
"197 -10 OFFCURVE",
"305 -10 CURVE SMOOTH",
"425 -10 OFFCURVE",
"523 67 OFFCURVE",
"523 182 CURVE SMOOTH",
"523 290 OFFCURVE",
"418 336 OFFCURVE",
"314 379 CURVE SMOOTH",
"210 422 OFFCURVE",
"108 465 OFFCURVE",
"108 560 CURVE SMOOTH",
"108 636 OFFCURVE",
"156 693 OFFCURVE",
"279 693 CURVE SMOOTH",
"466 693 OFFCURVE",
"495 577 OFFCURVE",
"492 422 CURVE SMOOTH",
"492 409 OFFCURVE",
"502 409 OFFCURVE",
"502 422 CURVE SMOOTH",
"502 580 OFFCURVE",
"511 646 OFFCURVE",
"508 666 CURVE SMOOTH",
"507 674 OFFCURVE",
"504 674 OFFCURVE",
"497 677 CURVE",
"440 690 OFFCURVE",
"379 703 OFFCURVE",
"279 703 CURVE SMOOTH"
);
}
);
};
layerId = "0FCB554F-D020-42CC-A1C1-DA269702A05B";
name = "Nov 12 17, 23:55";
paths = (
{
closed = 1;
nodes = (
"48 71 OFFCURVE",
"157 -10 OFFCURVE",
"326 -10 CURVE SMOOTH",
"477 -10 OFFCURVE",
"590 74 OFFCURVE",
"590 198 CURVE SMOOTH",
"590 297 OFFCURVE",
"521 369 OFFCURVE",
"403 391 CURVE",
"271 415 LINE",
"194 432 OFFCURVE",
"148 470 OFFCURVE",
"148 518 CURVE SMOOTH",
"148 582 OFFCURVE",
"207 624 OFFCURVE",
"308 624 CURVE SMOOTH",
"404 624 OFFCURVE",
"468 579 OFFCURVE",
"480 504 CURVE",
"560 524 LINE",
"546 641 OFFCURVE",
"454 710 OFFCURVE",
"314 710 CURVE SMOOTH",
"157 710 OFFCURVE",
"64 636 OFFCURVE",
"64 512 CURVE SMOOTH",
"64 424 OFFCURVE",
"132 359 OFFCURVE",
"247 337 CURVE",
"387 311 LINE",
"462 293 OFFCURVE",
"506 249 OFFCURVE",
"506 192 CURVE SMOOTH",
"506 124 OFFCURVE",
"432 80 OFFCURVE",
"334 80 CURVE SMOOTH",
"211 80 OFFCURVE",
"130 135 OFFCURVE",
"116 229 CURVE",
"32 207 LINE"
);
}
);
width = 626;
},
{
associatedMasterId = "8007C042-6FBA-4E49-99B8-8B738A4EBE86";
background = {
paths = (
{
closed = 1;
nodes = (
"44 78 OFFCURVE",
"158 -12 OFFCURVE",
"308 -12 CURVE SMOOTH",
"446 -12 OFFCURVE",
"540 72 OFFCURVE",
"540 190 CURVE SMOOTH",
"540 266 OFFCURVE",
"478 338 OFFCURVE",
"386 358 CURVE SMOOTH",
"260 386 LINE SMOOTH",
"196 400 OFFCURVE",
"154 438 OFFCURVE",
"154 482 CURVE SMOOTH",
"154 544 OFFCURVE",
"208 586 OFFCURVE",
"284 586 CURVE SMOOTH",
"364 586 OFFCURVE",
"426 538 OFFCURVE",
"430 466 CURVE",
"520 490 LINE",
"508 590 OFFCURVE",
"410 662 OFFCURVE",
"288 662 CURVE SMOOTH",
"158 662 OFFCURVE",
"68 584 OFFCURVE",
"68 474 CURVE SMOOTH",
"68 394 OFFCURVE",
"136 331 OFFCURVE",
"236 308 CURVE SMOOTH",
"358 280 LINE SMOOTH",
"414 267 OFFCURVE",
"452 226 OFFCURVE",
"452 182 CURVE SMOOTH",
"452 114 OFFCURVE",
"392 68 OFFCURVE",
"310 68 CURVE SMOOTH",
"206 68 OFFCURVE",
"130 134 OFFCURVE",
"130 226 CURVE",
"36 206 LINE"
);
}
);
};
layerId = "03A34EE1-3B39-4683-BE2F-A7E17FC9D474";
name = "Nov 1 19, 10:16";
paths = (
{
closed = 1;
nodes = (
"44 78 OFFCURVE",
"158 -12 OFFCURVE",
"308 -12 CURVE SMOOTH",
"446 -12 OFFCURVE",
"540 72 OFFCURVE",
"540 190 CURVE SMOOTH",
"540 266 OFFCURVE",
"478 338 OFFCURVE",
"386 358 CURVE SMOOTH",
"260 386 LINE SMOOTH",
"196 400 OFFCURVE",
"154 438 OFFCURVE",
"154 482 CURVE SMOOTH",
"154 544 OFFCURVE",
"208 586 OFFCURVE",
"284 586 CURVE SMOOTH",
"364 586 OFFCURVE",
"426 538 OFFCURVE",
"430 466 CURVE",
"520 490 LINE",
"508 590 OFFCURVE",
"410 662 OFFCURVE",
"288 662 CURVE SMOOTH",
"158 662 OFFCURVE",
"68 584 OFFCURVE",
"68 474 CURVE SMOOTH",
"68 394 OFFCURVE",
"136 331 OFFCURVE",
"236 308 CURVE SMOOTH",
"358 280 LINE SMOOTH",
"414 267 OFFCURVE",
"452 226 OFFCURVE",
"452 182 CURVE SMOOTH",
"452 114 OFFCURVE",
"392 68 OFFCURVE",
"310 68 CURVE SMOOTH",
"206 68 OFFCURVE",
"130 134 OFFCURVE",
"130 226 CURVE",
"36 206 LINE"
);
}
);
width = 580;
},
{
associatedMasterId = "8007C042-6FBA-4E49-99B8-8B738A4EBE86";
background = {
hints = (
{
horizontal = 1;
place = "{-13, 86}";
type = Stem;
},
{
horizontal = 1;
place = "{658, 84}";
type = Stem;
},
{
place = "{59, 100}";
type = Stem;
},
{
place = "{503, 102}";
type = Stem;
}
);
paths = (
{
closed = 1;
nodes = (
"44 78 OFFCURVE",
"158 -12 OFFCURVE",
"308 -12 CURVE SMOOTH",
"446 -12 OFFCURVE",
"540 72 OFFCURVE",
"540 190 CURVE SMOOTH",
"540 266 OFFCURVE",
"478 338 OFFCURVE",
"386 358 CURVE SMOOTH",
"260 386 LINE SMOOTH",
"196 400 OFFCURVE",
"154 438 OFFCURVE",
"154 482 CURVE SMOOTH",
"154 544 OFFCURVE",
"208 586 OFFCURVE",
"284 586 CURVE SMOOTH",
"364 586 OFFCURVE",
"426 538 OFFCURVE",
"430 466 CURVE",
"520 490 LINE",
"508 590 OFFCURVE",
"410 662 OFFCURVE",
"288 662 CURVE SMOOTH",
"158 662 OFFCURVE",
"68 584 OFFCURVE",
"68 474 CURVE SMOOTH",
"68 394 OFFCURVE",
"136 331 OFFCURVE",
"236 308 CURVE SMOOTH",
"358 280 LINE SMOOTH",
"414 267 OFFCURVE",
"452 226 OFFCURVE",
"452 182 CURVE SMOOTH",
"452 114 OFFCURVE",
"392 68 OFFCURVE",
"310 68 CURVE SMOOTH",
"206 68 OFFCURVE",
"130 134 OFFCURVE",
"130 226 CURVE",
"36 206 LINE"
);
}
);
};
layerId = "AA5AF276-DC65-48DC-B8F6-905ECE0481EF";
name = "Apr 14 20, 18:04";
paths = (
{
closed = 1;
nodes = (
"44 78 OFFCURVE",
"158 -12 OFFCURVE",
"308 -12 CURVE SMOOTH",
"446 -12 OFFCURVE",
"540 70 OFFCURVE",
"540 188 CURVE SMOOTH",
"540 272 OFFCURVE",
"478 338 OFFCURVE",
"386 358 CURVE SMOOTH",
"260 386 LINE SMOOTH",
"196 400 OFFCURVE",
"154 434 OFFCURVE",
"154 486 CURVE SMOOTH",
"154 546 OFFCURVE",
"208 586 OFFCURVE",
"284 586 CURVE SMOOTH",
"364 586 OFFCURVE",
"426 538 OFFCURVE",
"430 466 CURVE",
"520 490 LINE",
"508 590 OFFCURVE",
"410 662 OFFCURVE",
"288 662 CURVE SMOOTH",
"158 662 OFFCURVE",
"68 586 OFFCURVE",
"68 478 CURVE SMOOTH",
"68 394 OFFCURVE",
"136 331 OFFCURVE",
"236 308 CURVE SMOOTH",
"358 280 LINE SMOOTH",
"414 267 OFFCURVE",
"452 226 OFFCURVE",
"452 182 CURVE SMOOTH",
"452 114 OFFCURVE",
"392 68 OFFCURVE",
"310 68 CURVE SMOOTH",
"206 68 OFFCURVE",
"130 134 OFFCURVE",
"130 226 CURVE",
"36 206 LINE"
);
}
);
width = 580;
},
{
anchors = (
{
name = bottom;
position = "{296, -16}";
},
{
name = top;
position = "{292, 638}";
}
);
associatedMasterId = "8007C042-6FBA-4E49-99B8-8B738A4EBE86";
background = {
hints = (
{
horizontal = 1;
place = "{-13, 86}";
type = Stem;
},
{
horizontal = 1;
place = "{658, 84}";
type = Stem;
},
{
place = "{59, 100}";
type = Stem;
},
{
place = "{503, 102}";
type = Stem;
}
);
paths = (
{
closed = 1;
nodes = (
"44 78 OFFCURVE",
"158 -12 OFFCURVE",
"308 -12 CURVE SMOOTH",
"446 -12 OFFCURVE",
"540 72 OFFCURVE",
"540 190 CURVE SMOOTH",
"540 266 OFFCURVE",
"478 338 OFFCURVE",
"386 358 CURVE SMOOTH",
"260 386 LINE SMOOTH",
"196 400 OFFCURVE",
"154 438 OFFCURVE",
"154 482 CURVE SMOOTH",
"154 544 OFFCURVE",
"208 586 OFFCURVE",
"284 586 CURVE SMOOTH",
"364 586 OFFCURVE",
"426 538 OFFCURVE",
"430 466 CURVE",
"520 490 LINE",
"508 590 OFFCURVE",
"410 662 OFFCURVE",
"288 662 CURVE SMOOTH",
"158 662 OFFCURVE",
"68 584 OFFCURVE",
"68 474 CURVE SMOOTH",
"68 394 OFFCURVE",
"136 331 OFFCURVE",
"236 308 CURVE SMOOTH",
"358 280 LINE SMOOTH",
"414 267 OFFCURVE",
"452 226 OFFCURVE",
"452 182 CURVE SMOOTH",
"452 114 OFFCURVE",
"392 68 OFFCURVE",
"310 68 CURVE SMOOTH",
"206 68 OFFCURVE",
"130 134 OFFCURVE",
"130 226 CURVE",
"36 206 LINE"
);
}
);
};
layerId = "3A507CED-2122-4A18-B7C7-EFF04678D782";
name = "Jun 6 20, 22:27";
paths = (
{
closed = 1;
nodes = (
"44 72 OFFCURVE",
"158 -16 OFFCURVE",
"300 -16 CURVE SMOOTH",
"442 -16 OFFCURVE",
"540 75 OFFCURVE",
"540 180 CURVE SMOOTH",
"540 270 OFFCURVE",
"461 337 OFFCURVE",
"372 360 CURVE SMOOTH",
"254 390 LINE SMOOTH",
"196 405 OFFCURVE",
"158 441 OFFCURVE",
"158 490 CURVE SMOOTH",
"158 543 OFFCURVE",
"213 588 OFFCURVE",
"286 588 CURVE SMOOTH",
"366 588 OFFCURVE",
"424 540 OFFCURVE",
"428 468 CURVE",
"520 492 LINE",
"508 596 OFFCURVE",
"408 666 OFFCURVE",
"288 666 CURVE SMOOTH",
"156 666 OFFCURVE",
"68 578 OFFCURVE",
"68 482 CURVE SMOOTH",
"68 396 OFFCURVE",
"139 332 OFFCURVE",
"236 308 CURVE SMOOTH",
"348 280 LINE SMOOTH",
"401 267 OFFCURVE",
"448 226 OFFCURVE",
"448 176 CURVE SMOOTH",
"448 115 OFFCURVE",
"389 64 OFFCURVE",
"304 64 CURVE SMOOTH",
"208 64 OFFCURVE",
"136 128 OFFCURVE",
"132 224 CURVE",
"36 200 LINE"
);
}
);
width = 580;
},
{
anchors = (
{
name = bottom;
position = "{304, -12}";
},
{
name = top;
position = "{300, 646}";
}
);
layerId = "ADDE491E-C0C4-4659-943C-53377B387F47";
paths = (
{
closed = 1;
nodes = (
"28 75 OFFCURVE",
"150 -12 OFFCURVE",
"312 -12 CURVE SMOOTH",
"467 -12 OFFCURVE",
"576 67 OFFCURVE",
"576 180 CURVE SMOOTH",
"576 388 OFFCURVE",
"204 352 OFFCURVE",
"204 470 CURVE SMOOTH",
"204 507 OFFCURVE",
"243 534 OFFCURVE",
"292 534 CURVE SMOOTH",
"350 534 OFFCURVE",
"392 496 OFFCURVE",
"396 444 CURVE",
"564 484 LINE",
"556 587 OFFCURVE",
"433 662 OFFCURVE",
"288 662 CURVE SMOOTH",
"142 662 OFFCURVE",
"48 586 OFFCURVE",
"48 480 CURVE SMOOTH",
"48 272 OFFCURVE",
"416 308 OFFCURVE",
"416 184 CURVE SMOOTH",
"416 140 OFFCURVE",
"369 120 OFFCURVE",
"320 120 CURVE SMOOTH",
"245 120 OFFCURVE",
"200 166 OFFCURVE",
"196 229 CURVE",
"24 193 LINE"
);
}
);
width = 600;
},
{
anchors = (
{
name = bottom;
position = "{296, -12}";
},
{
name = top;
position = "{292, 630}";
}
);
components = (
{
name = inkcurve;
transform = "{1, 0, 0, 1, 5, -270}";
},
{
name = inkcurve;
transform = "{1, 0, 0, -1, -13, 921}";
},
{
name = inkstem_S;
transform = "{1, 0, 0, 1, 154, 228}";
},
{
name = inkstem_S;
transform = "{1, 0, 0, 1, -195, -152}";
},
{
name = inkcurve;
transform = "{0, -1, -1, 0, 790, 476}";
},
{
name = inkcurve;
transform = "{0, 1, 1, 0, -182, 192}";
}
);
layerId = m003;
paths = (
{
closed = 1;
nodes = (
"48 76 OFFCURVE",
"157 -12 OFFCURVE",
"304 -12 CURVE SMOOTH",
"445 -12 OFFCURVE",
"540 65 OFFCURVE",
"540 176 CURVE SMOOTH",
"540 397 OFFCURVE",
"158 353 OFFCURVE",
"158 492 CURVE SMOOTH",
"158 546 OFFCURVE",
"218 582 OFFCURVE",
"286 582 CURVE SMOOTH",
"366 582 OFFCURVE",
"416 530 OFFCURVE",
"424 462 CURVE",
"516 488 LINE",
"504 592 OFFCURVE",
"410 662 OFFCURVE",
"286 662 CURVE SMOOTH",
"164 662 OFFCURVE",
"68 594 OFFCURVE",
"68 488 CURVE SMOOTH",
"68 277 OFFCURVE",
"448 331 OFFCURVE",
"448 176 CURVE SMOOTH",
"448 114 OFFCURVE",
"386 70 OFFCURVE",
"306 70 CURVE SMOOTH",
"207 70 OFFCURVE",
"136 136 OFFCURVE",
"132 228 CURVE",
"40 204 LINE"
);
},
{
closed = 1;
nodes = (
"227 341 OFFCURVE",
"220 353 OFFCURVE",
"224 365 CURVE SMOOTH",
"228 378 OFFCURVE",
"241 382 OFFCURVE",
"254 378 CURVE SMOOTH",
"360 343 LINE SMOOTH",
"373 339 OFFCURVE",
"380 327 OFFCURVE",
"376 314 CURVE SMOOTH",
"372 302 OFFCURVE",
"359 297 OFFCURVE",
"346 301 CURVE SMOOTH",
"240 337 LINE SMOOTH"
);
}
);
width = 576;
}
);
leftKerningGroup = S;
note = "Stretta?";
rightKerningGroup = S;
unicode = 0053;
},
{
glyphname = Germandbls;
lastChange = "2021-05-28 13:40:24 +0000";
layers = (
{
layerId = "8007C042-6FBA-4E49-99B8-8B738A4EBE86";
paths = (
{
closed = 1;
nodes = (
"148 0 LINE",
"148 430 LINE SMOOTH",
"148 526 OFFCURVE",
"220 596 OFFCURVE",
"332 596 CURVE",
"264 576 OFFCURVE",
"216 524 OFFCURVE",
"216 456 CURVE SMOOTH",
"216 268 OFFCURVE",
"514 320 OFFCURVE",
"514 164 CURVE SMOOTH",
"514 105 OFFCURVE",
"467 68 OFFCURVE",
"408 68 CURVE SMOOTH",
"334 68 OFFCURVE",
"282 127 OFFCURVE",
"278 208 CURVE",
"186 184 LINE",
"194 70 OFFCURVE",
"289 -12 OFFCURVE",
"408 -12 CURVE SMOOTH",
"524 -12 OFFCURVE",
"604 66 OFFCURVE",
"604 172 CURVE SMOOTH",
"604 384 OFFCURVE",
"296 336 OFFCURVE",
"296 468 CURVE SMOOTH",
"296 519 OFFCURVE",
"349 550 OFFCURVE",
"404 550 CURVE SMOOTH",
"444 550 OFFCURVE",
"481 533 OFFCURVE",
"512 510 CURVE",
"514 578 LINE",
"469 627 OFFCURVE",
"394 662 OFFCURVE",
"312 662 CURVE SMOOTH",
"177 662 OFFCURVE",
"64 568 OFFCURVE",
"64 438 CURVE SMOOTH",
"64 0 LINE"
);
}
);
width = 628;
},
{
associatedMasterId = "8007C042-6FBA-4E49-99B8-8B738A4EBE86";
layerId = "C6F37BD6-85E4-4A15-B043-26C04E17E3BE";
name = "Apr 20 20, 11:48";
paths = (
{
closed = 1;
nodes = (
"542 596 LINE",
"474 650 OFFCURVE",
"393 666 OFFCURVE",
"318 666 CURVE SMOOTH",
"182 666 OFFCURVE",
"68 562 OFFCURVE",
"68 418 CURVE SMOOTH",
"68 0 LINE",
"148 0 LINE",
"148 402 LINE SMOOTH",
"148 511 OFFCURVE",
"221 590 OFFCURVE",
"322 590 CURVE"
);
},
{
closed = 1;
nodes = (
"327 620 OFFCURVE",
"224 571 OFFCURVE",
"224 464 CURVE SMOOTH",
"224 356 OFFCURVE",
"329 320 OFFCURVE",
"406 292 CURVE SMOOTH",
"447 277 OFFCURVE",
"528 248 OFFCURVE",
"528 166 CURVE SMOOTH",
"528 106 OFFCURVE",
"485 64 OFFCURVE",
"426 64 CURVE SMOOTH",
"352 64 OFFCURVE",
"296 126 OFFCURVE",
"292 212 CURVE",
"200 188 LINE",
"208 70 OFFCURVE",
"299 -16 OFFCURVE",
"418 -16 CURVE SMOOTH",
"531 -16 OFFCURVE",
"618 61 OFFCURVE",
"618 173 CURVE SMOOTH",
"618 288 OFFCURVE",
"527 332 OFFCURVE",
"438 364 CURVE SMOOTH",
"379 385 OFFCURVE",
"310 408 OFFCURVE",
"310 470 CURVE SMOOTH",
"310 528 OFFCURVE",
"371 550 OFFCURVE",
"418 550 CURVE SMOOTH",
"450 550 OFFCURVE",
"496 542 OFFCURVE",
"544 518 CURVE",
"542 596 LINE",
"490 618 OFFCURVE",
"446 620 OFFCURVE",
"415 620 CURVE SMOOTH"
);
}
);
width = 678;
},
{
associatedMasterId = "8007C042-6FBA-4E49-99B8-8B738A4EBE86";
layerId = "A631CF37-E573-4312-900C-E0FDD1B6DD58";
name = "Apr 20 20, 11:52";
paths = (
{
closed = 1;
nodes = (
"542 600 LINE",
"477 653 OFFCURVE",
"387 666 OFFCURVE",
"331 666 CURVE SMOOTH",
"171 666 OFFCURVE",
"68 558 OFFCURVE",
"68 418 CURVE SMOOTH",
"68 0 LINE",
"148 0 LINE",
"148 402 LINE SMOOTH",
"148 511 OFFCURVE",
"221 598 OFFCURVE",
"322 598 CURVE"
);
},
{
closed = 1;
nodes = (
"308 606 OFFCURVE",
"226 565 OFFCURVE",
"226 464 CURVE SMOOTH",
"226 375 OFFCURVE",
"289 337 OFFCURVE",
"368 304 CURVE SMOOTH",
"451 269 OFFCURVE",
"528 253 OFFCURVE",
"528 168 CURVE SMOOTH",
"528 104 OFFCURVE",
"485 64 OFFCURVE",
"426 64 CURVE SMOOTH",
"352 64 OFFCURVE",
"296 126 OFFCURVE",
"292 212 CURVE",
"200 188 LINE",
"208 70 OFFCURVE",
"299 -16 OFFCURVE",
"418 -16 CURVE SMOOTH",
"526 -16 OFFCURVE",
"618 54 OFFCURVE",
"618 172 CURVE SMOOTH",
"618 286 OFFCURVE",
"532 330 OFFCURVE",
"438 364 CURVE SMOOTH",
"379 385 OFFCURVE",
"310 408 OFFCURVE",
"310 472 CURVE SMOOTH",
"310 530 OFFCURVE",
"369 558 OFFCURVE",
"424 558 CURVE SMOOTH",
"460 558 OFFCURVE",
"498 547 OFFCURVE",
"544 522 CURVE",
"542 600 LINE",
"526 607 OFFCURVE",
"489 620 OFFCURVE",
"412 614 CURVE SMOOTH"
);
}
);
width = 678;
},
{
associatedMasterId = "8007C042-6FBA-4E49-99B8-8B738A4EBE86";
layerId = "3E6FE58C-588D-4510-9356-ED5220EE60F5";
name = "Jun 7 20, 14:12";
paths = (
{
closed = 1;
nodes = (
"148 0 LINE",
"148 412 LINE SMOOTH",
"148 528 OFFCURVE",
"212 600 OFFCURVE",
"324 600 CURVE",
"260 580 OFFCURVE",
"216 536 OFFCURVE",
"216 464 CURVE SMOOTH",
"216 376 OFFCURVE",
"283 333 OFFCURVE",
"360 300 CURVE SMOOTH",
"443 265 OFFCURVE",
"514 244 OFFCURVE",
"514 164 CURVE SMOOTH",
"514 100 OFFCURVE",
"471 64 OFFCURVE",
"412 64 CURVE SMOOTH",
"338 64 OFFCURVE",
"282 126 OFFCURVE",
"278 212 CURVE",
"186 188 LINE",
"194 70 OFFCURVE",
"285 -16 OFFCURVE",
"404 -16 CURVE SMOOTH",
"512 -16 OFFCURVE",
"604 50 OFFCURVE",
"604 168 CURVE SMOOTH",
"604 280 OFFCURVE",
"520 322 OFFCURVE",
"424 360 CURVE SMOOTH",
"364 384 OFFCURVE",
"296 406 OFFCURVE",
"296 472 CURVE SMOOTH",
"296 529 OFFCURVE",
"345 554 OFFCURVE",
"404 554 CURVE SMOOTH",
"438 554 OFFCURVE",
"472 544 OFFCURVE",
"512 514 CURVE",
"514 582 LINE",
"458 634 OFFCURVE",
"381 666 OFFCURVE",
"306 666 CURVE SMOOTH",
"174 666 OFFCURVE",
"64 568 OFFCURVE",
"64 432 CURVE SMOOTH",
"64 0 LINE"
);
}
);
width = 628;
},
{
layerId = "ADDE491E-C0C4-4659-943C-53377B387F47";
paths = (
{
closed = 1;
nodes = (
"581 -12 OFFCURVE",
"668 65 OFFCURVE",
"668 172 CURVE SMOOTH",
"668 360 OFFCURVE",
"416 352 OFFCURVE",
"416 448 CURVE SMOOTH",
"416 488 OFFCURVE",
"459 512 OFFCURVE",
"512 512 CURVE SMOOTH",
"540 512 OFFCURVE",
"569 505 OFFCURVE",
"584 496 CURVE",
"612 616 LINE",
"556 646 OFFCURVE",
"476 662 OFFCURVE",
"396 662 CURVE SMOOTH",
"196 662 OFFCURVE",
"52 556 OFFCURVE",
"52 400 CURVE SMOOTH",
"52 0 LINE",
"200 0 LINE",
"200 368 LINE SMOOTH",
"200 491 OFFCURVE",
"273 560 OFFCURVE",
"404 560 CURVE",
"340 544 OFFCURVE",
"300 500 OFFCURVE",
"300 440 CURVE SMOOTH",
"300 292 OFFCURVE",
"528 292 OFFCURVE",
"528 180 CURVE SMOOTH",
"528 142 OFFCURVE",
"500 116 OFFCURVE",
"464 116 CURVE SMOOTH",
"420 116 OFFCURVE",
"388 152 OFFCURVE",
"386 208 CURVE",
"236 184 LINE",
"240 68 OFFCURVE",
"329 -12 OFFCURVE",
"460 -12 CURVE SMOOTH"
);
}
);
width = 688;
},
{
layerId = m003;
paths = (
{
closed = 1;
nodes = (
"148 0 LINE",
"148 430 LINE SMOOTH",
"148 526 OFFCURVE",
"220 596 OFFCURVE",
"332 596 CURVE",
"264 576 OFFCURVE",
"216 524 OFFCURVE",
"216 456 CURVE SMOOTH",
"216 268 OFFCURVE",
"514 320 OFFCURVE",
"514 164 CURVE SMOOTH",
"514 105 OFFCURVE",
"467 68 OFFCURVE",
"408 68 CURVE SMOOTH",
"334 68 OFFCURVE",
"282 127 OFFCURVE",
"278 208 CURVE",
"186 184 LINE",
"194 70 OFFCURVE",
"289 -12 OFFCURVE",
"408 -12 CURVE SMOOTH",
"524 -12 OFFCURVE",
"604 66 OFFCURVE",
"604 172 CURVE SMOOTH",
"604 384 OFFCURVE",
"296 336 OFFCURVE",
"296 468 CURVE SMOOTH",
"296 519 OFFCURVE",
"349 550 OFFCURVE",
"404 550 CURVE SMOOTH",
"444 550 OFFCURVE",
"481 533 OFFCURVE",
"512 510 CURVE",
"514 578 LINE",
"469 627 OFFCURVE",
"394 662 OFFCURVE",
"312 662 CURVE SMOOTH",
"177 662 OFFCURVE",
"64 568 OFFCURVE",
"64 438 CURVE SMOOTH",
"64 0 LINE"
);
}
);
width = 628;
}
);
leftKerningGroup = U;
rightKerningGroup = B;
unicode = 1E9E;
},
{
color = 10;
glyphname = T;
lastChange = "2021-05-16 10:49:57 +0000";
layers = (
{
anchors = (
{
name = bottom;
position = "{276, 0}";
},
{
name = top;
position = "{276, 618}";
}
);
layerId = "8007C042-6FBA-4E49-99B8-8B738A4EBE86";
paths = (
{
closed = 1;
nodes = (
"318 0 LINE",
"318 590 LINE",
"234 590 LINE",
"234 0 LINE"
);
},
{
closed = 1;
nodes = (
"550 570 LINE",
"550 650 LINE",
"2 650 LINE",
"2 570 LINE"
);
}
);
width = 552;
},
{
anchors = (
{
name = bottom;
position = "{282, 0}";
},
{
name = top;
position = "{282, 634}";
}
);
layerId = "ADDE491E-C0C4-4659-943C-53377B387F47";
paths = (
{
closed = 1;
nodes = (
"356 0 LINE",
"356 530 LINE",
"208 530 LINE",
"208 0 LINE"
);
},
{
closed = 1;
nodes = (
"562 510 LINE",
"562 650 LINE",
"2 650 LINE",
"2 510 LINE"
);
}
);
width = 564;
},
{
anchors = (
{
name = bottom;
position = "{276, 0}";
},
{
name = top;
position = "{276, 618}";
}
);
components = (
{
name = inkstem_M;
transform = "{0, -1, 1, 0, -210, 910}";
},
{
name = inkstem_M;
transform = "{0, -1, 1, 0, 162, 910}";
},
{
name = inkstem_L;
transform = "{1, 0, 0, 1, -24, 12}";
},
{
name = inkstem_S;
transform = "{1, 0, 0, 1, -24, -240}";
}
);
layerId = m003;
paths = (
{
closed = 1;
nodes = (
"318 0 LINE",
"318 527 LINE SMOOTH",
"318 535 OFFCURVE",
"313 542 OFFCURVE",
"305 545 CURVE SMOOTH",
"296 549 OFFCURVE",
"290 559 OFFCURVE",
"290 570 CURVE SMOOTH",
"290 586 OFFCURVE",
"302 598 OFFCURVE",
"318 598 CURVE SMOOTH",
"329 598 OFFCURVE",
"339 592 OFFCURVE",
"343 583 CURVE SMOOTH",
"346 575 OFFCURVE",
"353 570 OFFCURVE",
"361 570 CURVE SMOOTH",
"550 570 LINE",
"550 650 LINE",
"2 650 LINE",
"2 570 LINE",
"191 570 LINE SMOOTH",
"199 570 OFFCURVE",
"206 575 OFFCURVE",
"209 583 CURVE SMOOTH",
"213 592 OFFCURVE",
"223 598 OFFCURVE",
"234 598 CURVE SMOOTH",
"250 598 OFFCURVE",
"262 586 OFFCURVE",
"262 570 CURVE SMOOTH",
"262 559 OFFCURVE",
"256 549 OFFCURVE",
"247 545 CURVE SMOOTH",
"239 542 OFFCURVE",
"234 535 OFFCURVE",
"234 527 CURVE SMOOTH",
"234 0 LINE"
);
}
);
width = 552;
}
);
leftKerningGroup = T;
rightKerningGroup = T;
unicode = 0054;
},
{
color = 10;
glyphname = U;
lastChange = "2021-05-16 10:50:07 +0000";
layers = (
{
anchors = (
{
name = ogonek;
position = "{448, 0}";
},
{
name = top;
position = "{320, 618}";
}
);
layerId = "8007C042-6FBA-4E49-99B8-8B738A4EBE86";
paths = (
{
closed = 1;
nodes = (
"56 103 OFFCURVE",
"166 -12 OFFCURVE",
"318 -12 CURVE SMOOTH",
"470 -12 OFFCURVE",
"580 103 OFFCURVE",
"580 262 CURVE SMOOTH",
"580 650 LINE",
"496 650 LINE",
"496 264 LINE SMOOTH",
"496 153 OFFCURVE",
"421 72 OFFCURVE",
"318 72 CURVE SMOOTH",
"215 72 OFFCURVE",
"140 153 OFFCURVE",
"140 264 CURVE SMOOTH",
"140 650 LINE",
"56 650 LINE",
"56 262 LINE SMOOTH"
);
}
);
width = 636;
},
{
anchors = (
{
name = ogonek;
position = "{468, 0}";
},
{
name = top;
position = "{320, 634}";
}
);
layerId = "ADDE491E-C0C4-4659-943C-53377B387F47";
paths = (
{
closed = 1;
nodes = (
"48 106 OFFCURVE",
"161 -12 OFFCURVE",
"318 -12 CURVE SMOOTH",
"475 -12 OFFCURVE",
"588 106 OFFCURVE",
"588 268 CURVE SMOOTH",
"588 650 LINE",
"440 650 LINE",
"440 272 LINE SMOOTH",
"440 191 OFFCURVE",
"389 132 OFFCURVE",
"318 132 CURVE SMOOTH",
"247 132 OFFCURVE",
"196 191 OFFCURVE",
"196 272 CURVE SMOOTH",
"196 650 LINE",
"48 650 LINE",
"48 268 LINE SMOOTH"
);
}
);
width = 636;
},
{
anchors = (
{
name = ogonek;
position = "{448, 0}";
},
{
name = top;
position = "{320, 618}";
}
);
components = (
{
name = inkstem_L;
transform = "{1, 0, 0, 1, 238, 240}";
},
{
name = inkstem_L;
transform = "{1, 0, 0, 1, -202, 240}";
},
{
name = inkstem_M;
transform = "{1, 0, 0, 1, -202, 34}";
},
{
name = inkstem_M;
transform = "{1, 0, 0, 1, 238, 34}";
},
{
name = inkcurve;
transform = "{1, 0, 0, 1, 18, -268}";
},
{
name = inkstem_S;
transform = "{1, 0, 0, 1, 194, -180}";
},
{
name = inkstem_S;
transform = "{1, 0, 0, 1, -158, -180}";
}
);
layerId = m003;
paths = (
{
closed = 1;
nodes = (
"56 103 OFFCURVE",
"166 -12 OFFCURVE",
"318 -12 CURVE SMOOTH",
"470 -12 OFFCURVE",
"580 103 OFFCURVE",
"580 262 CURVE SMOOTH",
"580 650 LINE",
"496 650 LINE",
"496 264 LINE SMOOTH",
"496 153 OFFCURVE",
"421 72 OFFCURVE",
"318 72 CURVE SMOOTH",
"215 72 OFFCURVE",
"140 153 OFFCURVE",
"140 264 CURVE SMOOTH",
"140 650 LINE",
"56 650 LINE",
"56 262 LINE SMOOTH"
);
}
);
width = 636;
}
);
leftKerningGroup = U;
rightKerningGroup = U;
unicode = 0055;
},
{
glyphname = Uogonek;
lastChange = "2021-05-16 11:25:04 +0000";
layers = (
{
components = (
{
name = U;
}
);
layerId = "8007C042-6FBA-4E49-99B8-8B738A4EBE86";
paths = (
{
closed = 1;
nodes = (
"348 -28 OFFCURVE",
"312 -68 OFFCURVE",
"312 -108 CURVE SMOOTH",
"312 -164 OFFCURVE",
"352 -190 OFFCURVE",
"416 -190 CURVE SMOOTH",
"428 -190 OFFCURVE",
"442 -189 OFFCURVE",
"450 -188 CURVE",
"448 -129 LINE",
"442 -130 OFFCURVE",
"435 -130 OFFCURVE",
"432 -130 CURVE SMOOTH",
"404 -130 OFFCURVE",
"384 -116 OFFCURVE",
"384 -88 CURVE SMOOTH",
"384 -40 OFFCURVE",
"416 -10 OFFCURVE",
"480 42 CURVE",
"392 0 LINE"
);
}
);
width = 636;
},
{
associatedMasterId = "8007C042-6FBA-4E49-99B8-8B738A4EBE86";
components = (
{
name = U;
},
{
name = ogonekcomb;
transform = "{1, 0, 0, 1, 84, 0}";
}
);
layerId = "F28ED77D-3D93-44D5-AC20-9E2DF3B3EFD7";
name = "Apr 25 20, 18:38";
width = 636;
},
{
associatedMasterId = "8007C042-6FBA-4E49-99B8-8B738A4EBE86";
components = (
{
name = U;
}
);
layerId = "C3F693A9-50AB-48CD-83E5-35EA917BB73A";
name = "Jun 1 20, 21:43";
paths = (
{
closed = 1;
nodes = (
"327 -32 OFFCURVE",
"303 -68 OFFCURVE",
"303 -112 CURVE SMOOTH",
"303 -164 OFFCURVE",
"339 -190 OFFCURVE",
"403 -190 CURVE SMOOTH",
"415 -190 OFFCURVE",
"425 -189 OFFCURVE",
"433 -188 CURVE",
"431 -129 LINE",
"425 -130 OFFCURVE",
"418 -130 OFFCURVE",
"415 -130 CURVE SMOOTH",
"387 -130 OFFCURVE",
"367 -120 OFFCURVE",
"367 -92 CURVE SMOOTH",
"367 -60 OFFCURVE",
"387 -36 OFFCURVE",
"427 0 CURVE SMOOTH",
"437 9 OFFCURVE",
"448 16 OFFCURVE",
"460 24 CURVE",
"375 0 LINE"
);
}
);
width = 636;
},
{
components = (
{
name = U;
}
);
layerId = "ADDE491E-C0C4-4659-943C-53377B387F47";
paths = (
{
closed = 1;
nodes = (
"320 -28 OFFCURVE",
"284 -72 OFFCURVE",
"284 -120 CURVE SMOOTH",
"284 -172 OFFCURVE",
"328 -208 OFFCURVE",
"404 -208 CURVE SMOOTH",
"432 -208 OFFCURVE",
"453 -205 OFFCURVE",
"478 -200 CURVE",
"468 -123 LINE",
"462 -124 OFFCURVE",
"455 -124 OFFCURVE",
"452 -124 CURVE SMOOTH",
"426 -124 OFFCURVE",
"412 -111 OFFCURVE",
"412 -88 CURVE SMOOTH",
"412 -37 OFFCURVE",
"462 14 OFFCURVE",
"516 72 CURVE",
"388 0 LINE"
);
}
);
width = 636;
},
{
associatedMasterId = "ADDE491E-C0C4-4659-943C-53377B387F47";
components = (
{
name = U;
}
);
layerId = "6B7FB5EC-44FF-40A2-A2EE-D28AA9FB5E55";
name = "Nov 2 20, 17:06";
paths = (
{
closed = 1;
nodes = (
"292 -28 OFFCURVE",
"256 -68 OFFCURVE",
"256 -116 CURVE SMOOTH",
"256 -168 OFFCURVE",
"300 -200 OFFCURVE",
"376 -200 CURVE SMOOTH",
"404 -200 OFFCURVE",
"425 -197 OFFCURVE",
"450 -192 CURVE",
"440 -119 LINE",
"434 -120 OFFCURVE",
"427 -120 OFFCURVE",
"424 -120 CURVE SMOOTH",
"398 -120 OFFCURVE",
"384 -107 OFFCURVE",
"384 -84 CURVE SMOOTH",
"384 -60 OFFCURVE",
"400 -32 OFFCURVE",
"436 0 CURVE SMOOTH",
"452 15 OFFCURVE",
"472 31 OFFCURVE",
"488 46 CURVE",
"360 0 LINE"
);
}
);
width = 636;
},
{
associatedMasterId = "8007C042-6FBA-4E49-99B8-8B738A4EBE86";
components = (
{
name = U;
}
);
layerId = "7BAD803B-BC34-49B9-ADC1-0BC68847DC77";
name = "Nov 2 20, 17:10";
paths = (
{
closed = 1;
nodes = (
"340 -28 OFFCURVE",
"304 -68 OFFCURVE",
"304 -108 CURVE SMOOTH",
"304 -164 OFFCURVE",
"344 -190 OFFCURVE",
"408 -190 CURVE SMOOTH",
"420 -190 OFFCURVE",
"434 -189 OFFCURVE",
"442 -188 CURVE",
"440 -129 LINE",
"434 -130 OFFCURVE",
"429 -130 OFFCURVE",
"426 -130 CURVE SMOOTH",
"398 -130 OFFCURVE",
"380 -116 OFFCURVE",
"380 -88 CURVE SMOOTH",
"380 -40 OFFCURVE",
"420 -4 OFFCURVE",
"472 36 CURVE",
"384 0 LINE"
);
}
);
width = 636;
},
{
components = (
{
name = U;
},
{
name = inkstem_S;
transform = "{1, 0, 0, 1, 61, -435}";
}
);
layerId = m003;
paths = (
{
closed = 1;
nodes = (
"348 -28 OFFCURVE",
"312 -68 OFFCURVE",
"312 -108 CURVE SMOOTH",
"312 -164 OFFCURVE",
"352 -190 OFFCURVE",
"416 -190 CURVE SMOOTH",
"428 -190 OFFCURVE",
"442 -189 OFFCURVE",
"450 -188 CURVE",
"448 -129 LINE",
"442 -130 OFFCURVE",
"435 -130 OFFCURVE",
"432 -130 CURVE SMOOTH",
"404 -130 OFFCURVE",
"384 -116 OFFCURVE",
"384 -88 CURVE SMOOTH",
"384 -40 OFFCURVE",
"416 -10 OFFCURVE",
"480 42 CURVE",
"392 0 LINE"
);
}
);
width = 636;
}
);
leftKerningGroup = U;
leftMetricsKey = U;
rightKerningGroup = U;
rightMetricsKey = U;
unicode = 0172;
},
{
color = 10;
glyphname = V;
lastChange = "2021-05-16 10:50:13 +0000";
layers = (
{
layerId = "8007C042-6FBA-4E49-99B8-8B738A4EBE86";
paths = (
{
closed = 1;
nodes = (
"242 0 LINE",
"338 0 LINE",
"572 650 LINE",
"482 650 LINE",
"292 102 LINE",
"96 650 LINE",
"4 650 LINE"
);
}
);
width = 576;
},
{
associatedMasterId = "8007C042-6FBA-4E49-99B8-8B738A4EBE86";
background = {
paths = (
{
closed = 1;
nodes = (
"386 0 LINE",
"681 722 LINE",
"577 722 LINE",
"454 420 LINE SMOOTH",
"410 308 OFFCURVE",
"361 173 OFFCURVE",
"340 114 CURVE",
"339 114 LINE",
"317 173 OFFCURVE",
"267 309 OFFCURVE",
"222 420 CURVE SMOOTH",
"98 722 LINE",
"-7 722 LINE",
"288 0 LINE"
);
}
);
};
layerId = "57B88EFD-678B-47B8-980E-4CDFF332BD59";
name = "Feb 23 19, 22:00";
paths = (
{
closed = 1;
nodes = (
"274 0 LINE",
"358 0 LINE",
"624 650 LINE",
"527 650 LINE",
"413 356 LINE SMOOTH",
"385 287 OFFCURVE",
"345 178 OFFCURVE",
"318 104 CURVE",
"289 181 OFFCURVE",
"247 290 OFFCURVE",
"220 356 CURVE SMOOTH",
"102 650 LINE",
"4 650 LINE"
);
}
);
width = 628;
},
{
layerId = "ADDE491E-C0C4-4659-943C-53377B387F47";
paths = (
{
closed = 1;
nodes = (
"212 0 LINE",
"404 0 LINE",
"614 650 LINE",
"454 650 LINE",
"312 144 LINE",
"166 650 LINE",
"2 650 LINE"
);
}
);
width = 616;
},
{
components = (
{
name = inkstem_S;
transform = "{1, 0, 0, 1, -228, 292}";
},
{
name = inkstem_S;
transform = "{1, 0, 0, 1, 206, 292}";
},
{
name = inkstem_M;
transform = "{-0.93358, -0.35837, -0.35837, 0.93358, 528, 230}";
},
{
name = inkstem_M;
transform = "{0.93969, -0.34202, 0.34202, 0.93969, 54, 222}";
},
{
name = inkstem_S;
transform = "{1, 0, 0, 1, 88, -42}";
},
{
name = inkstem_S;
transform = "{1, 0, 0, 1, -108, -42}";
}
);
layerId = m003;
paths = (
{
closed = 1;
nodes = (
"338 0 LINE",
"572 650 LINE",
"482 650 LINE",
"307 146 LINE SMOOTH",
"305 139 OFFCURVE",
"307 131 OFFCURVE",
"312 126 CURVE SMOOTH",
"317 121 OFFCURVE",
"320 114 OFFCURVE",
"320 106 CURVE SMOOTH",
"320 90 OFFCURVE",
"308 78 OFFCURVE",
"292 78 CURVE SMOOTH",
"276 78 OFFCURVE",
"264 90 OFFCURVE",
"264 106 CURVE SMOOTH",
"264 114 OFFCURVE",
"267 121 OFFCURVE",
"272 126 CURVE SMOOTH",
"277 131 OFFCURVE",
"280 139 OFFCURVE",
"277 146 CURVE SMOOTH",
"96 650 LINE",
"4 650 LINE",
"242 0 LINE"
);
}
);
width = 576;
}
);
leftKerningGroup = V;
rightKerningGroup = V;
unicode = 0056;
},
{
color = 10;
glyphname = W;
lastChange = "2021-05-16 10:50:19 +0000";
layers = (
{
layerId = "8007C042-6FBA-4E49-99B8-8B738A4EBE86";
paths = (
{
closed = 1;
nodes = (
"118 0 LINE",
"234 0 LINE",
"366 520 LINE",
"496 0 LINE",
"612 0 LINE",
"696 650 LINE",
"610 650 LINE",
"548 110 LINE",
"414 648 LINE",
"322 648 LINE",
"186 112 LINE",
"128 650 LINE",
"40 650 LINE"
);
}
);
width = 736;
},
{
layerId = "ADDE491E-C0C4-4659-943C-53377B387F47";
paths = (
{
closed = 1;
nodes = (
"102 0 LINE",
"288 0 LINE",
"390 500 LINE",
"494 0 LINE",
"672 0 LINE",
"744 650 LINE",
"592 650 LINE",
"546 172 LINE",
"452 648 LINE",
"330 648 LINE",
"236 172 LINE",
"190 650 LINE",
"34 650 LINE"
);
}
);
width = 780;
},
{
associatedMasterId = "ADDE491E-C0C4-4659-943C-53377B387F47";
layerId = "3B062477-9D9C-45BD-AAA5-B9B098EF5799";
name = "Apr 1 21, 16:22";
paths = (
{
closed = 1;
nodes = (
"102 0 LINE",
"302 0 LINE",
"390 488 LINE",
"480 0 LINE",
"672 0 LINE",
"744 650 LINE",
"592 650 LINE",
"546 172 LINE",
"459 648 LINE",
"325 648 LINE",
"236 172 LINE",
"190 650 LINE",
"34 650 LINE"
);
}
);
width = 780;
},
{
components = (
{
name = inkstem_S;
transform = "{1, 0, 0, 1, -209, 292}";
},
{
name = inkstem_S;
transform = "{1, 0, 0, 1, 346, 292}";
},
{
name = inkstem_M;
transform = "{-0.96593, 0.25882, 0.25882, 0.96593, 479, -88}";
},
{
name = inkstem_S;
transform = "{0.96117, 0, 0, 0.96117, 17, 142}";
},
{
name = inkstem_M;
transform = "{0.96593, 0.25882, -0.25882, 0.96593, 254, -88}";
},
{
name = inkstem_S;
transform = "{1, 0, 0, 1, 305, -44}";
},
{
name = inkstem_S;
transform = "{1, 0, 0, 1, -171, -44}";
},
{
name = inkstem_M;
transform = "{-0.99452, -0.10453, -0.10453, 0.99452, 442, 133}";
},
{
name = inkstem_M;
transform = "{0.99144, -0.13053, 0.13053, 0.99144, 286, 142}";
},
{
name = inkstem_S;
transform = "{0.96117, 0, 0, 0.96117, 140, 142}";
}
);
layerId = m003;
paths = (
{
closed = 1;
nodes = (
"341 512 OFFCURVE",
"338 519 OFFCURVE",
"338 528 CURVE SMOOTH",
"338 544 OFFCURVE",
"350 556 OFFCURVE",
"366 556 CURVE SMOOTH",
"382 556 OFFCURVE",
"394 544 OFFCURVE",
"394 528 CURVE SMOOTH",
"394 519 OFFCURVE",
"391 512 OFFCURVE",
"385 507 CURVE SMOOTH",
"376 500 OFFCURVE",
"373 491 OFFCURVE",
"376 480 CURVE SMOOTH",
"496 0 LINE",
"612 0 LINE",
"696 650 LINE",
"610 650 LINE",
"553 159 LINE SMOOTH",
"552 147 OFFCURVE",
"555 139 OFFCURVE",
"562 133 CURVE SMOOTH",
"570 126 OFFCURVE",
"576 119 OFFCURVE",
"576 108 CURVE SMOOTH",
"576 92 OFFCURVE",
"564 80 OFFCURVE",
"548 80 CURVE SMOOTH",
"532 80 OFFCURVE",
"520 92 OFFCURVE",
"520 108 CURVE SMOOTH",
"520 117 OFFCURVE",
"524 125 OFFCURVE",
"530 130 CURVE SMOOTH",
"537 137 OFFCURVE",
"539 149 OFFCURVE",
"536 159 CURVE SMOOTH",
"414 648 LINE",
"322 648 LINE",
"198 159 LINE SMOOTH",
"195 149 OFFCURVE",
"197 137 OFFCURVE",
"204 130 CURVE SMOOTH",
"210 125 OFFCURVE",
"214 117 OFFCURVE",
"214 108 CURVE SMOOTH",
"214 92 OFFCURVE",
"202 80 OFFCURVE",
"186 80 CURVE SMOOTH",
"170 80 OFFCURVE",
"158 92 OFFCURVE",
"158 108 CURVE SMOOTH",
"158 119 OFFCURVE",
"164 126 OFFCURVE",
"172 133 CURVE SMOOTH",
"179 139 OFFCURVE",
"182 147 OFFCURVE",
"181 159 CURVE SMOOTH",
"128 650 LINE",
"40 650 LINE",
"118 0 LINE",
"234 0 LINE",
"356 480 LINE SMOOTH",
"359 491 OFFCURVE",
"356 500 OFFCURVE",
"347 507 CURVE SMOOTH"
);
}
);
width = 736;
}
);
leftKerningGroup = W;
note = "make alternate";
rightKerningGroup = W;
unicode = 0057;
},
{
color = 10;
glyphname = X;
lastChange = "2021-05-16 10:51:41 +0000";
layers = (
{
layerId = "8007C042-6FBA-4E49-99B8-8B738A4EBE86";
paths = (
{
closed = 1;
nodes = (
"588 0 LINE",
"348 332 LINE",
"572 650 LINE",
"468 650 LINE",
"298 404 LINE",
"120 650 LINE",
"14 650 LINE",
"244 332 LINE",
"8 0 LINE",
"116 0 LINE",
"296 260 LINE",
"484 0 LINE"
);
}
);
width = 596;
},
{
layerId = "ADDE491E-C0C4-4659-943C-53377B387F47";
paths = (
{
closed = 1;
nodes = (
"230 326 LINE",
"8 650 LINE",
"200 650 LINE",
"312 448 LINE",
"416 650 LINE",
"604 650 LINE",
"394 332 LINE",
"620 0 LINE",
"426 0 LINE",
"312 208 LINE",
"196 0 LINE",
"4 0 LINE"
);
}
);
width = 624;
},
{
associatedMasterId = "ADDE491E-C0C4-4659-943C-53377B387F47";
layerId = "81B96D6D-4D08-4611-8323-1630D5F59A83";
name = "Jun 16 20, 21:46";
paths = (
{
closed = 1;
nodes = (
"200 650 LINE",
"620 0 LINE",
"426 0 LINE",
"8 650 LINE"
);
},
{
closed = 1;
nodes = (
"604 650 LINE",
"196 0 LINE",
"4 0 LINE",
"416 650 LINE"
);
}
);
width = 624;
},
{
associatedMasterId = "8007C042-6FBA-4E49-99B8-8B738A4EBE86";
layerId = "E19D4F8B-3924-455F-A75B-883185881DEF";
name = "5. 5. 21, 10:19";
paths = (
{
closed = 1;
nodes = (
"588 0 LINE",
"120 650 LINE",
"14 650 LINE",
"484 0 LINE"
);
},
{
closed = 1;
nodes = (
"116 0 LINE",
"572 650 LINE",
"468 650 LINE",
"8 0 LINE"
);
}
);
width = 596;
},
{
components = (
{
name = inkstem_M;
transform = "{-0.80902, 0.58779, 0.58779, 0.80902, 187, -336}";
},
{
name = inkstem_M;
transform = "{0.80902, 0.58779, -0.58779, 0.80902, 410, -336}";
},
{
name = inkstem_L;
transform = "{0.80902, 0.58779, 0.58779, -0.80902, -280, 618}";
},
{
name = inkstem_L;
transform = "{0.81915, -0.57358, -0.57358, -0.81915, 377, 968}";
}
);
layerId = m003;
paths = (
{
closed = 1;
nodes = (
"116 0 LINE",
"274 228 LINE SMOOTH",
"285 244 OFFCURVE",
"270 253 OFFCURVE",
"270 271 CURVE SMOOTH",
"270 287 OFFCURVE",
"282 299 OFFCURVE",
"298 299 CURVE SMOOTH",
"314 299 OFFCURVE",
"326 287 OFFCURVE",
"326 271 CURVE SMOOTH",
"326 253 OFFCURVE",
"309 242 OFFCURVE",
"320 227 CURVE SMOOTH",
"484 0 LINE",
"588 0 LINE",
"348 332 LINE",
"572 650 LINE",
"468 650 LINE",
"320 436 LINE SMOOTH",
"309 421 OFFCURVE",
"326 410 OFFCURVE",
"326 392 CURVE SMOOTH",
"326 376 OFFCURVE",
"314 364 OFFCURVE",
"298 364 CURVE SMOOTH",
"282 364 OFFCURVE",
"270 376 OFFCURVE",
"270 392 CURVE SMOOTH",
"270 410 OFFCURVE",
"286 421 OFFCURVE",
"274 437 CURVE SMOOTH",
"120 650 LINE",
"14 650 LINE",
"244 332 LINE",
"8 0 LINE"
);
}
);
width = 596;
}
);
leftKerningGroup = X;
rightKerningGroup = X;
unicode = 0058;
},
{
color = 10;
glyphname = Y;
lastChange = "2021-05-16 10:54:15 +0000";
layers = (
{
anchors = (
{
name = top;
position = "{280, 618}";
}
);
layerId = "8007C042-6FBA-4E49-99B8-8B738A4EBE86";
paths = (
{
closed = 1;
nodes = (
"240 184 LINE",
"240 0 LINE",
"324 0 LINE",
"324 184 LINE",
"546 650 LINE",
"450 650 LINE",
"283 284 LINE",
"100 650 LINE",
"2 650 LINE"
);
}
);
width = 548;
},
{
associatedMasterId = "8007C042-6FBA-4E49-99B8-8B738A4EBE86";
background = {
paths = (
{
closed = 1;
nodes = (
"425 509 LINE SMOOTH",
"446 546 OFFCURVE",
"532 684 OFFCURVE",
"589 684 CURVE SMOOTH",
"591 684 LINE SMOOTH",
"598 684 OFFCURVE",
"601 693 OFFCURVE",
"593 693 CURVE SMOOTH",
"569 693 OFFCURVE",
"497 691 OFFCURVE",
"484 691 CURVE SMOOTH",
"467 691 OFFCURVE",
"396 693 OFFCURVE",
"379 693 CURVE SMOOTH",
"368 693 OFFCURVE",
"367 690 OFFCURVE",
"367 687 CURVE SMOOTH",
"367 683 OFFCURVE",
"369 681 OFFCURVE",
"374 681 CURVE SMOOTH",
"378 681 OFFCURVE",
"394 685 OFFCURVE",
"402 685 CURVE SMOOTH",
"499 685 OFFCURVE",
"437 551 OFFCURVE",
"414 512 CURVE SMOOTH",
"308 329 LINE",
"213 504 LINE SMOOTH",
"138 640 OFFCURVE",
"121 684 OFFCURVE",
"171 684 CURVE SMOOTH",
"192 684 LINE SMOOTH",
"200 684 OFFCURVE",
"197 693 OFFCURVE",
"189 693 CURVE SMOOTH",
"160 693 OFFCURVE",
"84 690 OFFCURVE",
"68 690 CURVE SMOOTH",
"52 690 OFFCURVE",
"-2 693 OFFCURVE",
"-31 693 CURVE SMOOTH",
"-35 693 OFFCURVE",
"-37 691 OFFCURVE",
"-37 688 CURVE SMOOTH",
"-37 685 OFFCURVE",
"-35 684 OFFCURVE",
"-30 684 CURVE SMOOTH",
"-22 684 LINE SMOOTH",
"29 684 OFFCURVE",
"55 648 OFFCURVE",
"132 509 CURVE SMOOTH",
"240 314 LINE",
"240 259 LINE SMOOTH",
"240 14 OFFCURVE",
"235 9 OFFCURVE",
"186 9 CURVE SMOOTH",
"168 9 LINE SMOOTH",
"160 9 OFFCURVE",
"160 0 OFFCURVE",
"168 0 CURVE SMOOTH",
"196 0 OFFCURVE",
"265 3 OFFCURVE",
"278 3 CURVE SMOOTH",
"293 3 OFFCURVE",
"358 0 OFFCURVE",
"387 0 CURVE SMOOTH",
"395 0 OFFCURVE",
"395 9 OFFCURVE",
"387 9 CURVE SMOOTH",
"369 9 LINE SMOOTH",
"320 9 OFFCURVE",
"315 14 OFFCURVE",
"315 259 CURVE SMOOTH",
"315 317 LINE"
);
}
);
};
layerId = "2ADF27FC-6232-4EBB-9E69-D86F2679D504";
name = "Oct 31 17, 19:51";
paths = (
{
closed = 1;
nodes = (
"326 292 LINE",
"560 700 LINE",
"470 700 LINE",
"287 372 LINE",
"104 700 LINE",
"8 700 LINE",
"244 292 LINE"
);
},
{
closed = 1;
nodes = (
"244 0 LINE",
"326 0 LINE",
"326 292 LINE",
"244 292 LINE"
);
}
);
width = 568;
},
{
associatedMasterId = "8007C042-6FBA-4E49-99B8-8B738A4EBE86";
background = {
paths = (
{
closed = 1;
nodes = (
"359 269 LINE",
"612 647 LINE",
"507 647 LINE",
"314 349 LINE",
"121 647 LINE",
"16 647 LINE",
"267 268 LINE",
"267 0 LINE",
"359 0 LINE"
);
}
);
};
layerId = "A33645F9-06A2-44A2-8DE8-DC88A6F050E3";
name = "Oct 2 18, 11:23";
paths = (
{
closed = 1;
nodes = (
"345 272 LINE",
"588 650 LINE",
"502 650 LINE",
"307 348 LINE",
"108 650 LINE",
"16 650 LINE",
"267 272 LINE"
);
},
{
closed = 1;
nodes = (
"267 0 LINE",
"345 0 LINE",
"345 272 LINE",
"267 272 LINE"
);
}
);
width = 600;
},
{
associatedMasterId = "8007C042-6FBA-4E49-99B8-8B738A4EBE86";
background = {
paths = (
{
closed = 1;
nodes = (
"377 0 LINE",
"377 243 LINE",
"669 722 LINE",
"562 722 LINE",
"333 348 LINE",
"104 722 LINE",
"-7 722 LINE",
"286 243 LINE",
"286 0 LINE"
);
}
);
};
layerId = "9F5BEEA2-B627-4FC0-9F8D-42E4200A9D01";
name = "May 8 19, 22:40";
paths = (
{
closed = 1;
nodes = (
"333 228 LINE",
"572 650 LINE",
"482 650 LINE",
"294 310 LINE",
"96 650 LINE",
"2 650 LINE",
"251 228 LINE"
);
},
{
closed = 1;
nodes = (
"251 0 LINE",
"333 0 LINE",
"333 228 LINE",
"251 228 LINE"
);
}
);
width = 574;
},
{
anchors = (
{
name = top;
position = "{312, 634}";
}
);
layerId = "ADDE491E-C0C4-4659-943C-53377B387F47";
paths = (
{
closed = 1;
nodes = (
"234 188 LINE",
"234 0 LINE",
"382 0 LINE",
"382 192 LINE",
"600 650 LINE",
"426 650 LINE",
"312 336 LINE",
"178 650 LINE",
"0 650 LINE"
);
}
);
width = 600;
},
{
anchors = (
{
name = top;
position = "{280, 618}";
}
);
components = (
{
name = inkstem_S;
transform = "{-1, 0, 0, 1, 380, 292}";
},
{
name = inkstem_S;
transform = "{-1, 0, 0, 1, 771, 292}";
},
{
name = inkstem_M;
transform = "{-1, 0, 0, -1, 582, 390}";
},
{
name = inkstem_M;
transform = "{0.90631, -0.42262, 0.42262, 0.90631, -16, 257}";
},
{
name = inkstem_M;
transform = "{-0.89101, -0.45399, -0.45399, 0.89101, 580, 272}";
}
);
layerId = m003;
paths = (
{
closed = 1;
nodes = (
"324 0 LINE",
"324 184 LINE",
"546 650 LINE",
"450 650 LINE",
"298 316 LINE SMOOTH",
"295 309 OFFCURVE",
"298 299 OFFCURVE",
"303 294 CURVE SMOOTH",
"308 289 OFFCURVE",
"311 282 OFFCURVE",
"311 274 CURVE SMOOTH",
"311 258 OFFCURVE",
"299 246 OFFCURVE",
"283 246 CURVE SMOOTH",
"267 246 OFFCURVE",
"255 258 OFFCURVE",
"255 274 CURVE SMOOTH",
"255 282 OFFCURVE",
"258 289 OFFCURVE",
"263 294 CURVE SMOOTH",
"268 299 OFFCURVE",
"271 307 OFFCURVE",
"268 314 CURVE SMOOTH",
"100 650 LINE",
"2 650 LINE",
"240 184 LINE",
"240 0 LINE"
);
}
);
width = 548;
}
);
leftKerningGroup = Y;
rightKerningGroup = Y;
unicode = 0059;
},
{
color = 10;
glyphname = Z;
lastChange = "2021-05-16 10:54:12 +0000";
layers = (
{
anchors = (
{
name = top;
position = "{296, 618}";
}
);
layerId = "8007C042-6FBA-4E49-99B8-8B738A4EBE86";
paths = (
{
closed = 1;
nodes = (
"550 0 LINE",
"550 82 LINE",
"148 82 LINE",
"546 568 LINE",
"546 650 LINE",
"48 650 LINE",
"48 570 LINE",
"442 570 LINE",
"40 84 LINE",
"40 0 LINE"
);
}
);
width = 590;
},
{
anchors = (
{
name = top;
position = "{284, 634}";
}
);
layerId = "ADDE491E-C0C4-4659-943C-53377B387F47";
paths = (
{
closed = 1;
nodes = (
"536 0 LINE",
"536 142 LINE",
"192 142 LINE",
"532 514 LINE",
"532 650 LINE",
"48 650 LINE",
"48 510 LINE",
"376 510 LINE",
"32 138 LINE",
"32 0 LINE"
);
}
);
width = 568;
},
{
anchors = (
{
name = top;
position = "{296, 618}";
}
);
components = (
{
name = inkstem_M;
transform = "{0, -1, -1, 0, 560, 910}";
},
{
name = inkstem_S;
transform = "{-1, 0, 0, 1, 406, 310}";
},
{
name = inkstem_S;
transform = "{1, 0, 0, 1, 192, -258}";
},
{
name = inkstem_L;
transform = "{0, -1, 1, 0, 16, 342}";
},
{
name = inkstem_M;
transform = "{0.76604, -0.64279, 0.64279, 0.76604, -160, 250}";
},
{
name = inkstem_S;
transform = "{-1, 0, 0, 1, 680, 130}";
}
);
layerId = m003;
paths = (
{
closed = 1;
nodes = (
"550 0 LINE",
"550 82 LINE",
"164 82 LINE SMOOTH",
"156 82 OFFCURVE",
"150 77 OFFCURVE",
"150 70 CURVE SMOOTH",
"150 54 OFFCURVE",
"138 42 OFFCURVE",
"122 42 CURVE SMOOTH",
"106 42 OFFCURVE",
"94 54 OFFCURVE",
"94 70 CURVE SMOOTH",
"94 86 OFFCURVE",
"106 98 OFFCURVE",
"122 98 CURVE SMOOTH",
"140 98 LINE SMOOTH",
"150 98 OFFCURVE",
"164 102 OFFCURVE",
"170 109 CURVE SMOOTH",
"546 568 LINE",
"546 650 LINE",
"48 650 LINE",
"48 570 LINE",
"426 570 LINE SMOOTH",
"434 570 OFFCURVE",
"440 575 OFFCURVE",
"440 582 CURVE SMOOTH",
"440 598 OFFCURVE",
"452 610 OFFCURVE",
"468 610 CURVE SMOOTH",
"484 610 OFFCURVE",
"496 598 OFFCURVE",
"496 582 CURVE SMOOTH",
"496 566 OFFCURVE",
"484 554 OFFCURVE",
"468 554 CURVE SMOOTH",
"450 554 LINE SMOOTH",
"440 554 OFFCURVE",
"426 550 OFFCURVE",
"420 543 CURVE SMOOTH",
"40 84 LINE",
"40 0 LINE"
);
}
);
width = 590;
}
);
leftKerningGroup = Z;
rightKerningGroup = Z;
unicode = 005A;
},
{
color = 3;
glyphname = S_P_R_I_N_T;
lastChange = "2021-05-16 10:39:01 +0000";
layers = (
{
background = {
paths = (
{
closed = 1;
nodes = (
"48 378 OFFCURVE",
"101 334 OFFCURVE",
"173 334 CURVE SMOOTH",
"237 334 OFFCURVE",
"290 368 OFFCURVE",
"290 430 CURVE SMOOTH",
"290 472 OFFCURVE",
"259 507 OFFCURVE",
"211 517 CURVE SMOOTH",
"151 530 LINE SMOOTH",
"125 536 OFFCURVE",
"108 548 OFFCURVE",
"108 568 CURVE SMOOTH",
"108 592 OFFCURVE",
"131 606 OFFCURVE",
"163 606 CURVE SMOOTH",
"199 606 OFFCURVE",
"220 584 OFFCURVE",
"222 556 CURVE",
"276 566 LINE",
"272 614 OFFCURVE",
"225 654 OFFCURVE",
"165 654 CURVE SMOOTH",
"101 654 OFFCURVE",
"56 618 OFFCURVE",
"56 566 CURVE SMOOTH",
"56 520 OFFCURVE",
"91 490 OFFCURVE",
"143 478 CURVE SMOOTH",
"199 465 LINE SMOOTH",
"220 460 OFFCURVE",
"235 446 OFFCURVE",
"235 426 CURVE SMOOTH",
"235 402 OFFCURVE",
"210 384 OFFCURVE",
"174 384 CURVE SMOOTH",
"129 384 OFFCURVE",
"104 412 OFFCURVE",
"104 450 CURVE",
"44 442 LINE"
);
},
{
closed = 1;
nodes = (
"668 650 LINE",
"668 338 LINE",
"612 338 LINE",
"612 650 LINE"
);
},
{
closed = 1;
nodes = (
"668 512 LINE",
"750 512 LINE SMOOTH",
"776 512 OFFCURVE",
"796 528 OFFCURVE",
"796 554 CURVE SMOOTH",
"796 580 OFFCURVE",
"778 596 OFFCURVE",
"752 596 CURVE SMOOTH",
"668 596 LINE",
"668 650 LINE",
"750 650 LINE SMOOTH",
"812 650 OFFCURVE",
"852 611 OFFCURVE",
"852 555 CURVE SMOOTH",
"852 499 OFFCURVE",
"810 460 OFFCURVE",
"748 460 CURVE SMOOTH",
"668 460 LINE"
);
},
{
closed = 1;
nodes = (
"789 473 LINE",
"860 338 LINE",
"792 338 LINE",
"727 465 LINE"
);
},
{
closed = 1;
nodes = (
"902 338 LINE",
"958 338 LINE",
"958 650 LINE",
"902 650 LINE"
);
},
{
closed = 1;
nodes = (
"1082 338 LINE",
"1082 564 LINE",
"1238 338 LINE",
"1300 338 LINE",
"1300 650 LINE",
"1244 650 LINE",
"1244 426 LINE",
"1094 650 LINE",
"1026 650 LINE",
"1026 338 LINE"
);
},
{
closed = 1;
nodes = (
"1445 338 LINE",
"1503 338 LINE",
"1503 650 LINE",
"1445 650 LINE"
);
},
{
closed = 1;
nodes = (
"1340 593 LINE",
"1607 593 LINE",
"1607 650 LINE",
"1340 650 LINE"
);
},
{
closed = 1;
nodes = (
"389 650 LINE",
"389 338 LINE",
"333 338 LINE",
"333 650 LINE"
);
},
{
closed = 1;
nodes = (
"389 500 LINE",
"471 500 LINE SMOOTH",
"499 500 OFFCURVE",
"517 520 OFFCURVE",
"517 548 CURVE SMOOTH",
"517 576 OFFCURVE",
"499 596 OFFCURVE",
"473 596 CURVE SMOOTH",
"389 596 LINE",
"389 650 LINE",
"471 650 LINE SMOOTH",
"533 650 OFFCURVE",
"573 609 OFFCURVE",
"573 549 CURVE SMOOTH",
"573 489 OFFCURVE",
"531 446 OFFCURVE",
"469 446 CURVE SMOOTH",
"389 446 LINE"
);
}
);
};
layerId = "8007C042-6FBA-4E49-99B8-8B738A4EBE86";
paths = (
{
closed = 1;
nodes = (
"48 378 OFFCURVE",
"101 334 OFFCURVE",
"173 334 CURVE SMOOTH",
"237 334 OFFCURVE",
"290 368 OFFCURVE",
"290 430 CURVE SMOOTH",
"290 472 OFFCURVE",
"259 507 OFFCURVE",
"211 517 CURVE SMOOTH",
"151 530 LINE SMOOTH",
"125 536 OFFCURVE",
"108 548 OFFCURVE",
"108 568 CURVE SMOOTH",
"108 592 OFFCURVE",
"131 606 OFFCURVE",
"163 606 CURVE SMOOTH",
"199 606 OFFCURVE",
"220 584 OFFCURVE",
"222 556 CURVE",
"276 566 LINE",
"272 614 OFFCURVE",
"225 654 OFFCURVE",
"165 654 CURVE SMOOTH",
"101 654 OFFCURVE",
"56 618 OFFCURVE",
"56 566 CURVE SMOOTH",
"56 520 OFFCURVE",
"91 490 OFFCURVE",
"143 478 CURVE SMOOTH",
"199 465 LINE SMOOTH",
"220 460 OFFCURVE",
"235 446 OFFCURVE",
"235 426 CURVE SMOOTH",
"235 402 OFFCURVE",
"210 384 OFFCURVE",
"174 384 CURVE SMOOTH",
"129 384 OFFCURVE",
"104 412 OFFCURVE",
"104 450 CURVE",
"44 442 LINE"
);
},
{
closed = 1;
nodes = (
"668 650 LINE",
"668 338 LINE",
"612 338 LINE",
"612 650 LINE"
);
},
{
closed = 1;
nodes = (
"668 512 LINE",
"750 512 LINE SMOOTH",
"776 512 OFFCURVE",
"796 528 OFFCURVE",
"796 554 CURVE SMOOTH",
"796 580 OFFCURVE",
"778 596 OFFCURVE",
"752 596 CURVE SMOOTH",
"668 596 LINE",
"668 650 LINE",
"750 650 LINE SMOOTH",
"812 650 OFFCURVE",
"852 611 OFFCURVE",
"852 555 CURVE SMOOTH",
"852 499 OFFCURVE",
"810 460 OFFCURVE",
"748 460 CURVE SMOOTH",
"668 460 LINE"
);
},
{
closed = 1;
nodes = (
"789 473 LINE",
"860 338 LINE",
"792 338 LINE",
"727 465 LINE"
);
},
{
closed = 1;
nodes = (
"902 338 LINE",
"958 338 LINE",
"958 650 LINE",
"902 650 LINE"
);
},
{
closed = 1;
nodes = (
"1082 338 LINE",
"1082 564 LINE",
"1238 338 LINE",
"1300 338 LINE",
"1300 650 LINE",
"1244 650 LINE",
"1244 426 LINE",
"1094 650 LINE",
"1026 650 LINE",
"1026 338 LINE"
);
},
{
closed = 1;
nodes = (
"1445 338 LINE",
"1503 338 LINE",
"1503 650 LINE",
"1445 650 LINE"
);
},
{
closed = 1;
nodes = (
"1340 593 LINE",
"1607 593 LINE",
"1607 650 LINE",
"1340 650 LINE"
);
},
{
closed = 1;
nodes = (
"389 650 LINE",
"389 338 LINE",
"333 338 LINE",
"333 650 LINE"
);
},
{
closed = 1;
nodes = (
"389 500 LINE",
"471 500 LINE SMOOTH",
"499 500 OFFCURVE",
"517 520 OFFCURVE",
"517 548 CURVE SMOOTH",
"517 576 OFFCURVE",
"499 596 OFFCURVE",
"473 596 CURVE SMOOTH",
"389 596 LINE",
"389 650 LINE",
"471 650 LINE SMOOTH",
"533 650 OFFCURVE",
"573 609 OFFCURVE",
"573 549 CURVE SMOOTH",
"573 489 OFFCURVE",
"531 446 OFFCURVE",
"469 446 CURVE SMOOTH",
"389 446 LINE"
);
}
);
width = 1627;
},
{
associatedMasterId = "8007C042-6FBA-4E49-99B8-8B738A4EBE86";
layerId = "D791866A-42FA-40E5-9ED5-23A31D96D0F0";
name = "Sep 5 19, 00:52";
paths = (
{
closed = 1;
nodes = (
"108 380 OFFCURVE",
"163 337 OFFCURVE",
"235 337 CURVE SMOOTH",
"302 337 OFFCURVE",
"347 377 OFFCURVE",
"347 434 CURVE SMOOTH",
"347 471 OFFCURVE",
"317 506 OFFCURVE",
"273 515 CURVE SMOOTH",
"212 529 LINE SMOOTH",
"181 535 OFFCURVE",
"161 554 OFFCURVE",
"161 575 CURVE SMOOTH",
"161 605 OFFCURVE",
"187 626 OFFCURVE",
"224 626 CURVE SMOOTH",
"262 626 OFFCURVE",
"293 602 OFFCURVE",
"294 567 CURVE",
"337 579 LINE",
"332 627 OFFCURVE",
"284 662 OFFCURVE",
"226 662 CURVE SMOOTH",
"163 662 OFFCURVE",
"119 625 OFFCURVE",
"119 572 CURVE SMOOTH",
"119 532 OFFCURVE",
"152 502 OFFCURVE",
"200 491 CURVE SMOOTH",
"260 478 LINE SMOOTH",
"286 471 OFFCURVE",
"304 451 OFFCURVE",
"304 430 CURVE SMOOTH",
"304 397 OFFCURVE",
"276 376 OFFCURVE",
"236 376 CURVE SMOOTH",
"186 376 OFFCURVE",
"149 407 OFFCURVE",
"149 451 CURVE",
"105 442 LINE"
);
},
{
closed = 1;
nodes = (
"431 657 LINE",
"431 343 LINE",
"392 343 LINE",
"392 657 LINE"
);
},
{
closed = 1;
nodes = (
"431 498 LINE",
"518 498 LINE SMOOTH",
"553 498 OFFCURVE",
"580 523 OFFCURVE",
"580 558 CURVE SMOOTH",
"580 593 OFFCURVE",
"554 617 OFFCURVE",
"520 617 CURVE SMOOTH",
"431 617 LINE",
"431 657 LINE",
"518 657 LINE SMOOTH",
"578 657 OFFCURVE",
"620 615 OFFCURVE",
"620 559 CURVE SMOOTH",
"620 501 OFFCURVE",
"577 459 OFFCURVE",
"517 459 CURVE SMOOTH",
"431 459 LINE"
);
},
{
closed = 1;
nodes = (
"699 657 LINE",
"699 343 LINE",
"659 343 LINE",
"659 657 LINE"
);
},
{
closed = 1;
nodes = (
"699 510 LINE",
"797 510 LINE SMOOTH",
"832 510 OFFCURVE",
"855 532 OFFCURVE",
"855 563 CURVE SMOOTH",
"855 594 OFFCURVE",
"832 617 OFFCURVE",
"799 617 CURVE SMOOTH",
"699 617 LINE",
"699 657 LINE",
"797 657 LINE SMOOTH",
"855 657 OFFCURVE",
"896 618 OFFCURVE",
"896 564 CURVE SMOOTH",
"896 510 OFFCURVE",
"855 472 OFFCURVE",
"795 472 CURVE SMOOTH",
"699 472 LINE"
);
},
{
closed = 1;
nodes = (
"833 480 LINE",
"904 343 LINE",
"855 343 LINE",
"789 472 LINE"
);
},
{
closed = 1;
nodes = (
"949 343 LINE",
"989 343 LINE",
"989 657 LINE",
"949 657 LINE"
);
},
{
closed = 1;
nodes = (
"1090 343 LINE",
"1090 596 LINE",
"1269 343 LINE",
"1312 343 LINE",
"1312 657 LINE",
"1273 657 LINE",
"1273 407 LINE",
"1101 657 LINE",
"1051 657 LINE",
"1051 343 LINE"
);
},
{
closed = 1;
nodes = (
"1453 343 LINE",
"1511 343 LINE",
"1511 657 LINE",
"1453 657 LINE"
);
},
{
closed = 1;
nodes = (
"1348 600 LINE",
"1615 600 LINE",
"1615 657 LINE",
"1348 657 LINE"
);
}
);
width = 1696;
},
{
layerId = "ADDE491E-C0C4-4659-943C-53377B387F47";
width = 600;
},
{
background = {
paths = (
{
closed = 1;
nodes = (
"48 378 OFFCURVE",
"101 334 OFFCURVE",
"173 334 CURVE SMOOTH",
"237 334 OFFCURVE",
"290 368 OFFCURVE",
"290 430 CURVE SMOOTH",
"290 472 OFFCURVE",
"259 507 OFFCURVE",
"211 517 CURVE SMOOTH",
"151 530 LINE SMOOTH",
"125 536 OFFCURVE",
"108 548 OFFCURVE",
"108 568 CURVE SMOOTH",
"108 592 OFFCURVE",
"131 606 OFFCURVE",
"163 606 CURVE SMOOTH",
"199 606 OFFCURVE",
"220 584 OFFCURVE",
"222 556 CURVE",
"276 566 LINE",
"272 614 OFFCURVE",
"225 654 OFFCURVE",
"165 654 CURVE SMOOTH",
"101 654 OFFCURVE",
"56 618 OFFCURVE",
"56 566 CURVE SMOOTH",
"56 520 OFFCURVE",
"91 490 OFFCURVE",
"143 478 CURVE SMOOTH",
"199 465 LINE SMOOTH",
"220 460 OFFCURVE",
"235 446 OFFCURVE",
"235 426 CURVE SMOOTH",
"235 402 OFFCURVE",
"210 384 OFFCURVE",
"174 384 CURVE SMOOTH",
"129 384 OFFCURVE",
"104 412 OFFCURVE",
"104 450 CURVE",
"44 442 LINE"
);
},
{
closed = 1;
nodes = (
"668 650 LINE",
"668 338 LINE",
"612 338 LINE",
"612 650 LINE"
);
},
{
closed = 1;
nodes = (
"668 512 LINE",
"750 512 LINE SMOOTH",
"776 512 OFFCURVE",
"796 528 OFFCURVE",
"796 554 CURVE SMOOTH",
"796 580 OFFCURVE",
"778 596 OFFCURVE",
"752 596 CURVE SMOOTH",
"668 596 LINE",
"668 650 LINE",
"750 650 LINE SMOOTH",
"812 650 OFFCURVE",
"852 611 OFFCURVE",
"852 555 CURVE SMOOTH",
"852 499 OFFCURVE",
"810 460 OFFCURVE",
"748 460 CURVE SMOOTH",
"668 460 LINE"
);
},
{
closed = 1;
nodes = (
"789 473 LINE",
"860 338 LINE",
"792 338 LINE",
"727 465 LINE"
);
},
{
closed = 1;
nodes = (
"902 338 LINE",
"958 338 LINE",
"958 650 LINE",
"902 650 LINE"
);
},
{
closed = 1;
nodes = (
"1082 338 LINE",
"1082 564 LINE",
"1238 338 LINE",
"1300 338 LINE",
"1300 650 LINE",
"1244 650 LINE",
"1244 426 LINE",
"1094 650 LINE",
"1026 650 LINE",
"1026 338 LINE"
);
},
{
closed = 1;
nodes = (
"1445 338 LINE",
"1503 338 LINE",
"1503 650 LINE",
"1445 650 LINE"
);
},
{
closed = 1;
nodes = (
"1340 593 LINE",
"1607 593 LINE",
"1607 650 LINE",
"1340 650 LINE"
);
},
{
closed = 1;
nodes = (
"389 650 LINE",
"389 338 LINE",
"333 338 LINE",
"333 650 LINE"
);
},
{
closed = 1;
nodes = (
"389 500 LINE",
"471 500 LINE SMOOTH",
"499 500 OFFCURVE",
"517 520 OFFCURVE",
"517 548 CURVE SMOOTH",
"517 576 OFFCURVE",
"499 596 OFFCURVE",
"473 596 CURVE SMOOTH",
"389 596 LINE",
"389 650 LINE",
"471 650 LINE SMOOTH",
"533 650 OFFCURVE",
"573 609 OFFCURVE",
"573 549 CURVE SMOOTH",
"573 489 OFFCURVE",
"531 446 OFFCURVE",
"469 446 CURVE SMOOTH",
"389 446 LINE"
);
}
);
};
layerId = m003;
paths = (
{
closed = 1;
nodes = (
"48 378 OFFCURVE",
"101 334 OFFCURVE",
"173 334 CURVE SMOOTH",
"237 334 OFFCURVE",
"290 368 OFFCURVE",
"290 430 CURVE SMOOTH",
"290 472 OFFCURVE",
"259 507 OFFCURVE",
"211 517 CURVE SMOOTH",
"151 530 LINE SMOOTH",
"125 536 OFFCURVE",
"108 548 OFFCURVE",
"108 568 CURVE SMOOTH",
"108 592 OFFCURVE",
"131 606 OFFCURVE",
"163 606 CURVE SMOOTH",
"199 606 OFFCURVE",
"220 584 OFFCURVE",
"222 556 CURVE",
"276 566 LINE",
"272 614 OFFCURVE",
"225 654 OFFCURVE",
"165 654 CURVE SMOOTH",
"101 654 OFFCURVE",
"56 618 OFFCURVE",
"56 566 CURVE SMOOTH",
"56 520 OFFCURVE",
"91 490 OFFCURVE",
"143 478 CURVE SMOOTH",
"199 465 LINE SMOOTH",
"220 460 OFFCURVE",
"235 446 OFFCURVE",
"235 426 CURVE SMOOTH",
"235 402 OFFCURVE",
"210 384 OFFCURVE",
"174 384 CURVE SMOOTH",
"129 384 OFFCURVE",
"104 412 OFFCURVE",
"104 450 CURVE",
"44 442 LINE"
);
},
{
closed = 1;
nodes = (
"668 650 LINE",
"668 338 LINE",
"612 338 LINE",
"612 650 LINE"
);
},
{
closed = 1;
nodes = (
"668 512 LINE",
"750 512 LINE SMOOTH",
"776 512 OFFCURVE",
"796 528 OFFCURVE",
"796 554 CURVE SMOOTH",
"796 580 OFFCURVE",
"778 596 OFFCURVE",
"752 596 CURVE SMOOTH",
"668 596 LINE",
"668 650 LINE",
"750 650 LINE SMOOTH",
"812 650 OFFCURVE",
"852 611 OFFCURVE",
"852 555 CURVE SMOOTH",
"852 499 OFFCURVE",
"810 460 OFFCURVE",
"748 460 CURVE SMOOTH",
"668 460 LINE"
);
},
{
closed = 1;
nodes = (
"789 473 LINE",
"860 338 LINE",
"792 338 LINE",
"727 465 LINE"
);
},
{
closed = 1;
nodes = (
"902 338 LINE",
"958 338 LINE",
"958 650 LINE",
"902 650 LINE"
);
},
{
closed = 1;
nodes = (
"1082 338 LINE",
"1082 564 LINE",
"1238 338 LINE",
"1300 338 LINE",
"1300 650 LINE",
"1244 650 LINE",
"1244 426 LINE",
"1094 650 LINE",
"1026 650 LINE",
"1026 338 LINE"
);
},
{
closed = 1;
nodes = (
"1445 338 LINE",
"1503 338 LINE",
"1503 650 LINE",
"1445 650 LINE"
);
},
{
closed = 1;
nodes = (
"1340 593 LINE",
"1607 593 LINE",
"1607 650 LINE",
"1340 650 LINE"
);
},
{
closed = 1;
nodes = (
"389 650 LINE",
"389 338 LINE",
"333 338 LINE",
"333 650 LINE"
);
},
{
closed = 1;
nodes = (
"389 500 LINE",
"471 500 LINE SMOOTH",
"499 500 OFFCURVE",
"517 520 OFFCURVE",
"517 548 CURVE SMOOTH",
"517 576 OFFCURVE",
"499 596 OFFCURVE",
"473 596 CURVE SMOOTH",
"389 596 LINE",
"389 650 LINE",
"471 650 LINE SMOOTH",
"533 650 OFFCURVE",
"573 609 OFFCURVE",
"573 549 CURVE SMOOTH",
"573 489 OFFCURVE",
"531 446 OFFCURVE",
"469 446 CURVE SMOOTH",
"389 446 LINE"
);
}
);
width = 1627;
}
);
},
{
color = 10;
glyphname = a;
lastChange = "2021-05-16 10:54:50 +0000";
layers = (
{
anchors = (
{
name = ogonek;
position = "{426, 0}";
},
{
name = top;
position = "{242, 512}";
}
);
layerId = "8007C042-6FBA-4E49-99B8-8B738A4EBE86";
paths = (
{
closed = 1;
nodes = (
"354 328 LINE",
"354 314 OFFCURVE",
"341 303 OFFCURVE",
"322 300 CURVE SMOOTH",
"168 272 LINE SMOOTH",
"76 255 OFFCURVE",
"28 204 OFFCURVE",
"28 132 CURVE SMOOTH",
"28 48 OFFCURVE",
"92 -12 OFFCURVE",
"188 -12 CURVE SMOOTH",
"300 -12 OFFCURVE",
"372 59 OFFCURVE",
"376 160 CURVE",
"354 208 LINE",
"354 128 OFFCURVE",
"287 66 OFFCURVE",
"204 66 CURVE SMOOTH",
"148 66 OFFCURVE",
"116 93 OFFCURVE",
"116 132 CURVE SMOOTH",
"116 169 OFFCURVE",
"140 199 OFFCURVE",
"188 208 CURVE SMOOTH",
"320 232 LINE SMOOTH",
"334 235 OFFCURVE",
"347 237 OFFCURVE",
"354 240 CURVE"
);
},
{
closed = 1;
nodes = (
"132 320 LINE",
"134 390 OFFCURVE",
"178 440 OFFCURVE",
"244 440 CURVE SMOOTH",
"308 440 OFFCURVE",
"354 395 OFFCURVE",
"354 332 CURVE SMOOTH",
"354 100 LINE",
"370 0 LINE",
"436 0 LINE",
"434 100 LINE",
"434 332 LINE SMOOTH",
"434 441 OFFCURVE",
"350 512 OFFCURVE",
"242 512 CURVE SMOOTH",
"135 512 OFFCURVE",
"54 437 OFFCURVE",
"44 334 CURVE"
);
}
);
width = 486;
},
{
associatedMasterId = "8007C042-6FBA-4E49-99B8-8B738A4EBE86";
background = {
paths = (
{
closed = 1;
nodes = (
"366 110 OFFCURVE",
"316 62 OFFCURVE",
"236 62 CURVE SMOOTH",
"189 63 OFFCURVE",
"162 86 OFFCURVE",
"162 124 CURVE SMOOTH",
"162 142 OFFCURVE",
"170 158 OFFCURVE",
"186 171 CURVE SMOOTH",
"202 183 OFFCURVE",
"238 194 OFFCURVE",
"294 204 CURVE SMOOTH",
"317 208 OFFCURVE",
"334 211 OFFCURVE",
"344 214 CURVE SMOOTH",
"353 216 OFFCURVE",
"361 220 OFFCURVE",
"366 226 CURVE",
"366 181 LINE SMOOTH"
);
},
{
closed = 1;
nodes = (
"287 -9 OFFCURVE",
"337 11 OFFCURVE",
"372 50 CURVE",
"389 0 LINE",
"473 0 LINE",
"459 87 LINE",
"459 314 LINE SMOOTH",
"459 406 OFFCURVE",
"388 467 OFFCURVE",
"276 467 CURVE SMOOTH",
"165 467 OFFCURVE",
"89 407 OFFCURVE",
"79 325 CURVE",
"164 294 LINE",
"162 352 OFFCURVE",
"210 391 OFFCURVE",
"269 391 CURVE SMOOTH",
"327 391 OFFCURVE",
"364 370 OFFCURVE",
"366 332 CURVE SMOOTH",
"367 294 OFFCURVE",
"339 284 OFFCURVE",
"293 276 CURVE SMOOTH",
"205 261 LINE SMOOTH",
"113 245 OFFCURVE",
"63 196 OFFCURVE",
"63 121 CURVE SMOOTH",
"63 46 OFFCURVE",
"130 -9 OFFCURVE",
"223 -9 CURVE SMOOTH"
);
}
);
};
layerId = "5547359B-0766-4A24-A128-248215021DB2";
name = "Jan 19 18, 21:46";
paths = (
{
closed = 1;
nodes = (
"374 326 LINE",
"374 309 OFFCURVE",
"358 301 OFFCURVE",
"336 298 CURVE SMOOTH",
"320 296 OFFCURVE",
"243 287 OFFCURVE",
"156 276 CURVE SMOOTH",
"90 268 OFFCURVE",
"40 211 OFFCURVE",
"40 144 CURVE SMOOTH",
"40 57 OFFCURVE",
"112 -8 OFFCURVE",
"208 -8 CURVE SMOOTH",
"310 -8 OFFCURVE",
"391 64 OFFCURVE",
"396 159 CURVE",
"374 211 LINE",
"374 132 OFFCURVE",
"308 72 OFFCURVE",
"220 72 CURVE SMOOTH",
"169 72 OFFCURVE",
"130 104 OFFCURVE",
"130 146 CURVE SMOOTH",
"130 182 OFFCURVE",
"157 213 OFFCURVE",
"194 218 CURVE SMOOTH",
"251 226 OFFCURVE",
"313 232 OFFCURVE",
"340 236 CURVE SMOOTH",
"356 238 OFFCURVE",
"370 240 OFFCURVE",
"374 244 CURVE"
);
},
{
closed = 1;
nodes = (
"156 320 LINE",
"160 392 OFFCURVE",
"206 430 OFFCURVE",
"270 430 CURVE SMOOTH",
"330 430 OFFCURVE",
"374 386 OFFCURVE",
"374 326 CURVE SMOOTH",
"374 100 LINE",
"380 100 LINE",
"393 0 LINE",
"456 0 LINE",
"452 100 LINE",
"452 322 LINE SMOOTH",
"452 430 OFFCURVE",
"376 508 OFFCURVE",
"268 508 CURVE SMOOTH",
"162 508 OFFCURVE",
"78 436 OFFCURVE",
"70 340 CURVE"
);
}
);
width = 518;
},
{
anchors = (
{
name = ogonek;
position = "{434, 0}";
},
{
name = top;
position = "{248, 512}";
}
);
layerId = "ADDE491E-C0C4-4659-943C-53377B387F47";
paths = (
{
closed = 1;
nodes = (
"322 324 LINE",
"322 316 OFFCURVE",
"316 308 OFFCURVE",
"304 306 CURVE SMOOTH",
"140 272 LINE SMOOTH",
"70 257 OFFCURVE",
"20 200 OFFCURVE",
"20 136 CURVE SMOOTH",
"20 50 OFFCURVE",
"89 -12 OFFCURVE",
"184 -12 CURVE SMOOTH",
"284 -12 OFFCURVE",
"360 57 OFFCURVE",
"364 152 CURVE",
"322 228 LINE",
"322 160 OFFCURVE",
"276 118 OFFCURVE",
"224 118 CURVE SMOOTH",
"188 118 OFFCURVE",
"168 137 OFFCURVE",
"168 164 CURVE SMOOTH",
"168 188 OFFCURVE",
"184 206 OFFCURVE",
"212 212 CURVE SMOOTH",
"288 228 LINE SMOOTH",
"307 232 OFFCURVE",
"322 234 OFFCURVE",
"322 236 CURVE"
);
},
{
closed = 1;
nodes = (
"176 320 LINE",
"180 357 OFFCURVE",
"212 384 OFFCURVE",
"252 384 CURVE SMOOTH",
"293 384 OFFCURVE",
"322 359 OFFCURVE",
"322 324 CURVE SMOOTH",
"322 84 LINE",
"354 0 LINE",
"464 0 LINE",
"462 100 LINE",
"462 324 LINE SMOOTH",
"462 433 OFFCURVE",
"371 512 OFFCURVE",
"246 512 CURVE SMOOTH",
"149 512 OFFCURVE",
"63 452 OFFCURVE",
"40 368 CURVE"
);
}
);
width = 506;
},
{
associatedMasterId = "8007C042-6FBA-4E49-99B8-8B738A4EBE86";
layerId = "0FE65278-7BBB-4C48-B916-19D8587C3F78";
width = 600;
},
{
anchors = (
{
name = ogonek;
position = "{426, 0}";
},
{
name = top;
position = "{242, 512}";
}
);
components = (
{
name = inkstem_S;
transform = "{1, 0, 0, 1, -200, 76}";
},
{
name = inkstem_S;
transform = "{1, 0, 0, 1, 84, 84}";
},
{
name = inkstem_S;
transform = "{1, 0, 0, 1, -224, -180}";
},
{
name = inkcurve;
transform = "{1, 0, 0, 1, -100, -271}";
}
);
layerId = m003;
paths = (
{
closed = 1;
nodes = (
"258 -12 OFFCURVE",
"307 11 OFFCURVE",
"340 56 CURVE SMOOTH",
"346 64 OFFCURVE",
"350 76 OFFCURVE",
"350 84 CURVE SMOOTH",
"350 90 LINE SMOOTH",
"350 106 OFFCURVE",
"362 118 OFFCURVE",
"378 118 CURVE SMOOTH",
"394 118 OFFCURVE",
"406 106 OFFCURVE",
"406 90 CURVE SMOOTH",
"406 74 OFFCURVE",
"394 62 OFFCURVE",
"378 62 CURVE SMOOTH",
"369 62 OFFCURVE",
"363 54 OFFCURVE",
"364 44 CURVE SMOOTH",
"370 0 LINE",
"436 0 LINE",
"434 100 LINE",
"434 332 LINE SMOOTH",
"434 441 OFFCURVE",
"350 512 OFFCURVE",
"242 512 CURVE SMOOTH",
"135 512 OFFCURVE",
"54 437 OFFCURVE",
"44 334 CURVE",
"132 320 LINE",
"134 390 OFFCURVE",
"178 440 OFFCURVE",
"244 440 CURVE SMOOTH",
"308 440 OFFCURVE",
"354 395 OFFCURVE",
"354 332 CURVE SMOOTH",
"354 328 LINE SMOOTH",
"354 314 OFFCURVE",
"341 303 OFFCURVE",
"322 300 CURVE SMOOTH",
"168 272 LINE SMOOTH",
"76 255 OFFCURVE",
"28 204 OFFCURVE",
"28 132 CURVE SMOOTH",
"28 48 OFFCURVE",
"92 -12 OFFCURVE",
"188 -12 CURVE SMOOTH"
);
},
{
closed = 1;
nodes = (
"148 66 OFFCURVE",
"116 93 OFFCURVE",
"116 132 CURVE SMOOTH",
"116 169 OFFCURVE",
"140 200 OFFCURVE",
"188 208 CURVE SMOOTH",
"324 232 LINE SMOOTH",
"332 233 OFFCURVE",
"338 240 OFFCURVE",
"338 248 CURVE SMOOTH",
"338 252 LINE SMOOTH",
"338 268 OFFCURVE",
"350 280 OFFCURVE",
"366 280 CURVE SMOOTH",
"382 280 OFFCURVE",
"394 268 OFFCURVE",
"394 252 CURVE SMOOTH",
"394 236 OFFCURVE",
"382 224 OFFCURVE",
"366 224 CURVE SMOOTH",
"359 224 OFFCURVE",
"354 219 OFFCURVE",
"354 212 CURVE SMOOTH",
"354 208 LINE SMOOTH",
"354 128 OFFCURVE",
"287 66 OFFCURVE",
"204 66 CURVE SMOOTH"
);
},
{
closed = 1;
nodes = (
"139 211 OFFCURVE",
"127 218 OFFCURVE",
"125 230 CURVE SMOOTH",
"123 243 OFFCURVE",
"131 254 OFFCURVE",
"145 256 CURVE SMOOTH",
"255 275 LINE SMOOTH",
"269 277 OFFCURVE",
"281 270 OFFCURVE",
"283 258 CURVE SMOOTH",
"285 245 OFFCURVE",
"277 234 OFFCURVE",
"263 232 CURVE SMOOTH",
"153 213 LINE SMOOTH"
);
},
{
closed = 1;
nodes = (
"198 446 OFFCURVE",
"186 456 OFFCURVE",
"186 471 CURVE SMOOTH",
"186 483 OFFCURVE",
"197 493 OFFCURVE",
"209 496 CURVE SMOOTH",
"228 501 OFFCURVE",
"252 501 OFFCURVE",
"271 496 CURVE SMOOTH",
"283 493 OFFCURVE",
"294 483 OFFCURVE",
"294 471 CURVE SMOOTH",
"294 456 OFFCURVE",
"282 446 OFFCURVE",
"267 450 CURVE SMOOTH",
"252 454 OFFCURVE",
"228 454 OFFCURVE",
"213 450 CURVE SMOOTH"
);
}
);
width = 486;
}
);
leftKerningGroup = a;
rightKerningGroup = n;
unicode = 0061;
},
{
color = 3;
glyphname = ae;
lastChange = "2021-05-16 11:25:10 +0000";
layers = (
{
layerId = "8007C042-6FBA-4E49-99B8-8B738A4EBE86";
paths = (
{
closed = 1;
nodes = (
"676 -12 OFFCURVE",
"764 52 OFFCURVE",
"784 140 CURVE",
"694 168 LINE",
"682 110 OFFCURVE",
"631 68 OFFCURVE",
"570 68 CURVE SMOOTH",
"491 68 OFFCURVE",
"428 140 OFFCURVE",
"428 250 CURVE SMOOTH",
"428 357 OFFCURVE",
"488 434 OFFCURVE",
"570 434 CURVE SMOOTH",
"639.408 434 OFFCURVE",
"693.054 378.832 OFFCURVE",
"707.893 297 CURVE",
"408 297 LINE",
"408 219 LINE",
"795 219 LINE",
"796 225 OFFCURVE",
"796 230 OFFCURVE",
"796 236 CURVE SMOOTH",
"796 424 OFFCURVE",
"692 512 OFFCURVE",
"572 512 CURVE SMOOTH",
"487 512 OFFCURVE",
"419 468 OFFCURVE",
"380 400 CURVE",
"380 100 LINE",
"421 30 OFFCURVE",
"491 -12 OFFCURVE",
"574 -12 CURVE SMOOTH"
);
},
{
closed = 1;
nodes = (
"307 -12 OFFCURVE",
"388 54 OFFCURVE",
"404 144 CURVE",
"348 184 LINE",
"348 116 OFFCURVE",
"289 66 OFFCURVE",
"208 66 CURVE SMOOTH",
"152 66 OFFCURVE",
"112 98 OFFCURVE",
"112 142 CURVE SMOOTH",
"112 176 OFFCURVE",
"141 204 OFFCURVE",
"180 208 CURVE SMOOTH",
"348 224 LINE",
"348 316 LINE",
"348 302 OFFCURVE",
"343 294 OFFCURVE",
"324 292 CURVE SMOOTH",
"160 276 LINE SMOOTH",
"83 268 OFFCURVE",
"28 212 OFFCURVE",
"28 140 CURVE SMOOTH",
"28 52 OFFCURVE",
"101 -12 OFFCURVE",
"203 -12 CURVE SMOOTH"
);
},
{
closed = 1;
nodes = (
"428 100 LINE",
"428 332 LINE SMOOTH",
"428 436 OFFCURVE",
"349 512 OFFCURVE",
"240 512 CURVE SMOOTH",
"134 512 OFFCURVE",
"50 437 OFFCURVE",
"40 334 CURVE",
"128 320 LINE",
"130 390 OFFCURVE",
"178 436 OFFCURVE",
"242 436 CURVE SMOOTH",
"303 436 OFFCURVE",
"348 395 OFFCURVE",
"348 332 CURVE SMOOTH",
"348 100 LINE"
);
}
);
width = 828;
},
{
associatedMasterId = "8007C042-6FBA-4E49-99B8-8B738A4EBE86";
background = {
paths = (
{
closed = 1;
nodes = (
"368 312 LINE",
"368 296 OFFCURVE",
"356 286 OFFCURVE",
"336 284 CURVE",
"164 272 LINE",
"86 264 OFFCURVE",
"38 212 OFFCURVE",
"38 144 CURVE SMOOTH",
"38 52 OFFCURVE",
"114 -8 OFFCURVE",
"210 -8 CURVE SMOOTH",
"314 -8 OFFCURVE",
"410 64 OFFCURVE",
"414 160 CURVE",
"368 204 LINE",
"368 128 OFFCURVE",
"306 72 OFFCURVE",
"218 72 CURVE SMOOTH",
"162 72 OFFCURVE",
"120 104 OFFCURVE",
"120 148 CURVE SMOOTH",
"120 184 OFFCURVE",
"144 206 OFFCURVE",
"188 210 CURVE",
"334 218 LINE",
"354 219 OFFCURVE",
"364 224 OFFCURVE",
"368 228 CURVE"
);
},
{
closed = 1;
nodes = (
"138 320 LINE",
"140 392 OFFCURVE",
"188 436 OFFCURVE",
"254 436 CURVE SMOOTH",
"320 436 OFFCURVE",
"368 392 OFFCURVE",
"368 328 CURVE SMOOTH",
"368 100 LINE",
"408 172 LINE",
"448 100 LINE",
"448 330 LINE SMOOTH",
"448 434 OFFCURVE",
"368 508 OFFCURVE",
"256 508 CURVE SMOOTH",
"146 508 OFFCURVE",
"60 438 OFFCURVE",
"50 332 CURVE"
);
},
{
closed = 1;
nodes = (
"724 164 LINE",
"716 108 OFFCURVE",
"658 68 OFFCURVE",
"602 68 CURVE SMOOTH",
"526 68 OFFCURVE",
"455 135 OFFCURVE",
"449 224 CURVE",
"813 224 LINE",
"821 388 OFFCURVE",
"728 508 OFFCURVE",
"596 508 CURVE SMOOTH",
"494 508 OFFCURVE",
"412 455 OFFCURVE",
"380 359 CURVE",
"380 143 LINE",
"412 47 OFFCURVE",
"496 -8 OFFCURVE",
"600 -8 CURVE SMOOTH",
"692 -8 OFFCURVE",
"778 48 OFFCURVE",
"802 136 CURVE"
);
},
{
closed = 1;
nodes = (
"456 380 OFFCURVE",
"522 434 OFFCURVE",
"594 434 CURVE SMOOTH",
"666 434 OFFCURVE",
"726 380 OFFCURVE",
"734 300 CURVE",
"448 300 LINE"
);
}
);
};
layerId = "18B4C172-3CA9-4E07-A368-805A5ED04176";
name = "Nov 14 19, 09:29";
paths = (
{
closed = 1;
nodes = (
"368 312 LINE",
"368 296 OFFCURVE",
"356 286 OFFCURVE",
"336 284 CURVE",
"164 272 LINE",
"86 264 OFFCURVE",
"38 212 OFFCURVE",
"38 144 CURVE SMOOTH",
"38 52 OFFCURVE",
"114 -8 OFFCURVE",
"210 -8 CURVE SMOOTH",
"314 -8 OFFCURVE",
"410 64 OFFCURVE",
"414 160 CURVE",
"368 204 LINE",
"368 128 OFFCURVE",
"306 72 OFFCURVE",
"218 72 CURVE SMOOTH",
"162 72 OFFCURVE",
"120 104 OFFCURVE",
"120 148 CURVE SMOOTH",
"120 184 OFFCURVE",
"144 206 OFFCURVE",
"188 210 CURVE",
"334 218 LINE",
"354 219 OFFCURVE",
"364 224 OFFCURVE",
"368 228 CURVE"
);
},
{
closed = 1;
nodes = (
"138 320 LINE",
"140 392 OFFCURVE",
"188 436 OFFCURVE",
"254 436 CURVE SMOOTH",
"320 436 OFFCURVE",
"368 392 OFFCURVE",
"368 328 CURVE SMOOTH",
"368 100 LINE",
"408 172 LINE",
"448 100 LINE",
"448 330 LINE SMOOTH",
"448 434 OFFCURVE",
"368 508 OFFCURVE",
"256 508 CURVE SMOOTH",
"146 508 OFFCURVE",
"60 438 OFFCURVE",
"50 332 CURVE"
);
},
{
closed = 1;
nodes = (
"724 164 LINE",
"716 108 OFFCURVE",
"658 68 OFFCURVE",
"602 68 CURVE SMOOTH",
"526 68 OFFCURVE",
"455 135 OFFCURVE",
"449 224 CURVE",
"813 224 LINE",
"821 388 OFFCURVE",
"728 508 OFFCURVE",
"596 508 CURVE SMOOTH",
"494 508 OFFCURVE",
"412 455 OFFCURVE",
"380 359 CURVE",
"380 143 LINE",
"412 47 OFFCURVE",
"496 -8 OFFCURVE",
"600 -8 CURVE SMOOTH",
"692 -8 OFFCURVE",
"778 48 OFFCURVE",
"802 136 CURVE"
);
},
{
closed = 1;
nodes = (
"456 380 OFFCURVE",
"522 434 OFFCURVE",
"594 434 CURVE SMOOTH",
"666 434 OFFCURVE",
"726 380 OFFCURVE",
"734 300 CURVE",
"448 300 LINE"
);
}
);
width = 849;
},
{
associatedMasterId = "8007C042-6FBA-4E49-99B8-8B738A4EBE86";
background = {
hints = (
{
horizontal = 1;
place = "{-13, 75}";
type = Stem;
},
{
horizontal = 1;
place = "{267, 72}";
type = Stem;
},
{
horizontal = 1;
place = "{507, 77}";
type = Stem;
},
{
place = "{37, 89}";
type = Stem;
},
{
place = "{432, 84}";
type = Stem;
},
{
place = "{843, 90}";
type = Stem;
},
{
horizontal = 1;
place = "{-12, 77}";
type = Stem;
}
);
paths = (
{
closed = 1;
nodes = (
"392 312 LINE",
"392 296 OFFCURVE",
"380 286 OFFCURVE",
"360 284 CURVE",
"188 272 LINE",
"110 264 OFFCURVE",
"62 212 OFFCURVE",
"62 144 CURVE SMOOTH",
"62 52 OFFCURVE",
"138 -8 OFFCURVE",
"234 -8 CURVE SMOOTH",
"338 -8 OFFCURVE",
"434 64 OFFCURVE",
"438 160 CURVE",
"392 204 LINE",
"392 128 OFFCURVE",
"330 72 OFFCURVE",
"242 72 CURVE SMOOTH",
"186 72 OFFCURVE",
"144 104 OFFCURVE",
"144 148 CURVE SMOOTH",
"144 184 OFFCURVE",
"168 206 OFFCURVE",
"212 210 CURVE",
"358 218 LINE",
"378 219 OFFCURVE",
"388 224 OFFCURVE",
"392 228 CURVE"
);
},
{
closed = 1;
nodes = (
"162 320 LINE",
"164 392 OFFCURVE",
"212 436 OFFCURVE",
"278 436 CURVE SMOOTH",
"344 436 OFFCURVE",
"392 392 OFFCURVE",
"392 328 CURVE SMOOTH",
"392 100 LINE",
"432 172 LINE",
"472 100 LINE",
"472 330 LINE SMOOTH",
"472 434 OFFCURVE",
"392 508 OFFCURVE",
"280 508 CURVE SMOOTH",
"170 508 OFFCURVE",
"84 438 OFFCURVE",
"74 332 CURVE"
);
},
{
closed = 1;
nodes = (
"748 164 LINE",
"740 108 OFFCURVE",
"682 68 OFFCURVE",
"626 68 CURVE SMOOTH",
"550 68 OFFCURVE",
"479 135 OFFCURVE",
"473 224 CURVE",
"837 224 LINE",
"845 388 OFFCURVE",
"752 508 OFFCURVE",
"620 508 CURVE SMOOTH",
"518 508 OFFCURVE",
"436 455 OFFCURVE",
"404 359 CURVE",
"404 143 LINE",
"436 47 OFFCURVE",
"520 -8 OFFCURVE",
"624 -8 CURVE SMOOTH",
"716 -8 OFFCURVE",
"802 48 OFFCURVE",
"826 136 CURVE"
);
},
{
closed = 1;
nodes = (
"480 380 OFFCURVE",
"546 434 OFFCURVE",
"618 434 CURVE SMOOTH",
"690 434 OFFCURVE",
"750 380 OFFCURVE",
"758 300 CURVE",
"472 300 LINE"
);
}
);
};
layerId = "D81779F0-6776-4B87-BBA6-54B117ACAD50";
name = "Apr 17 20, 16:46";
paths = (
{
closed = 1;
nodes = (
"354 324 LINE",
"354 312 OFFCURVE",
"341 298 OFFCURVE",
"322 296 CURVE SMOOTH",
"162 276 LINE SMOOTH",
"89 267 OFFCURVE",
"36 208 OFFCURVE",
"36 140 CURVE SMOOTH",
"36 52 OFFCURVE",
"110 -12 OFFCURVE",
"212 -12 CURVE SMOOTH",
"320 -12 OFFCURVE",
"403 55 OFFCURVE",
"410 148 CURVE",
"354 180 LINE",
"354 115 OFFCURVE",
"298 68 OFFCURVE",
"220 68 CURVE SMOOTH",
"162 68 OFFCURVE",
"120 100 OFFCURVE",
"120 144 CURVE SMOOTH",
"120 176 OFFCURVE",
"148 203 OFFCURVE",
"187 208 CURVE SMOOTH",
"354 228 LINE"
);
},
{
closed = 1;
nodes = (
"136 320 LINE",
"138 390 OFFCURVE",
"185 440 OFFCURVE",
"248 440 CURVE SMOOTH",
"309 440 OFFCURVE",
"354 395 OFFCURVE",
"354 332 CURVE SMOOTH",
"354 100 LINE",
"358 100 LINE",
"434 100 LINE",
"434 332 LINE SMOOTH",
"434 438 OFFCURVE",
"353 512 OFFCURVE",
"247 512 CURVE SMOOTH",
"141 512 OFFCURVE",
"58 437 OFFCURVE",
"48 334 CURVE"
);
},
{
closed = 1;
nodes = (
"720 219 LINE",
"803 219 LINE",
"804 225 OFFCURVE",
"804 230 OFFCURVE",
"804 236 CURVE SMOOTH",
"804 424 OFFCURVE",
"700 512 OFFCURVE",
"580 512 CURVE SMOOTH",
"442 512 OFFCURVE",
"350 397 OFFCURVE",
"350 250 CURVE SMOOTH",
"350 96 OFFCURVE",
"449 -12 OFFCURVE",
"582 -12 CURVE SMOOTH",
"684 -12 OFFCURVE",
"772 52 OFFCURVE",
"792 140 CURVE",
"702 168 LINE",
"690 110 OFFCURVE",
"639 68 OFFCURVE",
"578 68 CURVE SMOOTH",
"499 68 OFFCURVE",
"436 140 OFFCURVE",
"436 250 CURVE SMOOTH",
"436 357 OFFCURVE",
"496 434 OFFCURVE",
"578 434 CURVE SMOOTH",
"660 434 OFFCURVE",
"720 357 OFFCURVE",
"720 250 CURVE"
);
},
{
closed = 1;
nodes = (
"416 219 LINE",
"720 219 LINE",
"720 297 LINE",
"416 297 LINE"
);
}
);
width = 828;
},
{
layerId = "ADDE491E-C0C4-4659-943C-53377B387F47";
paths = (
{
closed = 1;
nodes = (
"659 -14 OFFCURVE",
"748 46 OFFCURVE",
"780 130 CURVE",
"644 174 LINE",
"636 138 OFFCURVE",
"604 116 OFFCURVE",
"572 116 CURVE SMOOTH",
"520 116 OFFCURVE",
"474 167 OFFCURVE",
"474 248 CURVE SMOOTH",
"474 328 OFFCURVE",
"510 380 OFFCURVE",
"562 380 CURVE SMOOTH",
"602 380 OFFCURVE",
"636 348 OFFCURVE",
"642 292 CURVE",
"452 292 LINE",
"452 220 LINE",
"782 220 LINE",
"783 228 OFFCURVE",
"784 240 OFFCURVE",
"784 252 CURVE SMOOTH",
"784 404 OFFCURVE",
"692 510 OFFCURVE",
"564 510 CURVE SMOOTH",
"484 510 OFFCURVE",
"412 465 OFFCURVE",
"384 401 CURVE",
"384 95 LINE",
"412 31 OFFCURVE",
"488 -14 OFFCURVE",
"568 -14 CURVE SMOOTH"
);
},
{
closed = 1;
nodes = (
"298 -12 OFFCURVE",
"385 48 OFFCURVE",
"400 132 CURVE",
"298 200 LINE",
"298 152 OFFCURVE",
"264 118 OFFCURVE",
"216 118 CURVE SMOOTH",
"181 118 OFFCURVE",
"156 137 OFFCURVE",
"156 164 CURVE SMOOTH",
"156 188 OFFCURVE",
"176 208 OFFCURVE",
"204 212 CURVE SMOOTH",
"298 224 LINE",
"298 316 LINE",
"298 302 OFFCURVE",
"293 295 OFFCURVE",
"274 292 CURVE SMOOTH",
"156 276 LINE SMOOTH",
"77 265 OFFCURVE",
"20 205 OFFCURVE",
"20 132 CURVE SMOOTH",
"20 48 OFFCURVE",
"91 -12 OFFCURVE",
"188 -12 CURVE SMOOTH"
);
},
{
closed = 1;
nodes = (
"438 100 LINE",
"438 324 LINE SMOOTH",
"438 433 OFFCURVE",
"351 512 OFFCURVE",
"226 512 CURVE SMOOTH",
"129 512 OFFCURVE",
"47 452 OFFCURVE",
"24 368 CURVE",
"160 320 LINE",
"164 357 OFFCURVE",
"192 384 OFFCURVE",
"232 384 CURVE SMOOTH",
"273 384 OFFCURVE",
"298 359 OFFCURVE",
"298 324 CURVE SMOOTH",
"298 100 LINE"
);
}
);
width = 808;
},
{
components = (
{
name = inkcurve;
transform = "{1, 0, 0, 1, 272, -270}";
},
{
name = inkcurve;
transform = "{1, 0, 0, -1, 268, 771}";
},
{
name = inkstem_S;
transform = "{1, 0, 0, 1, 404, 108}";
},
{
name = inkstem_S;
transform = "{1, 0, 0, 1, 410, -204}";
},
{
name = inkstem_S;
transform = "{1, 0, 0, 1, 270, -42}";
},
{
name = inkstem_S;
transform = "{1, 0, 0, 1, -200, 76}";
},
{
name = inkstem_S;
transform = "{1, 0, 0, 1, -224, -180}";
},
{
name = inkcurve;
transform = "{1, 0, 0, 1, -92, -271}";
}
);
layerId = m003;
paths = (
{
closed = 1;
nodes = (
"152 66 OFFCURVE",
"112 98 OFFCURVE",
"112 142 CURVE SMOOTH",
"112 176 OFFCURVE",
"141 204 OFFCURVE",
"180 208 CURVE SMOOTH",
"348 224 LINE",
"348 184 LINE SMOOTH",
"348 116 OFFCURVE",
"289 66 OFFCURVE",
"208 66 CURVE SMOOTH"
);
},
{
closed = 1;
nodes = (
"410 265 OFFCURVE",
"398 277 OFFCURVE",
"398 293 CURVE SMOOTH",
"398 309 OFFCURVE",
"410 321 OFFCURVE",
"426 321 CURVE SMOOTH",
"433 321 OFFCURVE",
"439 326 OFFCURVE",
"442 334 CURVE SMOOTH",
"465 395 OFFCURVE",
"512 434 OFFCURVE",
"570 434 CURVE SMOOTH",
"628 434 OFFCURVE",
"675 395 OFFCURVE",
"698 334 CURVE SMOOTH",
"701 326 OFFCURVE",
"706 321 OFFCURVE",
"714 321 CURVE SMOOTH",
"730 321 OFFCURVE",
"742 309 OFFCURVE",
"742 293 CURVE SMOOTH",
"742 277 OFFCURVE",
"730 265 OFFCURVE",
"714 265 CURVE SMOOTH",
"701 265 OFFCURVE",
"691 273 OFFCURVE",
"687 284 CURVE SMOOTH",
"684 292 OFFCURVE",
"679 297 OFFCURVE",
"672 297 CURVE SMOOTH",
"470 297 LINE SMOOTH",
"460 297 OFFCURVE",
"455 291 OFFCURVE",
"452 283 CURVE SMOOTH",
"448 272 OFFCURVE",
"438 265 OFFCURVE",
"426 265 CURVE SMOOTH"
);
},
{
closed = 1;
nodes = (
"448 15 OFFCURVE",
"507 -12 OFFCURVE",
"574 -12 CURVE SMOOTH",
"676 -12 OFFCURVE",
"764 52 OFFCURVE",
"784 140 CURVE",
"694 168 LINE",
"682 110 OFFCURVE",
"631 68 OFFCURVE",
"570 68 CURVE SMOOTH",
"509 68 OFFCURVE",
"458 111 OFFCURVE",
"437 181 CURVE SMOOTH",
"435 189 OFFCURVE",
"428 195 OFFCURVE",
"422 195 CURVE SMOOTH",
"406 195 OFFCURVE",
"394 207 OFFCURVE",
"394 223 CURVE SMOOTH",
"394 239 OFFCURVE",
"406 251 OFFCURVE",
"422 251 CURVE SMOOTH",
"435 251 OFFCURVE",
"445 243 OFFCURVE",
"449 232 CURVE SMOOTH",
"452 224 OFFCURVE",
"458 219 OFFCURVE",
"466 219 CURVE SMOOTH",
"795 219 LINE",
"796 225 OFFCURVE",
"796 230 OFFCURVE",
"796 236 CURVE SMOOTH",
"796 424 OFFCURVE",
"692 512 OFFCURVE",
"572 512 CURVE SMOOTH",
"512 512 OFFCURVE",
"461 491 OFFCURVE",
"422 454 CURVE SMOOTH",
"413 446 OFFCURVE",
"414 435 OFFCURVE",
"421 429 CURVE SMOOTH",
"427 424 OFFCURVE",
"430 417 OFFCURVE",
"430 408 CURVE SMOOTH",
"430 392 OFFCURVE",
"418 380 OFFCURVE",
"402 380 CURVE SMOOTH",
"386 380 OFFCURVE",
"374 392 OFFCURVE",
"374 408 CURVE SMOOTH",
"374 417 OFFCURVE",
"377 424 OFFCURVE",
"383 429 CURVE SMOOTH",
"390 435 OFFCURVE",
"389 446 OFFCURVE",
"382 454 CURVE SMOOTH",
"349 490 OFFCURVE",
"298 512 OFFCURVE",
"240 512 CURVE SMOOTH",
"134 512 OFFCURVE",
"50 437 OFFCURVE",
"40 334 CURVE",
"128 320 LINE",
"130 390 OFFCURVE",
"178 436 OFFCURVE",
"242 436 CURVE SMOOTH",
"303 436 OFFCURVE",
"348 395 OFFCURVE",
"348 332 CURVE SMOOTH",
"348 316 LINE SMOOTH",
"348 302 OFFCURVE",
"343 294 OFFCURVE",
"324 292 CURVE SMOOTH",
"160 276 LINE SMOOTH",
"83 268 OFFCURVE",
"28 212 OFFCURVE",
"28 140 CURVE SMOOTH",
"28 52 OFFCURVE",
"101 -12 OFFCURVE",
"203 -12 CURVE SMOOTH",
"272 -12 OFFCURVE",
"330 18 OFFCURVE",
"367 63 CURVE SMOOTH",
"374 71 OFFCURVE",
"375 82 OFFCURVE",
"368 88 CURVE SMOOTH",
"362 93 OFFCURVE",
"359 100 OFFCURVE",
"359 109 CURVE SMOOTH",
"359 125 OFFCURVE",
"371 137 OFFCURVE",
"387 137 CURVE SMOOTH",
"403 137 OFFCURVE",
"415 125 OFFCURVE",
"415 109 CURVE SMOOTH",
"415 100 OFFCURVE",
"412 93 OFFCURVE",
"406 88 CURVE SMOOTH",
"399 82 OFFCURVE",
"399 72 OFFCURVE",
"407 63 CURVE SMOOTH"
);
},
{
closed = 1;
nodes = (
"150 218 OFFCURVE",
"139 226 OFFCURVE",
"138 238 CURVE SMOOTH",
"137 251 OFFCURVE",
"146 261 OFFCURVE",
"160 262 CURVE SMOOTH",
"271 273 LINE SMOOTH",
"285 274 OFFCURVE",
"296 265 OFFCURVE",
"297 253 CURVE SMOOTH",
"298 239 OFFCURVE",
"290 230 OFFCURVE",
"276 229 CURVE SMOOTH",
"164 219 LINE SMOOTH"
);
},
{
closed = 1;
nodes = (
"198 445 OFFCURVE",
"186 455 OFFCURVE",
"186 470 CURVE SMOOTH",
"186 482 OFFCURVE",
"197 492 OFFCURVE",
"209 495 CURVE SMOOTH",
"228 500 OFFCURVE",
"252 500 OFFCURVE",
"271 495 CURVE SMOOTH",
"283 492 OFFCURVE",
"294 482 OFFCURVE",
"294 470 CURVE SMOOTH",
"294 455 OFFCURVE",
"282 445 OFFCURVE",
"267 449 CURVE SMOOTH",
"252 453 OFFCURVE",
"228 453 OFFCURVE",
"213 449 CURVE SMOOTH"
);
}
);
width = 828;
}
);
leftKerningGroup = a;
leftMetricsKey = a;
rightKerningGroup = o;
rightMetricsKey = e;
unicode = 00E6;
},
{
glyphname = b;
lastChange = "2021-05-16 10:55:00 +0000";
layers = (
{
layerId = "8007C042-6FBA-4E49-99B8-8B738A4EBE86";
paths = (
{
closed = 1;
nodes = (
"459 -12 OFFCURVE",
"562 103 OFFCURVE",
"562 252 CURVE SMOOTH",
"562 401 OFFCURVE",
"460 512 OFFCURVE",
"324 512 CURVE SMOOTH",
"192 512 OFFCURVE",
"102 406 OFFCURVE",
"102 252 CURVE SMOOTH",
"102 96 OFFCURVE",
"193 -12 OFFCURVE",
"324 -12 CURVE SMOOTH"
);
},
{
closed = 1;
nodes = (
"216 68 OFFCURVE",
"146 144 OFFCURVE",
"146 250 CURVE SMOOTH",
"146 357 OFFCURVE",
"216 434 OFFCURVE",
"312 434 CURVE SMOOTH",
"408 434 OFFCURVE",
"478 357 OFFCURVE",
"478 250 CURVE SMOOTH",
"478 144 OFFCURVE",
"408 68 OFFCURVE",
"312 68 CURVE SMOOTH"
);
},
{
closed = 1;
nodes = (
"68 0 LINE",
"136 0 LINE",
"148 100 LINE",
"122 250 LINE",
"148 370 LINE",
"148 680 LINE",
"68 680 LINE"
);
}
);
width = 594;
},
{
layerId = "ADDE491E-C0C4-4659-943C-53377B387F47";
paths = (
{
closed = 1;
nodes = (
"465 -12 OFFCURVE",
"554 101 OFFCURVE",
"554 254 CURVE SMOOTH",
"554 403 OFFCURVE",
"462 512 OFFCURVE",
"336 512 CURVE SMOOTH",
"215 512 OFFCURVE",
"132 409 OFFCURVE",
"132 258 CURVE SMOOTH",
"132 102 OFFCURVE",
"222 -12 OFFCURVE",
"344 -12 CURVE SMOOTH"
);
},
{
closed = 1;
nodes = (
"238 124 OFFCURVE",
"192 177 OFFCURVE",
"192 251 CURVE SMOOTH",
"192 325 OFFCURVE",
"238 378 OFFCURVE",
"302 378 CURVE SMOOTH",
"366 378 OFFCURVE",
"412 325 OFFCURVE",
"412 251 CURVE SMOOTH",
"412 177 OFFCURVE",
"366 124 OFFCURVE",
"302 124 CURVE SMOOTH"
);
},
{
closed = 1;
nodes = (
"52 0 LINE",
"160 0 LINE",
"192 84 LINE",
"172 251 LINE",
"192 403 LINE",
"192 680 LINE",
"52 680 LINE"
);
}
);
width = 578;
},
{
components = (
{
name = inkstem_L;
transform = "{1, 0, 0, 1, -192, 270}";
},
{
name = inkcurve;
transform = "{1, 0, 0, -1, 12, 771}";
},
{
name = inkcurve;
transform = "{1, 0, 0, 1, 20, -270}";
},
{
name = inkcurve;
transform = "{0, -1, -1, 0, 818, 550}";
},
{
name = inkstem_S;
transform = "{1, 0, 0, 1, 164, 106}";
},
{
name = inkstem_S;
transform = "{1, 0, 0, 1, 164, -204}";
},
{
name = inkstem_M;
transform = "{1, 0, 0, 1, -192, -70}";
}
);
layerId = m003;
paths = (
{
closed = 1;
nodes = (
"459 -12 OFFCURVE",
"562 103 OFFCURVE",
"562 252 CURVE SMOOTH",
"562 401 OFFCURVE",
"460 512 OFFCURVE",
"324 512 CURVE SMOOTH",
"264 512 OFFCURVE",
"212 491 OFFCURVE",
"174 452 CURVE SMOOTH",
"168 445 OFFCURVE",
"168 437 OFFCURVE",
"172 428 CURVE SMOOTH",
"175 422 OFFCURVE",
"176 418 OFFCURVE",
"176 412 CURVE SMOOTH",
"176 396 OFFCURVE",
"164 384 OFFCURVE",
"148 384 CURVE SMOOTH",
"132 384 OFFCURVE",
"120 396 OFFCURVE",
"120 412 CURVE SMOOTH",
"120 423 OFFCURVE",
"126 432 OFFCURVE",
"136 438 CURVE SMOOTH",
"143 442 OFFCURVE",
"148 451 OFFCURVE",
"148 460 CURVE SMOOTH",
"148 680 LINE",
"68 680 LINE",
"68 0 LINE",
"136 0 LINE",
"140 48 LINE SMOOTH",
"141 60 OFFCURVE",
"134 69 OFFCURVE",
"124 69 CURVE SMOOTH",
"108 69 OFFCURVE",
"96 81 OFFCURVE",
"96 97 CURVE SMOOTH",
"96 113 OFFCURVE",
"108 125 OFFCURVE",
"124 125 CURVE SMOOTH",
"140 125 OFFCURVE",
"152 113 OFFCURVE",
"152 97 CURVE SMOOTH",
"152 92 LINE SMOOTH",
"152 83 OFFCURVE",
"155 72 OFFCURVE",
"160 66 CURVE SMOOTH",
"199 16 OFFCURVE",
"256 -12 OFFCURVE",
"324 -12 CURVE SMOOTH"
);
},
{
closed = 1;
nodes = (
"216 68 OFFCURVE",
"146 144 OFFCURVE",
"146 250 CURVE SMOOTH",
"146 357 OFFCURVE",
"216 434 OFFCURVE",
"312 434 CURVE SMOOTH",
"408 434 OFFCURVE",
"478 357 OFFCURVE",
"478 250 CURVE SMOOTH",
"478 144 OFFCURVE",
"408 68 OFFCURVE",
"312 68 CURVE SMOOTH"
);
}
);
width = 594;
}
);
leftKerningGroup = l;
leftMetricsKey = l;
rightKerningGroup = o;
rightMetricsKey = o;
unicode = 0062;
},
